/* XPM */
static char * burning_barrel2_xpm[] = {
"64 64 24 1",
" 	c None",
".	c #732B00",
"+	c #9B5B13",
"@	c #AF7B1F",
"#	c #C39B2F",
"$	c #874307",
"%	c #D7BB43",
"&	c #EBDB57",
"*	c #FFFF73",
"=	c #232323",
"-	c #2F2F2F",
";	c #272727",
">	c #3B3B3B",
",	c #575757",
"'	c #434343",
")	c #373737",
"!	c #1F170B",
"~	c #170F07",
"{	c #070707",
"]	c #1B1B1B",
"^	c #0B0B0B",
"/	c #474747",
"(	c #4F4F4F",
"_	c #4B4B4B",
"                                                                ",
"                                                                ",
"                                                                ",
"                                                                ",
"                                                                ",
"                                                                ",
"                                                                ",
"                                                                ",
"                                                                ",
"                                                                ",
"                                                                ",
"                                               ..               ",
"                                              ..                ",
"                                            .                   ",
"                                          .+.                   ",
"                                        .++.                    ",
"                                       .@#@+        ..          ",
"                                     .@@##+.  .   .$$           ",
"                                   .@####@+..+. .+@+.           ",
"                                 .+@#%##@++++. .+@@.            ",
"                               .+@@%&#@@$+@+..$++@. .           ",
"                              .+@@%&%@++@@+.+@#+@. .            ",
"                             .+@@#&&##@@#@.+@%@+. ..            ",
"                             $+@@%&%#@@#@@.$%#..  .             ",
"                            .+@@@%##@@##@+.+#+   .              ",
"                           .$+++@#@++@%#@+$@+.                  ",
"                          .+..+@##++#%#@$$++.   .               ",
"                         .@. .+@#@+#%&@+++@@.  .                ",
"                       .+@@. +@@+@@#&&##@@#@..+$                ",
"                       +@#%$.@@+@##%&%%###@++@+                 ",
"                      .@#%#+@####%%*%###%#@+@@+                 ",
"                      +@%%@@###%&**%###%#@@#@+                  ",
"                     .@#%####%&***&%##&###%@@$                  ",
"                     $@#@@##%&****%#%&%#%&#@+$                  ",
"                     +@@+@#%&****&#%&&%#&%@+$.                  ",
"                     $$$$$+@@###@@++@@++++$..                   ",
"                     ==-;-.$++++$$.........=                    ",
"                     ==-;->>>>,,');=!~{~!!!]                    ",
"                    ]$+')',>>$+++$$;..!!]]].]                   ",
"                    ]=;-'++$+@@@@@@+@@++++$.]                   ",
"                    ^]=;--)))$$$$$$-..!]]!!;]                   ",
"                     ^^^^];=]=]!!~~~{{~{{!]=                    ",
"                     ^^^^^;;=;]]!!~~{{~~~~!=                    ",
"                     ^]]^];-;--;;==]]]]!{~!;                    ",
"                     ^]]^];-;-)))-;=]=]!{~!=                    ",
"                     ^]]^];---)))-;=]=]!{{!=                    ",
"                    ];]]^];)--)))-;=]=]!{{~]]                   ",
"                    ]]]=---))'//'>>;;]!~~~~!]                   ",
"                    ^]];->''/(,,,(_'>-;]]~{]]                   ",
"                     ]~];;--))))--;;=]!~~~{]                    ",
"                     ^^^^~~~]]]!!~~~{{~{{~!!                    ",
"                     ^]^^]]=;=]]]]]]]]]!~~!=                    ",
"                     ^]^^];;--;;--;=]=]!{~!=                    ",
"                     ^]^^];;----)-;=]=]!{~!=                    ",
"                     ^]^^];;----)-;=]=]!{~!]                    ",
"                    ]=]^^];;-)-))>-;;]!~]]]!]                   ",
"                    ]=]=;-)>>''_((/'>-;]]]!]]                   ",
"                    !!]]]];;;;----;;=]!~{~!=]                   ",
"                     ~~~~~!]]]]!!~~~{{~{{~!]                    ",
"                     ~^^^^^]]]]]]]=]]]~~{~!]                    ",
"                     ^]^^]==;;;;;;;;;=]!{~!=                    ",
"                     ^]]^]=;;;--)-;-;=]!{~{]                    ",
"                     ^!^^]=;;;----;-;=]!{!{!                    ",
"                       !!]]]======]]]{{{{!                      "};
