/* XPM */
static char * burning_barrel3_xpm[] = {
"64 64 25 1",
" 	c None",
".	c #732B00",
"+	c #9B5B13",
"@	c #874307",
"#	c #C39B2F",
"$	c #AF7B1F",
"%	c #D7BB43",
"&	c #EBDB57",
"*	c #FFFF73",
"=	c #232323",
"-	c #2F2F2F",
";	c #272727",
">	c #3B3B3B",
",	c #575757",
"'	c #434343",
")	c #373737",
"!	c #1F170B",
"~	c #170F07",
"{	c #020202",
"]	c #1B1B1B",
"^	c #0E0E0E",
"/	c #030303",
"(	c #474747",
"_	c #4F4F4F",
":	c #4B4B4B",
"                                                                ",
"                                                                ",
"                                                                ",
"                                                                ",
"                                                                ",
"                                                                ",
"                                                                ",
"                                                                ",
"                                                                ",
"                                                                ",
"                                                                ",
"                                                                ",
"                                                                ",
"                                                      ..        ",
"                                                    .+@.        ",
"                                                .. .+@          ",
"                                      ...    .@@   @+.          ",
"                                    .@+.  .@@++.  @++           ",
"                                  .+#$+..@++++. @@++.  .        ",
"                                 .$%#+.+++$$$@@@+$+.  @         ",
"                                .+#$..++$#$$+@$$$+.  @.         ",
"                               .+$@@+$$##$$+$$$$+.  .@          ",
"                              .+$$++$#%%$$+$##$++.  .           ",
"                             +$##$$$#%%#$$#%#$+$+               ",
"                            .$###$$#%%###%&#$+$$.               ",
"                            $###$$##$$##&&%#$$$+                ",
"                            ##$$$+++$##%&&###$+.++@             ",
"                           .$$##+++$###&&%##$$+$$@.             ",
"                          .+$%%$++$#$$#&%##$$+$$@.              ",
"                        .++$%%$#$$##$##%##$+..$.                ",
"                       .+$$##$#$###%%%###$+.@..                 ",
"                      .+$#$$$$###%&&%###$$+@+                   ",
"                      $$#%#$$##%&**&##%#$+$$+                   ",
"                     .$#%$##%%&***&%#%%$##$+.                   ",
"                     +$$+$#%%&***&%#%&###$$+                    ",
"                     @@@@@+$$###$$++$$++++@.                    ",
"                     ==-;-.@++++@@.........=                    ",
"                     ==-;->>>>,,');=!~{~!!!]                    ",
"                    ]@+')',>>..@@.>;..!!~]].]                   ",
"                    ]=;-'@+@@++$$$++$$+@..@.]                   ",
"                    ^]=;--)))).@@@.-..!]{!!;]                   ",
"                     ^^^^];=]=]!!~~~//~//!]=                    ",
"                     ^^^^^;;=;]]!!~~/{~~~~!=                    ",
"                     ^]]^];-;--;;==]]]]!{~!;                    ",
"                     ^]]^];-;-)))-;=]=]!{~!=                    ",
"                     ^]]^];---)))-;=]=]!{/!=                    ",
"                    ];]]^];)--)))-;=]=]!{/~]]                   ",
"                    ]]]=---))'(('>>;;]!~~~~!]                   ",
"                    ^]];->''(_,,,_:'>-;]]~/]]                   ",
"                     ]~];;--))))--;;=]!~~~/]                    ",
"                     ^^^^~~~]]]!!~~~//~//~!!                    ",
"                     ^]^^]]=;=]]]]]]]]]!~~!=                    ",
"                     ^]^^];;--;;--;=]=]!{~!=                    ",
"                     ^]^^];;----)-;=]=]!{~!=                    ",
"                     ^]^^];;----)-;=]=]!{~!]                    ",
"                    ]=]^^];;-)-))>-;;]!~]]]!]                   ",
"                    ]=]=;-)>>'':__('>-;]]]!]]                   ",
"                    !!]]]];;;;----;;=]!~{~!=]                   ",
"                     ~~~~~!]]]]!!~~~//~/{~!]                    ",
"                     ~^^^^^]]]]]]]=]]]~~{~!]                    ",
"                     ^]^^]==;;;;;;;;;=]!{~!=                    ",
"                     ^]]^]=;;;--)-;-;=]!{~/]                    ",
"                     ^!^^]=;;;----;-;=]!/!{!                    ",
"                       !!]]]======]]]{{{{!                      "};
