/* XPM */
static char * w3d_wood_door_xpm[] = {
"128 128 20 1",
" 	c #7B5229",
".	c #5A4120",
"+	c #8B5A31",
"@	c #734A29",
"#	c #4A3118",
"$	c #413118",
"%	c #292008",
"&	c #834100",
"*	c #FFFF00",
"=	c #C59C29",
"-	c #AC7B18",
";	c #202020",
">	c #202908",
",	c #732900",
"'	c #081000",
")	c #5A4221",
"!	c #4C3520",
"~	c #5C4427",
"{	c #7C542E",
"]	c #312910",
"                                                                                                                                ",
"................................................................................................................................",
"++++++++++++++++++++++++++++++++++++++++++++++++++++++++++++++++++++++++++++++++++++++++++++++++++++++++++++++++++++++++++++++++",
"++++++++++++++++++++++++++++++++++++++++++++++++++++++++++++++++++++++++++++++++++++++++++++++++++++++++++++++++++++++++++++++++",
"                                                                                                                                ",
"@@@@@@@@@@@@@@@@..#..#..@@@@@@@@@@@@@@@@@@@@@@@@@@@@..#..#..@@@@@@@@..#..#..@@@@@@@@@@@@..#..#..@@@@@@@@@@@@@@@@@@@@@@..#..#..@@",
"..............$$#.$%$$...#$$$$$$$$#...$$..$$..$$$$..#.$%$$....$$..$$#.$%$$...#$$$$$$#.$$#.$%$$..$#..#$$#..#$#.$$.....##.$%$$....",
"..............$$. $%$. ..#$$$$$$$$#...$$..$$..$$$$... $%$. ...$$..$$. $%$. ..#$$$$$$#.$$. $%$. .$#..#$$#..#$#.$$.....#. $%$. ...",
"####.@       @#. +.$.@+@..########.   ##.@##.@####.. +.$.@+@  ##@ .. +.$.@+@..######.... +.$.@+@#.  .##.  .#. .#.    @ +.$.@+@.@",
"####.@       @#. +.$.@+@..########.   ##.@##.@####.. +.$.@+@ @##@ .. +.$.@+@...####..... +.$.@+@#.  .##.  .#. .#.    @ +.$.@+@.@",
"####.@      @.#. +.$.@+@@.#######..  @##.@##.@####.. +.$.@+@ @##@ .. +.$.@+@@..####.. .. +.$.@+@#.  .##.  .#. .#.    @ +.$.@+@#.",
"####..      @.#. +.$.@+@@.#######..  @##.@##.@####.. +.$.@+@ @##@ .. +.$.@+@@@..##..@ .. +.$.@+@#.  .##.  .#. .#.    @ +.$.@+@#.",
"####..@     @.#. +.$.@+@ ..######.@  .##.@##.@####.. +.$.@+@@@##@ .. +.$.@+@ @......@ .. +.$.@+@#.  .##.  .#. .#.    @ +.$.@+@#.",
"####..@     ..#. +.$.@+@ ..#####..@  .##.@##.@####.. +.$.@+@@@##@ .. +.$.@+@ @@....@  .. +.$.@+@#.  .##.  .#. .#.    @ +.$.@+@#.",
".###..@@    ..#. +.$.@+@ @.#####..@ @.##.@##.@####.. +.$.@+@@.##@ .. +.$.@+@  @@..@   .. +.$.@+@#.  .##.  .#. .#.    @ +.$.@+@#.",
".###...@   @..#. +.$.@+@ @.#####.@@ @.##.@##.@####.. +.$.@+@@.##@ .. +.$.@+@   @@@    .. +.$.@+@#.  .##.  .#. .#.    @ +.$.@+@#.",
"@.###...@ @..##. +.$.@+@ @..###..@  @.##.@##.@####.. +.$.@+@@.##@ .. +.$.@+@          .. +.$.@+@#.  .##.  .#. .#.@   @ +.$.@+@#.",
"@.####...@...##. +.$.@+@  ..###.@@  @.##.@##.@####.. +.$.@+@@.##@ .. +.$.@+@          .. +.$.@+@#.  .##.  .#. .#.@   @ +.$.@+@#.",
"@.#####.....###. +.$.@+@  @.###.@   ..##.@##.@####.. +.$.@+@..##@ .. +.$.@+@          .. +.$.@+@#.  .##.  .#. .#.@   @ +.$.@+@#.",
"@.#####.....##.. +.$.@+@  @.##..@   ..##.@##.@####.. +.$.@+@..##@ .. +.$.@+@@         .. +.$.@+@#.  .##.  .#. .#.@   @ +.$.@+@#.",
" ..#####...###.. +.$.@+@   @.#.@    .###.@##.@####.. +.$.@+@..##@ .. +.$.@+@@         .. +.$.@+@#.  .##.  .#. .#..   @ +.$.@+@#.",
" @.#####..####.. +.$.@+@   @..@@   @.###.@##.@####.. +.$.@+@..##@ .. +.$.@+@@         .. +.$.@+@#.  .##.  .#. .#..   @ +.$.@+@#.",
"  .###########.. +.$.@+@   @@.@    @.###.@##.@####.. +.$.@+@.##.@ .. +.$.@+@@        @.. +.$.@+@#.  .##.  .#. .#..   @ +.$.@+@##",
"  ..#########.@. +.$.@+@   @@@@    @.###.@##.@####.. +.$.@+@.##.  .. +.$.@+@@        @.. +.$.@+@#.  .##.  .#. .#..   @ +.$.@+@##",
"@@@.########..@. +.$.@+@    @@     @.###.@##.@####.. +.$.@+@###.  .. +.$.@+@@@       @.. +.$.@+@#.  .##.  .#. .##.   @ +.$.@+@##",
"@@ .########.@@. +.$.@+@    @@     @.###.@##.@####.. +.$.@+@###.  .. +.$.@+@.@       ... +.$.@+@#.  .##.  .#. .##.@  @ +.$.@+@##",
"@@ @..######.@@. +.$.@+@@         @@####.@##.@####.. +.$.@+@##.. @.. +.$.@+@.@      @... +.$.@+@#.  .##.  .#. .##.@  @ +.$.@+@##",
"@@  ..#####.. .. +.$.@+@@         @@####.@##.@####.. +.$.@+@##.. @.. +.$.@+@.@      @... +.$.@+@#.  .##.  .#. .##.@  @ +.$.@+@##",
".@  @.####..@@.. +.$.@+@@         @.####.@##.@####.. +.$.@+@##.@ @.. +.$.@+@..      @... +.$.@+@#.  .##.  .#. ..#..  @ +.$.@+@##",
".@   @.###.. @#. +.$.@+@@         @.####.@##.@####.. +.$.@+@#..@ @.. +.$.@+@..      @#.. +.$.@+@#.  .##.  .#. ..#..  @ +.$.@+@##",
".@    ..##.@@.#. +.$.@+@@@        @.####.@##.@####.. +.$.@+@...  ... +.$.@+@#.@@  @@.#.. +.$.@+@#.  .##.  .#. ..#..  @ +.$.@+@.#",
"..    @..#. @.#. +.$.@+@.@        @.####.@##.@####.. +.$.@+@..@  ... +.$.@+@#.@@  @@.#.. +.$.@+@#.  .##.  .#. ..#..  @ +.$.@+@.#",
"#.@    @..@ @.#. +.$.@+@.@        @.####.@##.@####.. +.$.@+@..@ @... +.$.@+@#..@@@@..#.. +.$.@+@#.  .##.  .#. ..##.  @ +.$.@+@.#",
"#.@     @.@ @.#. +.$.@+@.@@       ..####.@##.@####.. +.$.@+@..  @... +.$.@+@##..@@..##.. +.$.@+@#.  .##.  .#. ..##.  @ +.$.@+@.#",
"#.@@    @@  ..#. +.$.@+@..@       ..####.@##.@####.. +.$.@+@.@  @... +.$.@+@##......##.. +.$.@+@#.  .##.  .#. ..##.@ @ +.$.@+@.#",
"#.@@     @  ..#. +.$.@+@..@      @..####.@##.@####.. +.$.@+@    @... +.$.@+@###....###.. +.$.@+@#.  .##.  .#. ..##.@ @ +.$.@+@.#",
"##.@@      @.##. +.$.@+@..@      @..####.@##.@####.. +.$.@+@   @.... +.$.@+@####..####.. +.$.@+@#.  .##.  .#. @.###. @ +.$.@+@..",
"##.@@      @.##. +.$.@+@#.@      @..####.@##.@####.. +.$.@+@   @.... +.$.@+@##########.. +.$.@+@#.  .##.  .#. @..##. @ +.$.@+@..",
"##..@     @..##. +.$.@+@#.@@     @..###.@@##.@####.. +.$.@+@  @@.... +.$.@+@##########.. +.$.@+@#.  .##.  .#. @..##.@@ +.$.@+@..",
"##..@@    @..##. +.$.@+@#..@     @..###.@.##.@####.. +.$.@+@  @..#.. +.$.@+@##########.. +.$.@+@#.  .##.  .#. @..##..@ +.$.@+@..",
"###..@    @.###. +.$.@+@#..@    @@.####.@.##.@####.. +.$.@+@  @..#.. +.$.@+@#########... +.$.@+@#.  .##.  .#. @..###.@ +.$.@+@..",
"###..@@  @..###. +.$.@+@#..@    @..####.@.##.@####.. +.$.@+@ @@..#.. +.$.@+@.########... +.$.@+@#.  .##.  .#. @..###.. +.$.@+@..",
"###...@@@@..##.. +.$.@+@##..    @..###..@.##.@####.. +.$.@+@ @..##.. +.$.@+@.########... +.$.@+@#.  .##.  .#.  @.###.. +.$.@+@..",
"####...@@...##.. +.$.@+@##..@  @@..###..@.##.@####.. +.$.@+@@@..##.. +.$.@+@@.######.@.. +.$.@+@#.  .##.  .#.  @.####. +.$.@+@..",
".###......####.. +.$.@+@##..@  @...###..@.##.@####.. +.$.@+@@...##.. +.$.@+@@..####..@.. +.$.@+@#.  .##.  .#.@ @.####. +.$.@+@..",
".###......####.. +.$.@+@##...@ @...###..@.##.@####.. +.$.@+@@..###.. +.$.@+@@@..##..@@.. +.$.@+@#.  .##.  .#.@ @.####. +.$.@+@..",
".####....####... +.$.@+@###..@@@..####.@@.##.@####.. +.$.@+@...###.. +.$.@+@ @@....@@ .. +.$.@+@#.  .##.  .#.@ @..###. +.$.@+@..",
"..####..#####... +.$.@+@###...@...####.@@.##.@####.. +.$.@+@..####.. +.$.@+@  @@..@@  .. +.$.@+@#.  .##.  .#.@ @..#### +.$.@+@..",
"..###########... +.$.@+@###.......####.@@.##.@####.. +.$.@+@..####.. +.$.@+@   @@@@   .. +.$.@+@#.  .##.  .#.@ @..#### +.$.@+@..",
"..##########.... +.$.@+@###......####..@@.##.@####.. +.$.@+@.#####.. +.$.@+@    @@    .. +.$.@+@#.  .##.  .#..  ..#### +.$.@+@..",
"@.##########.... +.$.@+@####....#####..@@.##.@####.. +.$.@+@######.. +.$.@+@          .. +.$.@+@#.  .##.  .#..  ...### +.$.@+@..",
"@.##########.... +.$.@+@#####...#####..@..##.@####.. +.$.@+@######.. +.$.@+@          .. +.$.@+@#.  .##.  .#..@ @..### +.$.@+@#.",
"@.##########.... +.$.@+@#############.@@..##.@####.. +.$.@+@#####... +.$.@+@          .. +.$.@+@#.  .##.  .#..@ @..### +.$.@+@#.",
"@@##########.... +.$.@+@#############.@@..##.@####.. +.$.@+@#####... +.$.@+@         @#. +.$.@+@#.  .##.  .#..@ @..### +.$.@+@#.",
"@@.########.@... +.$.@+@############..  .##.@@####.. +.$.@+@#####... +.$.@+@         @#. +.$.@+@#.  .##.  .#&******.## +.$.@+@##",
"@@.########.@... +.$.@+@############..  .##.@@####.. +.$.@+@####.... +.$.@+@         @#. +.$.@+@#.  .##.  .#&=*****.## +.$.@+@##",
".@.########.@... +.$.@+@############.. @.##.@@####.. +.$.@+@####.... +.$.@+@@@       .#. +.$.@+@#.  .##.  .##-****&.## +.$.@+@##",
".@..#######.@... +.$.@+@############.. @.##.@@####.. +.$.@+@####.... +.$.@+@.@       .#. +.$.@+@#.  .##.@ .;>#****,.## +.$.@+@##",
".@@.#######.@... +.$.@+@############.. @.##.@@####.. +.$.@+@####.@.. +.$.@+@.@       .#. +.$.@+@#.  .##.@ .;;'****).## +.$.@+@##",
"..@.######.@.... +.$.@+@############.. @###.@@####.. +.$.@+@####.@.. +.$.@+@.@       .#. +.$.@+@#.  .##.@ .##'***=..## +.$.@+@.#",
"..@..#####.@.#.. +.$.@+@############.@ @###.@@####.. +.$.@+@###..@.. +.$.@+@..      @.#. +.$.@+@#.  .##.@ .##'****)..# +.$.@+@.#",
"..@@.#####.@.#.. +.$.@+@############.@ @###.@@####.. +.$.@+@###.@@.. +.$.@+@..      @.#. +.$.@+@#.  .##.@ .#!'****)..# +.$.@+@.#",
"#..@..####@@.#.. +.$.@+@.###########.@ @###.@@####.. +.$.@+@##..@ .. +.$.@+@..@@    @.#. +.$.@+@#.  .##.@ .!!'***=@..# +.$.@+@.#",
"#..@..###.@..#.. +.$.@+@.###########.@ @###.@@####.. +.$.@+@##..@ .. +.$.@+@..@@    @.#. +.$.@+@#.  .##.@ ~!!'***=@... +.$.@+@.#",
"#..@@.....@..#.. +.$.@+@..#########.@ @@###.@@####.. +.$.@+@#..@  .. +.$.@+@#..@    ..#. +.$.@+@#.  .##.@ ~!#'***=@@.. +.$.@+@.#",
"#...@@...@@.##.. +.$.@+@..#########.@ @.###.@@####.. +.$.@+@...@  .. +.$.@+@#..@    ..#. +.$.@+@#.  .##.@{~!!'***=@@.. +.$.@+@.#",
"##..@@...@..##.. +.$.@+@@..########.@ @.###.@@####.. +.$.@+@..@@  .. +.$.@+@#..@  @@.##. +.$.@+@#.  .##.@{~#!'***= @.. +.$.@+@.#",
"##..@@@.@@..##.. +.$.@+@@..#######..@ @.###.@@####.. +.$.@+@..@  @.# +.$.@+@#...  @..##. +.$.@+@#.  .##.@{.!#'***=  @. +.$.@+@.#",
"###..@@@@..###.. +.$.@+@ @..######..  @.##..@@####.. +.$.@+@.@@  @.# +.$.@+@##..@@@..##. +.$.@+@#.  .##.@{.!#'***-  @. +.$.@+@..",
"###...@@...###.. +.$.@+@ @..######..  @.##..@.####.. +.$.@+@.@   @.# +.$.@+@##..@@..###. +.$.@+@#.  .##.@ .##'***-  @@ +.$.@+@..",
"####.......###.. +.$.@+@  @..####..@  @.##..@.####.. +.$.@+@@@   @.# +.$.@+@###.....###. +.$.@+@#.  .##.@{.##'-==-   @ +.$.@+@..",
"####......####.. +.$.@+@  @..####..   ..##..@.####.. +.$.@+@@    ..# +.$.@+@###....###.. +.$.@+@#.  .##.@ ..#'----   @ +.$.@+@..",
"#####....#####.. +.$.@+@   @..##..@  @..##.@@.####.. +.$.@+@    @..# +.$.@+@####...###.. +.$.@+@#.  .##.@ ..#'----   @ +.$.@+@..",
"######..######.. +.$.@+@    ..##..   @..##.@@.####.. +.$.@+@    @..# +.$.@+@#####.####.. +.$.@+@#.  .##.@ ..#'----   @ +.$.@+@..",
"##############.. +.$.@+@    @....@   @.###.@@.####.. +.$.@+@    @.## +.$.@+@##########.. +.$.@+@#.  .##.@ ...#&&&&,  @ +.$.@+@..",
".#############.. +.$.@+@     @..@    @.###.@@.####.. +.$.@+@   @@.## +.$.@+@##########.. +.$.@+@#.  .##.@ ..>#,,,,#  @ +.$.@+@..",
".############... +.$.@+@      @@    @@.###.@@.####.. +.$.@+@   @..## +.$.@+@##########.. +.$.@+@#.  .##.@ ..>]#..#>  @ +.$.@+@#.",
".############... +.$.@+@            @@.###.@@.####.. +.$.@+@   @..## +.$.@+@##########.. +.$.@+@#.  .##.@ ..;>>>>>   @ +.$.@+@#.",
"..###########... +.$.@+@@@          @..##.. @.####.. +.$.@+@  @@..## +.$.@+@.#########.. +.$.@+@#.  .###. @.;;;#.@   @ +.$.@+@#.",
"..##########.... +.$.@+@.@          @.###.. @.####.. +.$.@+@  @...## +.$.@+@.########... +.$.@+@#.  .###. @.####.@   @ +.$.@+@#.",
"..##########.... +.$.@+@.@          @.###.. @.####.. +.$.@+@ @@..### +.$.@+@.########... +.$.@+@#.  .###.@@.####.@@  @ +.$.@+@#.",
"...#########.... +.$.@+@.@@         @.###.@ @.####.. +.$.@+@ @@..### +.$.@+@..#######... +.$.@+@#.  .###.@@.####..@  @ +.$.@+@#.",
"@..########..@.. +.$.@+@#.@        @..###.@ @.####.. +.$.@+@ @...##. +.$.@+@@.######.... +.$.@+@#.  .###.@ .####..@  @ +.$.@+@#.",
"@..#######...@.. +.$.@+@#.@        @..###.@ ..####.. +.$.@+@ @..###. +.$.@+@@..#####.... +.$.@+@#.  .###.@ .#####.@  @ +.$.@+@#.",
"@...######..@... +.$.@+@#.@        @..###.@ ..####.. +.$.@+@@@..###. +.$.@+@ ..####..... +.$.@+@#.  .###.. ..####.@@ @ +.$.@+@##",
"@@..######..@... +.$.@+@#.@        @.####.@ ..####.. +.$.@+@@...###. +.$.@+@ @..##...@.. +.$.@+@#.  .###.. ..####.@@ @ +.$.@+@##",
"@@...####...@... +.$.@+@##.@      @@.###..@ .#####.. +.$.@+@@..####. +.$.@+@ @......@@.. +.$.@+@#.  .###.. ..####..@@@ +.$.@+@##",
".@...####..@@... +.$.@+@##.@      @..###.. @.#####.. +.$.@+@@..####. +.$.@+@ @@.....@@.. +.$.@+@#.  .###.. @.####..@@@ +.$.@+@##",
".@@...##...@@... +.$.@+@##..@    @@..###.. @.#####.. +.$.@+@..####.. +.$.@+@  @....@@ .. +.$.@+@#.  .###.. @.#####..@@ +.$.@+@##",
".@@...##...@.... +.$.@+@##..@    @..####.. @.#####.. +.$.@+@..####.. +.$.@+@  @@..@@  .. +.$.@+@#.  .###..@ .#####...@ +.$.@+@##",
"..@@.......@.... +.$.@+@##..@@  @@..####.@ @.#####.. +.$.@+@.#####.. +.$.@+@   @@@@   .. +.$.@+@#.  .###..@ ..#####... +.$.@+@##",
"..@@......@@.... +.$.@+@###..@@@@...####.@ @.#####.. +.$.@+@######.. +.$.@+@    @@   @.. +.$.@+@#.  .###..@ ..######.. +.$.@+@##",
"#.@ ...... @.... +.$.@+@####.@@@@..####..@ @.#####.. +.$.@+@#####... +.$.@+@@        @.. +.$.@+@#.  .###..@ ..#######. +.$.@+@##",
"#.@ @....@ @.... +.$.@+@####..@@...####..@ @.#####.. +.$.@+@#####... +.$.@+@@        @.. +.$.@+@#.  .###..@ ..######## +.$.@+@##",
"#.@ @....@ @.#.. +.$.@+@#####.....#####.. @.####.#.. +.$.@+@#####... +.$.@+@@        @.. +.$.@+@#.  .###..@ @..####### +.$.@+@##",
"#..  @..@@ @.#.. +.$.@+@######....#####.@ @.####.#.. +.$.@+@####.... +.$.@+@@        @.. +.$.@+@#.  .####.@ @..####### +.$.@+@##",
"##.   @@@  @.#.. +.$.@+@.######..#####..@ @.####.#.. +.$.@+@####.... +.$.@+@@       @@.. +.$.@+@#.  .####.@ @..####### +.$.@+@##",
"##.@  @@   @.#.. +.$.@+@.#############..@ @.####.#.. +.$.@+@####.... +.$.@+@@       @@#. +.$.@+@#.  .####.. @...###### +.$.@+@##",
"##..@      @.#.. +.$.@+@.#############..@ ..####.#.. +.$.@+@###..@.. +.$.@+@@@      @.#. +.$.@+@#.  .####..@  ..###### +.$.@+@.#",
"##..@     @..#.. +.$.@+@..############..@ ..####.#.. +.$.@+@###..@.. +.$.@+@.@      @.#. +.$.@+@#.  .####..@  ..###### +.$.@+@.#",
"##..@@    @..#.. +.$.@+@..############.@  ..####.#.. +.$.@+@##..@ .. +.$.@+@.@     @@.#. +.$.@+@#.  .####..@  ...##### +.$.@+@.#",
"###..@    @..#.. +.$.@+@..###########..@ @..###..#.. +.$.@+@##..  .. +.$.@+@.@     @@.#. +.$.@+@#.  .####..@  ...##### +.$.@+@.#",
"###..@    ...#.. +.$.@+@@..##########..@ @.####..#.. +.$.@+@#..@  .. +.$.@+@.@@    @@.#. +.$.@+@#.  .#####..  @..##### +.$.@+@..",
"###..@@   ...#.. +.$.@+@@..##########..@ @.####..#.. +.$.@+@...@  .. +.$.@+@.@@    @..#. +.$.@+@#.  .#####..  @..##### +.$.@+@..",
"####..@ @@..##.. +.$.@+@ ..#########..@ @@.####..#.. +.$.@+@..@   .. +.$.@+@..@   @@..#. +.$.@+@#.  .#####..  @...#### +.$.@+@..",
"####..@ @...##.. +.$.@+@ @..########..@ @..####..#.. +.$.@+@.@@   .. +.$.@+@..@   @@..#. +.$.@+@#.  .#####..  @@..#### +.$.@+@..",
"####...@@...##.. +.$.@+@ @..########..@ @..###...#.. +.$.@+@@@    .. +.$.@+@..@@  @..##. +.$.@+@#.@ ..####..@@  ....## +.$.@+@..",
"#####..@....##.. +.$.@+@  ...#######..@ @.####...#.. +.$.@+@@     .. +.$.@+@#..@  @..##. +.$.@+@#.@ ..####..@@  ....## +.$.@+@@.",
"#####......###.. +.$.@+@@@@..#######.@  @.####...#.. +.$.@+@      .. +.$.@+@#..@  @..##. +.$.@+@#.@ ..####...@  @...## +.$.@+@@.",
"#####......###.. +.$.@+@.@@...#####..@ @@.####...#.. +.$.@+@      .. +.$.@+@#..@@ ...##. +.$.@+@#.@ ..####...@  @....# +.$.@+@@.",
"######....####.. +.$.@+@.@ @..#####..@ @.#####.@.#.. +.$.@+@      .. +.$.@+@##..@@...##. +.$.@+@#.@ ..#####..@  @....# +.$.@+@@.",
"######....####.. +.$.@+@.@ @...###..@@ @.#####.@.#.. +.$.@+@     @.. +.$.@+@##..@@..###. +.$.@+@#.@ ..#####...  @@.... +.$.@+@@.",
"######...#####.. +.$.@+@..@ @...##..@  @.#####.@.#.. +.$.@+@     @.. +.$.@+@##......###. +.$.@+@#.@ ..#####...@@  .... +.$.@+@@.",
"#######..#####.. +.$.@+@..@ @@...#..   ..#####.@.#.. +.$.@+@     @.. +.$.@+@##......###. +.$.@+@#.@ ..######..@@  .... +.$.@+@@@",
".############... +.$.@+@#.@@ @@....@  @.######.@.#.. +.$.@+@     @.. +.$.@+@###....####. +.$.@+@##@@..######...@  @... +.$.@+@ @",
".############... +.$.@+@#..@  @@..@   @.#####..@.#.. +.$.@+@     @.. +.$.@+@###....####. +.$.@+@##.@..######...@  @... +.$.@+@ @",
"..###########... +.$.@+@##.@@   @@   @..#####.. .#.. +.$.@+@    @... +.$.@+@####..#####. +.$.@+@##.@@.#######..@  @... +.$.@+@ @",
"..##########.... +.$.@+@##..@        @..#####.@ .#.. +.$.@+@    @... +.$.@+@###########. +.$.@+@##.@@.#######...  @... +.$.@+@ @",
"..##########.... +.$.@+@##..@@      @@.######.@ .#.. +.$.@+@   @@... +.$.@+@###########. +.$.@+@##.@@..######...@@@... +.$.@+@ @",
"..##########.@.. +.$.@+@###.@@     @@..#####..@@.#.. +.$.@+@   @@... +.$.@+@###########. +.$.@+@##.@@..#######...@@... +.$.@+@ @",
"...########..@.. +.$.@+@###..@@@  @@@.######..@@.#.. +.$.@+@  @@.... +.$.@+@###########. +.$.@+@##..@..#######...@@... +.$.@+@ @",
"...########..@.. +.$.@+@####..@@@ @@..######.@ @##.. +.$.@+@  @@.... +.$.@+@###########. +.$.@+@.#..@@.########...@... +.$.@+@ @",
"@...#######..@.. +.$.@+@####...@@@@..#######.@ @##.. +.$.@+@ @@..#.. +.$.@+@##########.. +.$.@+@.#..@@..#######....... +.$.@+@ @",
"@...#######.@@.. +.$.@+@#####...@@...######..@ .##.. +.$.@+@ @@..#.. +.$.@+@##########.. +.$.@+@.##.@@..########...... +.$.@+@ @",
"@...#######.@@.. +.$.@+@######......#######..@ .##.. +.$.@+@@@..##.. +.$.@+@##########.. +.$.@+@.##..@..#########..... +.$.@+@ @",
"@@..######..@@.. +.$.@+@#######....########.@ @.##.. +.$.@+@@..###.. +.$.@+@##########.. +.$.@+@.##.....##########.... +.$.@+@ @",
"@@...####...@@.. +.$.@+@########..########..@@..##.. +.$.@+@..####.. +.$.@+@.########... +.$.@+@..##.....##########... +.$.@+@@@",
"@@....##........ +.$.@+@.#################.....###.. +.$.@+@.#####.. +.$.@+@..######.... +.$.@+@..##.....###########.. +.$.@+@@@"};
