/* XPM */
static char *_824f73b15834a3bac95752ed863bf47MRz0GlIF3vBMwwkY[] = {
/* columns rows colors chars-per-pixel */
"64 64 44 1 ",
"  c None",
". c #376800",
"X c #307800",
"o c #484800",
"O c #465900",
"+ c #425F00",
"@ c #485800",
"# c #505000",
"$ c #406000",
"% c #6A6C5F",
"& c #606060",
"* c gray44",
"= c #804F28",
"- c #805127",
"; c #805028",
": c #805128",
"> c #805029",
", c #895730",
"< c #885731",
"1 c #875830",
"2 c #885830",
"3 c #895830",
"4 c #885930",
"5 c #885831",
"6 c #986038",
"7 c #A86840",
"8 c #108800",
"9 c #069200",
"0 c #009800",
"q c #009900",
"w c #208000",
"e c #00A000",
"r c #00A800",
"t c #00B000",
"y c #609800",
"u c #00C000",
"i c #00D000",
"p c #00D800",
"a c #00E800",
"s c #00F800",
"d c #50F850",
"f c #888888",
"g c #D8F8F8",
"h c #F8F8F8",
/* pixels */
"                               &f&                              ",
"                               *f*                              ",
"                               **%                              ",
"                            0000.@@@@                           ",
"                          00etiut9+O@#@                         ",
"                         08tiaaiiur0w$o@                        ",
"                        08eisssspiut0X$o@                       ",
"                       08etpsghhhhhgpteXo$                      ",
"                       00etpdsgggggspte0y$                      ",
"                         00etuipapiute00                        ",
"                                                                ",
"                                                                ",
"                                                                ",
"                                                                ",
"                                                                ",
"                                                                ",
"                                                                ",
"                                                                ",
"                                                                ",
"                                                                ",
"                                                                ",
"                                                                ",
"                                                                ",
"                                                                ",
"                                                                ",
"                                                                ",
"                                                                ",
"                                                                ",
"                                                                ",
"                                                                ",
"                                                                ",
"                                                                ",
"                                                                ",
"                                                                ",
"                                                                ",
"                                                                ",
"                                                                ",
"                                                                ",
"                                                                ",
"                                                                ",
"                                                                ",
"                                                                ",
"                                                                ",
"                                                                ",
"                                                                ",
"                                                                ",
"                                                                ",
"                                                                ",
"                                                                ",
"                                                                ",
"                                                                ",
"                                                                ",
"                                                                ",
"                                                                ",
"                                                                ",
"                                                                ",
"                                                                ",
"                                                                ",
"                                                                ",
"        ;;;-;;;;;;;;;;;;=;;;;;;;;;;;;;;=;;;;;;;;;;;;-;;;;       ",
"   ;;;;22222222222222222222222222222222222222222222222222;;;    ",
" ;;;2222266666666666666666666666666666666666666666666666222;;;; ",
" ;;2222666677777777777777777777777777777777777777777776666222;; ",
"    ;22,1222,22222222122222222222222222222122222222,2221,22;;   "
};
