/* XPM */
static char * skull4_xpm[] = {
"128 128 71 1",
" 	c None",
".	c #7F0000",
"+	c #B30000",
"@	c #8B0000",
"#	c #9B0000",
"$	c #A70000",
"%	c #E30000",
"&	c #CB0000",
"*	c #D70000",
"=	c #5B0000",
"-	c #BF0000",
";	c #EF0000",
">	c #474F33",
",	c #836B57",
"'	c #373F27",
")	c #5B472B",
"!	c #FF3F3F",
"~	c #8F7753",
"{	c #774F2B",
"]	c #836B4B",
"^	c #775F3F",
"/	c #4F3B23",
"(	c #730000",
"_	c #B74700",
":	c #675333",
"<	c #A78F77",
"[	c #430000",
"}	c #67533F",
"|	c #574333",
"1	c #AF4300",
"2	c #4F0000",
"3	c #9F876F",
"4	c #875733",
"5	c #4F3B2B",
"6	c #533F2F",
"7	c #937B63",
"8	c #7F1B1B",
"9	c #6B0F0F",
"0	c #3F2B1B",
"a	c #C34F00",
"b	c #7B634F",
"c	c #775F4B",
"d	c #5F4B37",
"e	c #670000",
"f	c #3F2F17",
"g	c #8B735B",
"h	c #9B7F6B",
"i	c #6F5743",
"j	c #43331B",
"k	c #533F1F",
"l	c #AF977F",
"m	c #5F4323",
"n	c #EB6F0F",
"o	c #CB5707",
"p	c #771717",
"q	c #1F170B",
"r	c #070707",
"s	c #4B371B",
"t	c #000000",
"u	c #332B13",
"v	c #972F2F",
"w	c #831F1F",
"x	c #6B4727",
"y	c #DF670F",
"z	c #5B0707",
"A	c #5F0707",
"B	c #A36B3F",
"C	c #FF0000",
"D	c #171F07",
"E	c #9B633B",
"F	c #F7AB7B",
"                                                                                                                                ",
"                                                                                                                                ",
"                                                                                                                                ",
"                                                                                                                                ",
"                                                                                                                                ",
"                                                                                                                                ",
"                                                                                                                                ",
"                                                                                                                                ",
"                                                                                                                                ",
"                                                                                                                                ",
"                                                                                                                                ",
"                                                                                                                                ",
"                                                                                                                                ",
"                                                                                                                                ",
"                                                                                                                                ",
"                                                                                                                                ",
"                                                                                                                                ",
"                                                                                                                                ",
"                                                                                                                                ",
"                                                                                                                                ",
"                                                                                                                                ",
"                                                                                                                                ",
"                                                                                                                                ",
"                                                                                                                                ",
"                                                                                                                                ",
"                                                                                                                                ",
"                                                                                                                                ",
"                                                                                                                                ",
"                                                                                                                                ",
"                                                                                                                                ",
"                                                                                                                                ",
"                                                                                                                                ",
"                                                                                                                                ",
"                                                                                                                                ",
"                                                                                                                                ",
"                                                                                                                                ",
"                                                                                                                                ",
"                                                                                                                                ",
"                                                        .                                                                       ",
"                                                                                                                                ",
"                                                       . .                                                                      ",
"                                                                                                                                ",
"                                                                                                                                ",
"                                                       .                                                                        ",
"                                                      .  .                                                                      ",
"                                                                                                                                ",
"                                                       . .                                                                      ",
"                                                       ..                                                                       ",
"                                                      . .+      .                                                               ",
"                                                        +.                                                                      ",
"                                                      @ +                                                                       ",
"                                                     @.#.                                                                       ",
"                                                     .++..     .                                                                ",
"                                                     $%@##                                                                      ",
"                                                    &.#.+. .                                                                    ",
"                                                   ##++$.....    .                                                              ",
"                                                  +*$#%..# =.                                                                   ",
"                                                 &* %#..-# .                                                                    ",
"                                                 +#+##++..%... @                                                                ",
"                                                %*$#-$+%. + ..@.                                                                ",
"                                                *%;#;-$+.>+,.#.='                                                               ",
"                                                 ##$; **.....)$#@)))                                                            ",
"                                                +*-#+&-!~+.,%&.#.{]^^)                                                          ",
"                                                #-;+;/*-#.(_##++$.{]^:)                                                         ",
"                                                #@+%/<%+-#[+*$#%.+@^^::/       }|                                               ",
"                                                $..@++1++$2(3%@..%%%4))5/     }|6                                               ",
"                                              6$&@1@+++789(=+@@++0_a%)/5/   bcd|                                                ",
"                                              +#+%.@..+#.e+(#-@+%a_+@fdcgh7g,idj                                                ",
"                                              6.++....+#@e%;@;-@+&kk6db7l<hgcij                                                 ",
"                                               ...+.++..#e(#@;:**..f6},g7gbc}j                                                  ",
"                                                ..+#+%.@@+*@(@&-!'+.6dcccc}||                                                   ",
"                                               ....+;:*-#.-;@;m*-#...6|d|||                                                     ",
"                                              .&&+.$+%+###@+#@+%no%+-#pqrs                                                      ",
"                                              .%%...&%;+;-e.#-;+o:*ana.ptd                                                      ",
"                                               $$#....u%+ee$$*-#+&-!vw6qtxs                                                     ",
"                                              #*&.++%.+@ee4$.$$#-$_%.2qtfbs                                                     ",
"                                              #-&.+++.(@1@$.e.#+#_y+.zzqd7d                                                     ",
"                                               +$A.%.(((((eefe$B%#_.zzsxibi                                                     ",
"                                                (($%--rr(rrfm4e*$#%.zkk6|i                                                      ",
"                                                $((-$$uuuuuuf#e##++_.pfff                                                       ",
"                                                  ((((uuuuuuuue#&.#._wft                                                        ",
"                                                     |urrrrrrrrej$#@-Cft                                                        ",
"                                                    |Drttrrrrrt}bjj#-*                                                          ",
"                                                    |Drtttquuqt|b}|j                                                            ",
"                                                     |Dttttquqtr|c}}jEF                                                         ",
"                                                      |Dttttqqtru|cc||t                                                         ",
"                                                        |DDttttttr|c6t                                                          ",
"                                                          |jtttttttd|                                                           ",
"                                                            jDttttt66                                                           ",
"                                                               ||66j                                                            ",
"                                                                                                                                ",
"                                                                                                                                ",
"                                                                                                                                ",
"                                                                                                                                ",
"                                                                                                                                ",
"                                                                                                                                ",
"                                                                                                                                ",
"                                                                                                                                ",
"                                                                                                                                ",
"                                                                                                                                ",
"                                                                                                                                ",
"                                                                                                                                ",
"                                                                                                                                ",
"                                                                                                                                ",
"                                                                                                                                ",
"                                                                                                                                ",
"                                                                                                                                ",
"                                                                                                                                ",
"                                                                                                                                ",
"                                                                                                                                ",
"                                                                                                                                ",
"                                                                                                                                ",
"                                                                                                                                ",
"                                                                                                                                ",
"                                                                                                                                ",
"                                                                                                                                ",
"                                                                                                                                ",
"                                                                                                                                ",
"                                                                                                                                ",
"                                                                                                                                ",
"                                                                                                                                ",
"                                                                                                                                ",
"                                                                                                                                ",
"                                                                                                                                ",
"                                                                                                                                ",
"                                                                                                                                ",
"                                                                                                                                ",
"                                                                                                                                "};
