/* XPM */
static char * skull6_xpm[] = {
"128 128 71 1",
" 	c None",
".	c #7F0000",
"+	c #B30000",
"@	c #8B0000",
"#	c #9B0000",
"$	c #E30000",
"%	c #A70000",
"&	c #CB0000",
"*	c #5B0000",
"=	c #D70000",
"-	c #BF0000",
";	c #373F27",
">	c #836B57",
",	c #474F33",
"'	c #EF0000",
")	c #5B472B",
"!	c #775F3F",
"~	c #836B4B",
"{	c #774F2B",
"]	c #8F7753",
"^	c #FF3F3F",
"/	c #675333",
"(	c #B74700",
"_	c #730000",
":	c #4F3B23",
"<	c #574333",
"[	c #67533F",
"}	c #430000",
"|	c #A78F77",
"1	c #533F2F",
"2	c #4F3B2B",
"3	c #875733",
"4	c #9F876F",
"5	c #4F0000",
"6	c #AF4300",
"7	c #5F4B37",
"8	c #775F4B",
"9	c #7B634F",
"0	c #C34F00",
"a	c #3F2B1B",
"b	c #6B0F0F",
"c	c #7F1B1B",
"d	c #937B63",
"e	c #43331B",
"f	c #6F5743",
"g	c #8B735B",
"h	c #9B7F6B",
"i	c #3F2F17",
"j	c #670000",
"k	c #AF977F",
"l	c #533F1F",
"m	c #5F4323",
"n	c #4B371B",
"o	c #070707",
"p	c #1F170B",
"q	c #771717",
"r	c #CB5707",
"s	c #EB6F0F",
"t	c #000000",
"u	c #6B4727",
"v	c #831F1F",
"w	c #972F2F",
"x	c #332B13",
"y	c #5B0707",
"z	c #DF670F",
"A	c #A36B3F",
"B	c #5F0707",
"C	c #FF0000",
"D	c #171F07",
"E	c #F7AB7B",
"F	c #9B633B",
"                                                                                                                                ",
"                                                                                                                                ",
"                                                                                                                                ",
"                                                                                                                                ",
"                                                                                                                                ",
"                                                                                                                                ",
"                                                                                                                                ",
"                                                                                                                                ",
"                                                                                                                                ",
"                                                                                                                                ",
"                                                                                                                                ",
"                                                                                                                                ",
"                                                                                                                                ",
"                                                                                                                                ",
"                                                                                                                                ",
"                                                                                                                                ",
"                                                                                                                                ",
"                                                                                                                                ",
"                                                                                                                                ",
"                                                                                                                                ",
"                                                                                                                                ",
"                                                                                                                                ",
"                                                                                                                                ",
"                                                                                                                                ",
"                                                                                                                                ",
"                                                                                                                                ",
"                                                                                                                                ",
"                                                                                                                                ",
"                                                                                                                                ",
"                                                                                                                                ",
"                                                                                                                                ",
"                                                                                                                                ",
"                                                                                                                                ",
"                                                                                                                                ",
"                                                                                                                                ",
"                                                                                                                                ",
"                                                                                                                                ",
"                                                                                                                                ",
"                                                                      .                                                         ",
"                                                                                                                                ",
"                                                                     . .                                                        ",
"                                                                                                                                ",
"                                                                                                                                ",
"                                                                       .                                                        ",
"                                                                     .  .                                                       ",
"                                                                                                                                ",
"                                                                     . .                                                        ",
"                                                                      ..                                                        ",
"                                                              .      +. .                                                       ",
"                                                                     .+                                                         ",
"                                                                      + @                                                       ",
"                                                                      .#.@                                                      ",
"                                                               .     ..++.                                                      ",
"                                                                     ##@$%                                                      ",
"                                                                   . .+.#.&                                                     ",
"                                                             .    .....%++##                                                    ",
"                                                                  .* #..$#%=+                                                   ",
"                                                                   . #-..#$ =&                                                  ",
"                                                               @ ...$..++##+#+                                                  ",
"                                                               .@.. + .$+%-#%=$                                                 ",
"                                                              ;*.#.>+,.+%-'#'$=                                                 ",
"                                                           )))@#%).....== '%##                                                  ",
"                                                         )!!~{.#.&$>.+]^-&+#-=+                                                 ",
"                                                        )/!~{.%++##(_.#-=:'+'-#                                                 ",
"                                              <[       ://!!@+.$#%=+}#-+$|:$+@#                                                 ",
"                                              1<[     :2))3$$$..@$4_5%++6++@..%                                                 ",
"                                               <789   :2:)$0(a++@@+*_bcd+++@6@&%1                                               ",
"                                               e7f>gdhg87i@+(0$+@-#_+j.#+..@.$+#+                                               ",
"                                                ef8gh|kd971ll&+@-'@'$j@#+....++.1                                               ",
"                                                 e[89gdg>[1i..==/'@#_j#..++.+...                                                ",
"                                                  <<[888871.+;^-&@_@=+@@.$+#+..                                                 ",
"                                                    <<<7<1...#-=m'@'-.#-=/'+....                                                ",
"                                                     nopq#-+$rs$+@#+@###+$+%.+&&.                                               ",
"                                                     7tq.0s0=/r+'-#.j-'+'$&...$$.                                               ",
"                                                    nutp1vw^-&+#-=%%jj+$x....#%%                                                ",
"                                                    n9itp5.$(%-#%%.%3jj@+.$++.&=#                                               ",
"                                                    7d7pyy.+z(#+#.j.%@6@_.+++.&-#                                               ",
"                                                    f9funyy.(#$A%jijj_____.$.B%+                                                ",
"                                                     f<1lly.$#%=j3mioo_oo--$%__                                                 ",
"                                                      iiiq.(++##j#ixxxxxx%%-__%                                                 ",
"                                                       tiv(.#.&#jxxxxxxxx____                                                   ",
"                                                       tiC-@#%ejoooooooox<                                                      ",
"                                                         =-#ee9[tooooottoD<                                                     ",
"                                                           e<[9<tpxxptttoD<                                                     ",
"                                                        EFe[[8<otpxpttttD<                                                      ",
"                                                        t<<88<xotppttttD<                                                       ",
"                                                         t18<ottttttDD<                                                         ",
"                                                          <7ttttttte<                                                           ",
"                                                          11tttttDe                                                             ",
"                                                           e11<<                                                                ",
"                                                                                                                                ",
"                                                                                                                                ",
"                                                                                                                                ",
"                                                                                                                                ",
"                                                                                                                                ",
"                                                                                                                                ",
"                                                                                                                                ",
"                                                                                                                                ",
"                                                                                                                                ",
"                                                                                                                                ",
"                                                                                                                                ",
"                                                                                                                                ",
"                                                                                                                                ",
"                                                                                                                                ",
"                                                                                                                                ",
"                                                                                                                                ",
"                                                                                                                                ",
"                                                                                                                                ",
"                                                                                                                                ",
"                                                                                                                                ",
"                                                                                                                                ",
"                                                                                                                                ",
"                                                                                                                                ",
"                                                                                                                                ",
"                                                                                                                                ",
"                                                                                                                                ",
"                                                                                                                                ",
"                                                                                                                                ",
"                                                                                                                                ",
"                                                                                                                                ",
"                                                                                                                                ",
"                                                                                                                                ",
"                                                                                                                                ",
"                                                                                                                                ",
"                                                                                                                                ",
"                                                                                                                                ",
"                                                                                                                                ",
"                                                                                                                                "};
