/* XPM */
static char * skull8_xpm[] = {
"128 128 81 1",
" 	c None",
".	c #B30000",
"+	c #670000",
"@	c #E30000",
"#	c #7F0000",
"$	c #9B0000",
"%	c #5B0000",
"&	c #872300",
"*	c #A73F00",
"=	c #A70000",
"-	c #CB0000",
";	c #932F00",
">	c #9F3700",
",	c #8B0000",
"'	c #D70000",
")	c #9B5B13",
"!	c #FF0000",
"~	c #AF7B1F",
"{	c #AF4300",
"]	c #B74700",
"^	c #D75F0B",
"/	c #C39B2F",
"(	c #C34F00",
"_	c #F37317",
":	c #D7BB43",
"<	c #CB5707",
"[	c #FF8F3B",
"}	c #EBDB57",
"|	c #BF0000",
"1	c #730000",
"2	c #FFA35B",
"3	c #DF670F",
"4	c #5B472B",
"5	c #8F7753",
"6	c #9B7F6B",
"7	c #9F876F",
"8	c #AF977F",
"9	c #BFA78F",
"0	c #A78F77",
"a	c #CB7F4F",
"b	c #B37347",
"c	c #533F1F",
"d	c #836B4B",
"e	c #B79F87",
"f	c #775F3F",
"g	c #9B633B",
"h	c #4B371B",
"i	c #8B735B",
"j	c #5F4323",
"k	c #7B634F",
"l	c #A36B3F",
"m	c #775F4B",
"n	c #774F2B",
"o	c #373F27",
"p	c #7F532F",
"q	c #937B63",
"r	c #473323",
"s	c #836B57",
"t	c #EF0000",
"u	c #875733",
"v	c #675333",
"w	c #6F5743",
"x	c #6B4727",
"y	c #9F8363",
"z	c #3F2F17",
"A	c #5F4B37",
"B	c #332B13",
"C	c #1F170B",
"D	c #170F07",
"E	c #8F5F37",
"F	c #2B230F",
"G	c #7F1B1B",
"H	c #3F2B1B",
"I	c #000000",
"J	c #732B00",
"K	c #43331B",
"L	c #F7AB7B",
"M	c #FFCFB3",
"N	c #AB6F43",
"O	c #0B0B0B",
"P	c #CF8353",
"                                                                                                                                ",
"                                                                                                                                ",
"                                                                                                                                ",
"                                                                                                                                ",
"                                                                                                                                ",
"                                                                                                                                ",
"                                                                                                                                ",
"                                                                                                                                ",
"                                                                                                                                ",
"                                                                                                                                ",
"                                                                                                                                ",
"                                                                                                                                ",
"                                                                                                                                ",
"                                                                                                                                ",
"                                                                                                                                ",
"                                                                                                                                ",
"                                                                                                                                ",
"                                                                                                                                ",
"                                                                                                                                ",
"                                                                                                                                ",
"                                                                                                                                ",
"                                                                                                                                ",
"                                                                                                                                ",
"                                                                                                                                ",
"                                                                                                                                ",
"                                                                                                                                ",
"                                                                                                                                ",
"                                                                                                                                ",
"                                                                                                                                ",
"                                                                                                                                ",
"                                                                                                                                ",
"                                                                                                                                ",
"                                                                                                                                ",
"                                                                                                                                ",
"                                                                                                                                ",
"                                                                                                                                ",
"                                                                                                                                ",
"                                                                                                                                ",
"                                                                                                                                ",
"                                                                                                                                ",
"                                                                   .                                                            ",
"                                                              +    @                                                            ",
"                                                              #   #@#                                                           ",
"                                                             $####...#                                                          ",
"                                                             #%& #..@#                                                          ",
"                                                              #*  #=##                                                          ",
"                                                            ###@##=#-@#                                                         ",
"                                                          ####;.>##=.@+                                                         ",
"                                                        + %$$#;.;# ,'.-,                                                        ",
"                                                       +=#$'&###)@!!@.,#                                                        ",
"                                                       # %$#$@&#~){.,##                                                         ",
"                                                      ,-#$@#]#]^//^@,{, =                                                       ",
"                                                     ,#!.'.$];(_::_<{{;,=#                                                      ",
"                                                     $-@!=$=]*^[}}[<^(#=@=                                                      ",
"                                                    =|$]1=].^(_2}}2[_-#,'##                                                     ",
"                                                    ,=@^1=[=_([2222[3--]#=#.                                                    ",
"                                                     ,#_4567889807ab(###='#..@                                                  ",
"                                                    '#cd5678e999807b###=...###                                                  ",
"                                                   '$cf567888888807g'#]#=..@@.@                                                 ",
"                                                h  'cfi60000000000b!<#^-#@.#=.@                                                 ",
"                                                jjjhjk577777777777l<+(_@##09m#                                                  ",
"                                                njjopfi5666666666ig._]+#k6qqm#+@                                                ",
"                                                 -hrpmsiqqqqqqqiippds#588smm$,+.                                                ",
"                                                 thhnpmmkssssssuncv789998qm##$+#                                                ",
"                                                @!hhjnpwwwwwpnxjjcd77e8yqs@#,,-                                                 ",
"                                                --hhjxxxjcjjjjjjccsq77qm4t!',,                                                  ",
"                                                 #hhcccccccjjcczzc4mmvv4@!!@                                                    ",
"                                                 .hhhccAwwwjjczBzzCCCC%.,'@{..@                                                 ",
"                                                #DhxhhxEblgdd4BFCCCCCz|<$@'.-G$                                                 ",
"                                                #DxbFxEbnhHFBB4zIICFz%3<$t=$#.|                                                 ",
"                                                 DDxDFhhHDD%Izf4CIII#-.t=$$.##                                                  ",
"                                                 #Drrxc#|})JIDf4BCCB#ot.tt|$                                                    ",
"                                                  DDjFxc#'|#D4ff4zz.yf!-!|=,,                                                   ",
"                                                  jjFDFjjf5yydvfvfE'f4']'=..,                                                   ",
"                                                  czDDIFFcffnnvfff$''-|^'.@.                                                    ",
"                                                  czBDDFCCcccjjvfv.K$$<{|@@|                                                    ",
"                                                   z4uKhBFFCBBcc#$.###..#||+                                                    ",
"                                                   c4njExcCCFF+{>#$>tt|$$+#$                                                    ",
"                                                   gLEILgzFCC+#BBF##$$$###$                                                     ",
"                                                      CIDDCCCDCBhBBz.$1+                                                        ",
"                                                     LIIIIMNOECBhhBzz###                                                        ",
"                                                    z.EIL1PjjCBHHhzBB                                                           ",
"                                                    zjjj.,1BBHHhzzFC                                                            ",
"                                                    zHzHHHHHHBBBF                                                               ",
"                                                    zHHHHHHHzBC                                                                 ",
"                                                     HzzzzzzD                                                                   ",
"                                                      HHHHH                                                                     ",
"                                                                                                                                ",
"                                                                                                                                ",
"                                                                                                                                ",
"                                                                                                                                ",
"                                                                                                                                ",
"                                                                                                                                ",
"                                                                                                                                ",
"                                                                                                                                ",
"                                                                                                                                ",
"                                                                                                                                ",
"                                                                                                                                ",
"                                                                                                                                ",
"                                                                                                                                ",
"                                                                                                                                ",
"                                                                                                                                ",
"                                                                                                                                ",
"                                                                                                                                ",
"                                                                                                                                ",
"                                                                                                                                ",
"                                                                                                                                ",
"                                                                                                                                ",
"                                                                                                                                ",
"                                                                                                                                ",
"                                                                                                                                ",
"                                                                                                                                ",
"                                                                                                                                ",
"                                                                                                                                ",
"                                                                                                                                ",
"                                                                                                                                ",
"                                                                                                                                ",
"                                                                                                                                ",
"                                                                                                                                ",
"                                                                                                                                ",
"                                                                                                                                ",
"                                                                                                                                ",
"                                                                                                                                ",
"                                                                                                                                ",
"                                                                                                                                ",
"                                                                                                                                ",
"                                                                                                                                ",
"                                                                                                                                "};
