/* XPM */
static char * skull7_xpm[] = {
"128 128 76 1",
" 	c None",
".	c #7F0000",
"+	c #B30000",
"@	c #9B0000",
"#	c #BF0000",
"$	c #CB0000",
"%	c #AF4300",
"&	c #FF0000",
"*	c #E30000",
"=	c #D70000",
"-	c #5B0000",
";	c #C34F00",
">	c #A73F00",
",	c #A70000",
"'	c #EF0000",
")	c #932F00",
"!	c #9F3700",
"~	c #670000",
"{	c #8B0000",
"]	c #872300",
"^	c #F37317",
"/	c #B74700",
"(	c #CB5707",
"_	c #775F3F",
":	c #836B4B",
"<	c #8F7753",
"[	c #937B63",
"}	c #D75F0B",
"|	c #C39B2F",
"1	c #DF670F",
"2	c #9B7F6B",
"3	c #9F876F",
"4	c #AF977F",
"5	c #BFA78F",
"6	c #A78F77",
"7	c #B79F87",
"8	c #675333",
"9	c #836B57",
"0	c #8B735B",
"a	c #BF5B5B",
"b	c #B34F4F",
"c	c #5F4B37",
"d	c #730000",
"e	c #5F4323",
"f	c #574333",
"g	c #A73F3F",
"h	c #373F27",
"i	c #7B634F",
"j	c #FFE3D3",
"k	c #3F2F17",
"l	c #6F5743",
"m	c #FFCFB3",
"n	c #1F170B",
"o	c #332B13",
"p	c #533F2F",
"q	c #775F4B",
"r	c #67533F",
"s	c #5B472B",
"t	c #170F07",
"u	c #000000",
"v	c #473323",
"w	c #774F2B",
"x	c #533F1F",
"y	c #4B371B",
"z	c #8F2B2B",
"A	c #2B230F",
"B	c #EB6F0F",
"C	c #7F532F",
"D	c #8F5F37",
"E	c #7F1B1B",
"F	c #FF3F3F",
"G	c #4F3B23",
"H	c #6B0F0F",
"I	c #F7AB7B",
"J	c #9B633B",
"K	c #6B4727",
"                                                                                                                                ",
"                                                                                                                                ",
"                                                                                                                                ",
"                                                                                                                                ",
"                                                                                                                                ",
"                                                                                                                                ",
"                                                                                                                                ",
"                                                                                                                                ",
"                                                                                                                                ",
"                                                                                                                                ",
"                                                                                                                                ",
"                                                                                                                                ",
"                                                                                                                                ",
"                                                                                                                                ",
"                                                                                                                                ",
"                                                                                                                                ",
"                                                                                                                                ",
"                                                                                                                                ",
"                                                                                                                                ",
"                                                                                                                                ",
"                                                                                                                                ",
"                                                                                                                                ",
"                                                                                                                                ",
"                                                                                                                                ",
"                                                                                                                                ",
"                                                                                                                                ",
"                                                                                                                                ",
"                                                                                                                                ",
"                                                                                                                                ",
"                                                                                                                                ",
"                                                                                                                                ",
"                                                                                                                                ",
"                                                                                                                                ",
"                                                                                                                                ",
"                                                                                                                                ",
"                                                                                                                                ",
"                                                                                                                                ",
"                                                                    .                                                           ",
"                                                                                                                                ",
"                                                                   .                                                            ",
"                                                                                                                                ",
"                                                                                                                                ",
"                                                                     .                                                          ",
"                                                                   .                                                            ",
"                                                                                                                                ",
"                                                                   . .                                                          ",
"                                                                     .                                                          ",
"                                                                   +                                                            ",
"                                                                   .+                                                           ",
"                                                                    +                                                           ",
"                                                               .    .@                                                          ",
"                                                               . #  .+                                                          ",
"                                                               .   .@+                                                          ",
"                                                               .$@ .+.                                                          ",
"                                                              ..%#&*#.@=                                                        ",
"                                                              .-;*=$@.@$$                                                       ",
"                                                               .>  .,..',@@                                                     ",
"                                                             ...*..,.$*.@#=+                                                    ",
"                                                           ....)+!.!!+*~+'#@                                                    ",
"                                                           -@@.)+)!;;!+$*.{@                                                    ",
"                                                          .@=]...!;^/(.{++.                                                     ",
"                                                           _:<[[[[}|>1.*++.                                                     ",
"                                                        :23455544444<;....),$                                                   ",
"                                                      :22267777777763.*$...,=,                                                  ",
"                                                    890[367755555557ab*+,.)',,                                                  ",
"                                                   c_:9222664477763ab!!....&##d                                                 ",
"                                                  e8__:<[[222[[22ab!^;%!@...{{d                                                 ",
"                                                  fc8__:<<<[25[gb>({!%!{@....+                                                  ",
"                                                 hfffc8_::ii2j3*.^(..{@@..++.                                                   ",
"                                                 kkhffc88lll6m6g.>>.+@.{{+++@@                                                  ",
"                                                 noppfffpq9[576+....+$.+%*~'+'                                                  ",
"                                                 nokkhpkhrq2629ggs,./*+.&$~+*+{                                                 ",
"                                                 tkooohkhpri998g8is@1$++&*..{#.                                                 ",
"                                                 tkooookoupvvvu.sw.+$..+$$#{#.                                                  ",
"                                                 txykoooouuuuz.++....++.&~.#                                                    ",
"                                                 trrxykooAuz/B}+/1.,.@@.#+#,,                                                   ",
"                                                tCi[DxykooAokEz+/.'+.++@,= ,                                                    ",
"                                                ttoeiwxkokokccE.@#F#{~.*@@,,                                                    ",
"                                                  tokexykoG8:_cE{+#~~oo+@,$=                                                    ",
"                                                   nxwwxx888ynn{+{e#.oo.@H$#                                                    ",
"                                                   nokkkxeAAnk..kd#*.#@@+#{                                                     ",
"                                                    nAAxkxk....@/^(#.#*$#{                                                      ",
"                                                    nxowk{}/+.++..@.A{{                                                         ",
"                                                    nwkIJ @{..+*++@oo                                                           ",
"                                                    IJ     Ce...+                                                               ",
"                                                         ICeyyyn                                                                ",
"                                                       IeCeyooyn                                                                ",
"                                                      eCoKykoon                                                                 ",
"                                                       nokkonn                                                                  ",
"                                                       nAoAtt                                                                   ",
"                                                        nntt                                                                    ",
"                                                                                                                                ",
"                                                                                                                                ",
"                                                                                                                                ",
"                                                                                                                                ",
"                                                                                                                                ",
"                                                                                                                                ",
"                                                                                                                                ",
"                                                                                                                                ",
"                                                                                                                                ",
"                                                                                                                                ",
"                                                                                                                                ",
"                                                                                                                                ",
"                                                                                                                                ",
"                                                                                                                                ",
"                                                                                                                                ",
"                                                                                                                                ",
"                                                                                                                                ",
"                                                                                                                                ",
"                                                                                                                                ",
"                                                                                                                                ",
"                                                                                                                                ",
"                                                                                                                                ",
"                                                                                                                                ",
"                                                                                                                                ",
"                                                                                                                                ",
"                                                                                                                                ",
"                                                                                                                                ",
"                                                                                                                                ",
"                                                                                                                                ",
"                                                                                                                                ",
"                                                                                                                                ",
"                                                                                                                                ",
"                                                                                                                                ",
"                                                                                                                                ",
"                                                                                                                                ",
"                                                                                                                                ",
"                                                                                                                                "};
