/* XPM */
static char * skull3_xpm[] = {
"128 128 76 1",
" 	c None",
".	c #7F0000",
"+	c #B30000",
"@	c #9B0000",
"#	c #BF0000",
"$	c #CB0000",
"%	c #D70000",
"&	c #E30000",
"*	c #FF0000",
"=	c #AF4300",
"-	c #C34F00",
";	c #5B0000",
">	c #A70000",
",	c #EF0000",
"'	c #A73F00",
")	c #670000",
"!	c #9F3700",
"~	c #932F00",
"{	c #8B0000",
"]	c #CB5707",
"^	c #B74700",
"/	c #F37317",
"(	c #872300",
"_	c #DF670F",
":	c #C39B2F",
"<	c #D75F0B",
"[	c #937B63",
"}	c #8F7753",
"|	c #836B4B",
"1	c #775F3F",
"2	c #AF977F",
"3	c #BFA78F",
"4	c #9F876F",
"5	c #9B7F6B",
"6	c #A78F77",
"7	c #B79F87",
"8	c #B34F4F",
"9	c #BF5B5B",
"0	c #8B735B",
"a	c #836B57",
"b	c #675333",
"c	c #730000",
"d	c #5F4B37",
"e	c #5F4323",
"f	c #A73F3F",
"g	c #574333",
"h	c #FFE3D3",
"i	c #7B634F",
"j	c #373F27",
"k	c #FFCFB3",
"l	c #6F5743",
"m	c #3F2F17",
"n	c #775F4B",
"o	c #533F2F",
"p	c #332B13",
"q	c #1F170B",
"r	c #5B472B",
"s	c #67533F",
"t	c #170F07",
"u	c #774F2B",
"v	c #000000",
"w	c #473323",
"x	c #8F2B2B",
"y	c #4B371B",
"z	c #533F1F",
"A	c #EB6F0F",
"B	c #2B230F",
"C	c #7F1B1B",
"D	c #8F5F37",
"E	c #7F532F",
"F	c #FF3F3F",
"G	c #4F3B23",
"H	c #6B0F0F",
"I	c #9B633B",
"J	c #F7AB7B",
"K	c #6B4727",
"                                                                                                                                ",
"                                                                                                                                ",
"                                                                                                                                ",
"                                                                                                                                ",
"                                                                                                                                ",
"                                                                                                                                ",
"                                                                                                                                ",
"                                                                                                                                ",
"                                                                                                                                ",
"                                                                                                                                ",
"                                                                                                                                ",
"                                                                                                                                ",
"                                                                                                                                ",
"                                                                                                                                ",
"                                                                                                                                ",
"                                                                                                                                ",
"                                                                                                                                ",
"                                                                                                                                ",
"                                                                                                                                ",
"                                                                                                                                ",
"                                                                                                                                ",
"                                                                                                                                ",
"                                                                                                                                ",
"                                                                                                                                ",
"                                                                                                                                ",
"                                                                                                                                ",
"                                                                                                                                ",
"                                                                                                                                ",
"                                                                                                                                ",
"                                                                                                                                ",
"                                                                                                                                ",
"                                                                                                                                ",
"                                                                                                                                ",
"                                                                                                                                ",
"                                                                                                                                ",
"                                                                                                                                ",
"                                                                                                                                ",
"                                                          .                                                                     ",
"                                                                                                                                ",
"                                                           .                                                                    ",
"                                                                                                                                ",
"                                                                                                                                ",
"                                                         .                                                                      ",
"                                                           .                                                                    ",
"                                                                                                                                ",
"                                                         . .                                                                    ",
"                                                         .                                                                      ",
"                                                           +                                                                    ",
"                                                          +.                                                                    ",
"                                                          +                                                                     ",
"                                                         @.    .                                                                ",
"                                                         +.  # .                                                                ",
"                                                         +@.   .                                                                ",
"                                                         .+. @$.                                                                ",
"                                                       %@.#&*#=..                                                               ",
"                                                      $$@.@$%&-;.                                                               ",
"                                                    @@>,..>.  '.                                                                ",
"                                                   +%#@.&$.>..&...                                                              ",
"                                                   @#,+)&+!!.!+~....                                                            ",
"                                                   @{.&$+!--!~+~.@@;                                                            ",
"                                                    .++{.]^/-!...(%@.                                                           ",
"                                                    .++&._':<[[[[}|1                                                            ",
"                                                  $>~....-}22222333245|                                                         ",
"                                                 >%>...$&.46777777776555|                                                       ",
"                                                 >>,~.>+&89733333337764[0ab                                                     ",
"                                                c##*....!!89467772266555a|1d                                                    ",
"                                                c{{...@!=-/!8955[[555[[}|11be                                                   ",
"                                                 +....@{!=!{]'8f[35[}}}|11bdg                                                   ",
"                                                  .++..@@{..]/.&4h5ii||1bdgggj                                                  ",
"                                                 @@+++{{.@+.''.f6k6lllbbdggjmm                                                  ",
"                                                 ,+,)&=+.$+....+673[anogggoopq                                                  ",
"                                                {+&+)$*.+&^.>rffa565nsjmojmmpq                                                  ",
"                                                .#{..&*++$_@ribfbaaisojmjpppmt                                                  ",
"                                                 .#{#$$+..$+.ur.vwwwovpmppppmt                                                  ",
"                                                   #.)*.++....++.xvvvvppppmyzt                                                  ",
"                                                  >>#+#.@@.>._^+<A^xvBppmyzsst                                                  ",
"                                                   > %>@++.+,.^+xCmpBppmyzD[iEt                                                 ",
"                                                   >>@@&.){#F#@.Cddmpmpmzuieptt                                                 ",
"                                                   %$>@+pp))#+{Cd1|bGpmyzempt                                                   ",
"                                                   #$H@.pp.#e{+{qqybbbzzuuzq                                                    ",
"                                                    {#+@@#.&#cm..mqBBezmmmpq                                                    ",
"                                                     {#$&#.#]/^@....mzmzBBq                                                     ",
"                                                        {{B.@..++.+^<{mupzq                                                     ",
"                                                          pp@++&+..{@ IJmuq                                                     ",
"                                                              +...eE     IJ                                                     ",
"                                                               qyyyeEJ                                                          ",
"                                                               qyppyeEeJ                                                        ",
"                                                                qppmyKpEe                                                       ",
"                                                                 qqpmmpq                                                        ",
"                                                                  ttBpBq                                                        ",
"                                                                   ttqq                                                         ",
"                                                                                                                                ",
"                                                                                                                                ",
"                                                                                                                                ",
"                                                                                                                                ",
"                                                                                                                                ",
"                                                                                                                                ",
"                                                                                                                                ",
"                                                                                                                                ",
"                                                                                                                                ",
"                                                                                                                                ",
"                                                                                                                                ",
"                                                                                                                                ",
"                                                                                                                                ",
"                                                                                                                                ",
"                                                                                                                                ",
"                                                                                                                                ",
"                                                                                                                                ",
"                                                                                                                                ",
"                                                                                                                                ",
"                                                                                                                                ",
"                                                                                                                                ",
"                                                                                                                                ",
"                                                                                                                                ",
"                                                                                                                                ",
"                                                                                                                                ",
"                                                                                                                                ",
"                                                                                                                                ",
"                                                                                                                                ",
"                                                                                                                                ",
"                                                                                                                                ",
"                                                                                                                                ",
"                                                                                                                                ",
"                                                                                                                                ",
"                                                                                                                                ",
"                                                                                                                                ",
"                                                                                                                                ",
"                                                                                                                                "};
