/* XPM */
static char * skull2_xpm[] = {
"128 128 81 1",
" 	c None",
".	c #B30000",
"+	c #E30000",
"@	c #670000",
"#	c #7F0000",
"$	c #9B0000",
"%	c #872300",
"&	c #5B0000",
"*	c #A70000",
"=	c #A73F00",
"-	c #CB0000",
";	c #9F3700",
">	c #932F00",
",	c #8B0000",
"'	c #D70000",
")	c #FF0000",
"!	c #9B5B13",
"~	c #AF4300",
"{	c #AF7B1F",
"]	c #D75F0B",
"^	c #C39B2F",
"/	c #B74700",
"(	c #CB5707",
"_	c #F37317",
":	c #D7BB43",
"<	c #C34F00",
"[	c #FF8F3B",
"}	c #EBDB57",
"|	c #FFA35B",
"1	c #730000",
"2	c #BF0000",
"3	c #DF670F",
"4	c #B37347",
"5	c #CB7F4F",
"6	c #9F876F",
"7	c #A78F77",
"8	c #AF977F",
"9	c #BFA78F",
"0	c #9B7F6B",
"a	c #8F7753",
"b	c #5B472B",
"c	c #B79F87",
"d	c #836B4B",
"e	c #533F1F",
"f	c #9B633B",
"g	c #775F3F",
"h	c #8B735B",
"i	c #4B371B",
"j	c #775F4B",
"k	c #A36B3F",
"l	c #7B634F",
"m	c #5F4323",
"n	c #937B63",
"o	c #7F532F",
"p	c #373F27",
"q	c #774F2B",
"r	c #836B57",
"s	c #473323",
"t	c #675333",
"u	c #875733",
"v	c #EF0000",
"w	c #9F8363",
"x	c #6B4727",
"y	c #6F5743",
"z	c #3F2F17",
"A	c #1F170B",
"B	c #332B13",
"C	c #5F4B37",
"D	c #7F1B1B",
"E	c #2B230F",
"F	c #8F5F37",
"G	c #170F07",
"H	c #000000",
"I	c #3F2B1B",
"J	c #732B00",
"K	c #43331B",
"L	c #F7AB7B",
"M	c #0B0B0B",
"N	c #AB6F43",
"O	c #FFCFB3",
"P	c #CF8353",
"                                                                                                                                ",
"                                                                                                                                ",
"                                                                                                                                ",
"                                                                                                                                ",
"                                                                                                                                ",
"                                                                                                                                ",
"                                                                                                                                ",
"                                                                                                                                ",
"                                                                                                                                ",
"                                                                                                                                ",
"                                                                                                                                ",
"                                                                                                                                ",
"                                                                                                                                ",
"                                                                                                                                ",
"                                                                                                                                ",
"                                                                                                                                ",
"                                                                                                                                ",
"                                                                                                                                ",
"                                                                                                                                ",
"                                                                                                                                ",
"                                                                                                                                ",
"                                                                                                                                ",
"                                                                                                                                ",
"                                                                                                                                ",
"                                                                                                                                ",
"                                                                                                                                ",
"                                                                                                                                ",
"                                                                                                                                ",
"                                                                                                                                ",
"                                                                                                                                ",
"                                                                                                                                ",
"                                                                                                                                ",
"                                                                                                                                ",
"                                                                                                                                ",
"                                                                                                                                ",
"                                                                                                                                ",
"                                                                                                                                ",
"                                                                                                                                ",
"                                                                                                                                ",
"                                                                                                                                ",
"                                                            .                                                                   ",
"                                                            +    @                                                              ",
"                                                           #+#   #                                                              ",
"                                                          #...####$                                                             ",
"                                                          #+..# %&#                                                             ",
"                                                          ##*#  =#                                                              ",
"                                                         #+-#*##+###                                                            ",
"                                                         @+.*##;.>####                                                          ",
"                                                        ,-.', #>.>#$$& @                                                        ",
"                                                        #,.+))+!###%'$#*@                                                       ",
"                                                         ##,.~!{#%+$#$& #                                                       ",
"                                                       * ,~,+]^^]/#/#+$#-,                                                      ",
"                                                      #*,>~~(_::_<>/$.'.)#,                                                     ",
"                                                      *+*#<]([}}[]=/*$*)+-$                                                     ",
"                                                     ##',#-_[|}}|_<]./*1/$2*                                                    ",
"                                                    .#*#/--3[||||[<_*[*1]+*,                                                    ",
"                                                  +..#'*###<4567898860ab_#,                                                     ",
"                                                  ###...*###4678999c860ade#'                                                    ",
"                                                 +.++..*#/#'f67888888860age$'                                                   ",
"                                                 +.*#.+#-]#()477777777770hge'  i                                                ",
"                                                  #j97##+_<@(k66666666666almimmm                                                ",
"                                                +@#jnn0l#@/_.fh000000000ahgopmmq                                                ",
"                                                .@,$jjr88a#rdoohhnnnnnnnhrjosi-                                                 ",
"                                                #@$##jn899986tequrrrrrrljjoqiiv                                                 ",
"                                                 -,,#+rnw8c66demmxqoyyyyyoqmii)+                                                ",
"                                                  ,,')vbjn66nreemmmmmmemxxxmii--                                                ",
"                                                    +))+bttjjbezzeemmeeeeeeeii#                                                 ",
"                                                 +..~+',.&AAAAzzBzemmyyyCeeiii.                                                 ",
"                                                 $D-.'+$(2zAAAAAEBbddfk4FxiixiG#                                                ",
"                                                 2.#$*v$(3&zEAHHzbBBEIiq4FxE4xG#                                                ",
"                                                  ##.$$*v.-#HHHAbgzH&GGIiiEGxGG                                                 ",
"                                                    $2vv.vp#BAABbgGHJ!}2#exssG#                                                 ",
"                                                   ,,*2)-)gw.zzbggbG#2'#exEmGG                                                  ",
"                                                   ,..*'/'bg'FgtgtdwwagmmEGEmm                                                  ",
"                                                    .+.']2-''$gggtqqggeEEHGGze                                                  ",
"                                                    2++2~($$K.tgtmmeeeAAEGGBze                                                  ",
"                                                    @22#..###.$#eeBBAEEBiKubz                                                   ",
"                                                    $#@$$2vv;$#;~@EEAAexFmqbe                                                   ",
"                                                     $###$$$##EBB#@AAEzfLHFLf                                                   ",
"                                                        @1$.zBBiBAGAAAGGHA                                                      ",
"                                                        ###zzBiiBAFMNOHHHHL                                                     ",
"                                                           BBziIIBAmmP1LHF.z                                                    ",
"                                                            AEzziIIBB1,.mmmz                                                    ",
"                                                               EBBBIIIIIIzIz                                                    ",
"                                                                 ABzIIIIIIIz                                                    ",
"                                                                   GzzzzzzI                                                     ",
"                                                                     IIIII                                                      ",
"                                                                                                                                ",
"                                                                                                                                ",
"                                                                                                                                ",
"                                                                                                                                ",
"                                                                                                                                ",
"                                                                                                                                ",
"                                                                                                                                ",
"                                                                                                                                ",
"                                                                                                                                ",
"                                                                                                                                ",
"                                                                                                                                ",
"                                                                                                                                ",
"                                                                                                                                ",
"                                                                                                                                ",
"                                                                                                                                ",
"                                                                                                                                ",
"                                                                                                                                ",
"                                                                                                                                ",
"                                                                                                                                ",
"                                                                                                                                ",
"                                                                                                                                ",
"                                                                                                                                ",
"                                                                                                                                ",
"                                                                                                                                ",
"                                                                                                                                ",
"                                                                                                                                ",
"                                                                                                                                ",
"                                                                                                                                ",
"                                                                                                                                ",
"                                                                                                                                ",
"                                                                                                                                ",
"                                                                                                                                ",
"                                                                                                                                ",
"                                                                                                                                ",
"                                                                                                                                ",
"                                                                                                                                ",
"                                                                                                                                ",
"                                                                                                                                ",
"                                                                                                                                ",
"                                                                                                                                ",
"                                                                                                                                "};
