/* XPM */
static char * skull5_xpm[] = {
"128 128 47 1",
" 	c None",
".	c #7F0000",
"+	c #B30000",
"@	c #9B0000",
"#	c #BF0000",
"$	c #E30000",
"%	c #D70000",
"&	c #FF0000",
"*	c #CB0000",
"=	c #A70000",
"-	c #EF0000",
";	c #CB5707",
">	c #B74700",
",	c #D75F0B",
"'	c #730000",
")	c #4F0000",
"!	c #670000",
"~	c #F37317",
"{	c #6F5743",
"]	c #937B63",
"^	c #533F1F",
"/	c #5F4323",
"(	c #574333",
"_	c #5F4B37",
":	c #9F876F",
"<	c #AF4300",
"[	c #6B4727",
"}	c #67533F",
"|	c #775F4B",
"1	c #8B735B",
"2	c #9F8363",
"3	c #A78F77",
"4	c #774F2B",
"5	c #3F2F17",
"6	c #836B57",
"7	c #7B634F",
"8	c #9B7F6B",
"9	c #4B371B",
"0	c #0B0B0B",
"a	c #2B230F",
"b	c #8B0000",
"c	c #070707",
"d	c #875733",
"e	c #9B3333",
"f	c #43331B",
"g	c #5B0000",
"h	c #533F2F",
"                                                                                                                                ",
"                                                                                                                                ",
"                                                                                                                                ",
"                                                                                                                                ",
"                                                                                                                                ",
"                                                                                                                                ",
"                                                                                                                                ",
"                                                                                                                                ",
"                                                                                                                                ",
"                                                                                                                                ",
"                                                                                                                                ",
"                                                                                                                                ",
"                                                                                                                                ",
"                                                                                                                                ",
"                                                                                                                                ",
"                                                                                                                                ",
"                                                                                                                                ",
"                                                                                                                                ",
"                                                                                                                                ",
"                                                                                                                                ",
"                                                                                                                                ",
"                                                                                                                                ",
"                                                                                                                                ",
"                                                                                                                                ",
"                                                                                                                                ",
"                                                                                                                                ",
"                                                                                                                                ",
"                                                                                                                                ",
"                                                                                                                                ",
"                                                                                                                                ",
"                                                                                                                                ",
"                                                                                                                                ",
"                                                                                                                                ",
"                                                                                                                                ",
"                                                                                                                                ",
"                                                                                                                                ",
"                                                                                                                                ",
"                                                                                                                                ",
"                                                                                                                                ",
"                                                                                                                                ",
"                                                                                                                                ",
"                                                          .                                                                     ",
"                                                            .                                                                   ",
"                                                                                                                                ",
"                                                          . .                                                                   ",
"                                                          .                                                                     ",
"                                                            +      .                                                            ",
"                                                           +.                                                                   ",
"                                                           +   .      .                                                         ",
"                                                          @.     + .                                                            ",
"                                                          +.  # +.++ +                                                          ",
"                                                          +@.   + $. $                                                          ",
"                                                          .+. @@.@# .$.                                                         ",
"                                                        %@.#$&#+.#+$+++.                                                        ",
"                                                       **@.@*%$+@.$*@+$.                                                        ",
"                                                      =*#@@==-;.+.$.=@@                                                         ",
"                                                      ++@.=>$%@.#@++.=.@.                                                       ",
"                                                       .+=*,**@.*@@..*=+.                                                       ",
"                                                     %@.#=%=*#.+#@').%=#.@%                                                     ",
"                                                    **@.;=@+*@=&$#!)$.=*>@*                                                     ",
"                                                    *#.+~#+.#@+*#$)+$!##%.#                                                     ",
"                                                     >=&;=+@@@.%@#={]!.%&=>                                                     ",
"                                          ^^       @@,#^#/##-+-&%#@{{$+#@),@        ^^                                          ",
"                                          ^(__     +.~&#%@.#@+:##-+-&%<@..~.+     __(^                                          ",
"                                           ^([}|123145#**@.*@@/+@@@.%@;=.4#63321|}[(^                                           ",
"                                            ^((|7183]4=*#.+#@@@+$#@+*#,)5{*]3817|((^                                            ",
"                                             ^__{{|7#/+*@##-+-&%#@..&;~!)/#{7|{{__^                                             ",
"                                               ^(_^/-90@@+@@@.%@#=..+<,>)0-//^_(^                                               ",
"                                                  aa-+@+@.%#@+*#$/*@.&><<!.!aa                                                  ",
"                                                   =^#-@-&+*@=&$#{5#%$-+-#+b..                                                  ",
"                                                   b+<@@+$=*#.+#@/5b..+@@&-+-                                                   ",
"                                                    ..+=..+@.!.+.!.@+..=.ca$                                                    ",
"                                                   .!+..+....b+@.b.......c!+.                                                   ",
"                                                    !b.+..>=+$+.!$+=..+++.b!.                                                   ",
"                                                    ..+$+.>>*$@..$*..[+$9.5.                                                    ",
"                                                     aa555<;..d+^...;.d[aca                                                     ",
"                                                     .c55.++$.c+..$;~.[55=                                                      ",
"                                                      .ab.bc+.ccc.ccbca5ab$                                                     ",
"                                                     %*e..bcccccccccccc..$                                                      ",
"                                                      $.ccfccccccccccfcc$#                                                      ",
"                                                      g+cfhcccccccccchfc.                                                       ",
"                                                       g5h7cccccccccc7h5                                                        ",
"                                                         }}cccccccccc}}                                                         ",
"                                                         }hcccccccccch}                                                         ",
"                                                         }(5cccccccc5(}                                                         ",
"                                                          }(55cccc55(}                                                          ",
"                                                            }(55555}                                                            ",
"                                                                                                                                ",
"                                                                                                                                ",
"                                                                                                                                ",
"                                                                                                                                ",
"                                                                                                                                ",
"                                                                                                                                ",
"                                                                                                                                ",
"                                                                                                                                ",
"                                                                                                                                ",
"                                                                                                                                ",
"                                                                                                                                ",
"                                                                                                                                ",
"                                                                                                                                ",
"                                                                                                                                ",
"                                                                                                                                ",
"                                                                                                                                ",
"                                                                                                                                ",
"                                                                                                                                ",
"                                                                                                                                ",
"                                                                                                                                ",
"                                                                                                                                ",
"                                                                                                                                ",
"                                                                                                                                ",
"                                                                                                                                ",
"                                                                                                                                ",
"                                                                                                                                ",
"                                                                                                                                ",
"                                                                                                                                ",
"                                                                                                                                ",
"                                                                                                                                ",
"                                                                                                                                ",
"                                                                                                                                ",
"                                                                                                                                ",
"                                                                                                                                ",
"                                                                                                                                ",
"                                                                                                                                ",
"                                                                                                                                ",
"                                                                                                                                ",
"                                                                                                                                ",
"                                                                                                                                ",
"                                                                                                                                "};
