/* XPM */
static char * skull1_xpm[] = {
"128 128 77 1",
" 	c None",
".	c #BF0000",
"+	c #B30000",
"@	c #E30000",
"#	c #CB0000",
"$	c #7F0000",
"%	c #9B0000",
"&	c #CB5707",
"*	c #8B0000",
"=	c #B74700",
"-	c #DF670F",
";	c #D75F0B",
">	c #D70000",
",	c #C34F00",
"'	c #FF0000",
")	c #F37317",
"!	c #A70000",
"~	c #EF0000",
"{	c #FFA35B",
"]	c #EBDB57",
"^	c #FF8F3B",
"/	c #FF7F1B",
"(	c #937B63",
"_	c #BFA78F",
":	c #533F1F",
"<	c #9F876F",
"[	c #AF977F",
"}	c #B79F87",
"|	c #6F5743",
"1	c #7B634F",
"2	c #8B735B",
"3	c #A78F77",
"4	c #574333",
"5	c #9B7F6B",
"6	c #836B57",
"7	c #775F4B",
"8	c #8F5F37",
"9	c #67533F",
"0	c #5F4B37",
"a	c #4B371B",
"b	c #932F00",
"c	c #9F3700",
"d	c #AF4300",
"e	c #872300",
"f	c #9F8363",
"g	c #533F2F",
"h	c #332B13",
"i	c #730000",
"j	c #3F2F17",
"k	c #4F3B23",
"l	c #9B5B13",
"m	c #1F170B",
"n	c #6B4727",
"o	c #670000",
"p	c #7F532F",
"q	c #5F4323",
"r	c #5B0000",
"s	c #875733",
"t	c #774F2B",
"u	c #2B230F",
"v	c #874307",
"w	c #732B00",
"x	c #170F07",
"y	c #5B472B",
"z	c #AB6F43",
"A	c #836B4B",
"B	c #670B0B",
"C	c #775F3F",
"D	c #8F7753",
"E	c #A36B3F",
"F	c #000000",
"G	c #430000",
"H	c #9B633B",
"I	c #F7AB7B",
"J	c #FFCFB3",
"K	c #CF8353",
"L	c #474747",
"                                                                                                                                ",
"                                                                                                                                ",
"                                                                                                                                ",
"                                                                                                                                ",
"                                                                                                                                ",
"                                                                                                                                ",
"                                                                                                                                ",
"                                                                                                                                ",
"                                                                                                                                ",
"                                                                                                                                ",
"                                                                                                                                ",
"                                                                                                                                ",
"                                                                                                                                ",
"                                                                                                                                ",
"                                                                                                                                ",
"                                                                                                                                ",
"                                                                                                                                ",
"                                                                                                                                ",
"                                                                                                                                ",
"                                                                                                                                ",
"                                                                                                                                ",
"                                                                                                                                ",
"                                                                                                                                ",
"                                                                                                                                ",
"                                                                                                                                ",
"                                                                                                                                ",
"                                                                                                                                ",
"                                                                                                                                ",
"                                                                                                                                ",
"                                                                                                                                ",
"                                                                                                                                ",
"                                                                                                                                ",
"                                                                                                                                ",
"                                                                                                                                ",
"                                                                                                                                ",
"                                                                                                                                ",
"                                                                                                                                ",
"                                                                                                                                ",
"                                                                                                                                ",
"                                                                                                                                ",
"                                                                .                                                               ",
"                                                                .                                                               ",
"                                                              ..+                                                               ",
"                                                             @.+                                                                ",
"                                                           ##...                                                                ",
"                                                           $%.+&                                                                ",
"                                                          +$*=+-$                                                               ",
"                                                          %%$&=-&+@                                                             ",
"                                                          $+$;=&-%.++                                                           ",
"                                                        >%,.,=.@@.'.++                                                          ",
"                                                       #>)$,-,@,@@>#%+@                                                         ",
"                                                      !>&%%!,~&);@~.!%.                                                         ",
"                                                      ++)$!=@#;{);#@,!& $                                                       ",
"                                                       $+!#;~;)]{);~,#)+$                                                       ",
"                                                     >%$.!>)~)^]]^)~=>!-%%>                                                     ",
"                                                    ##%$&!!^'){]]{)&;!!#+%#                                                     ",
"                                                   !#.$+).!^~-{{{{--/!..#$.#                                                    ",
"                                                   +#=!'&!(,;/____/){(&,>!=#                                                    ",
"                                                   %%;.:.<[}________}[,&,>;%%                                                   ",
"                                          |1      .+$)'.2<3[}______}[3<2;>)$+.      1|                                          ",
"                                          4|15(26771668.2<3[}______}[3<2;86617762(51|4                                          ",
"                                           4|11617|900|765<3[}}}}}}[3<567|009|71611|4                                           ",
"                                            409||7|900a|7625<3[[[[3<5267|a009|7||904                                            ",
"                                              000bcdcee009762(5ff5(267900eecdcb000                                              ",
"                                                 ghhhiig40|7116666117|04giihhhg                                                 ",
"                                                   !:*ijkkg4400000044gkkj!*:d$$                                                 ",
"                                                  $$l,+mnaaaa::::::aaaanm+=&.$                                                  ",
"                                                  $.d$ompkkqq::::::qqkqpmr!#!$                                                  ",
"                                                   $$ormsqqnqqqqqqqqnqnsmrr$$                                                   ",
"                                                    +rmhsspttttttttttpsshmr+                                                    ",
"                                                   $@o:suuuaqqssssqqauuus:o@$                                                   ",
"                                                   $o*htrvwxxxxuuxxxxwvrth*+$                                                   ",
"                                                    o.jyrwl].xuznux.]lwryjho                                                    ",
"                                                    $.hAi$.@Bn8uha8B@.$iAhh$                                                    ",
"                                                    $$uCDE88nphFhhap88EDCuh                                                     ",
"                                                    $iunajajhyuunuyhjajanuh                                                     ",
"                                                    $#$nahhujqn8Enqjuhhan!@                                                     ",
"                                                     +#GuuhhqqqtqtqqhhuG%&*                                                     ",
"                                                     i@%ixhjqEsEsEs8jhx%@.$                                                     ",
"                                                      r+,;Hn=#IFFI#=nH;,$$                                                      ",
"                                                       rona==FFFFFF=&anmm                                                       ",
"                                                        m:oiJFFFFFFJio:m                                                        ",
"                                                        mmtiKiIiiIiKitmm                                                        ",
"                                                         hL:i*+ii+*i:Lh                                                         ",
"                                                          hq::qqqq::qh                                                          ",
"                                                           hats88stah                                                           ",
"                                                            hhhhhhhh                                                            ",
"                                                                                                                                ",
"                                                                                                                                ",
"                                                                                                                                ",
"                                                                                                                                ",
"                                                                                                                                ",
"                                                                                                                                ",
"                                                                                                                                ",
"                                                                                                                                ",
"                                                                                                                                ",
"                                                                                                                                ",
"                                                                                                                                ",
"                                                                                                                                ",
"                                                                                                                                ",
"                                                                                                                                ",
"                                                                                                                                ",
"                                                                                                                                ",
"                                                                                                                                ",
"                                                                                                                                ",
"                                                                                                                                ",
"                                                                                                                                ",
"                                                                                                                                ",
"                                                                                                                                ",
"                                                                                                                                ",
"                                                                                                                                ",
"                                                                                                                                ",
"                                                                                                                                ",
"                                                                                                                                ",
"                                                                                                                                ",
"                                                                                                                                ",
"                                                                                                                                ",
"                                                                                                                                ",
"                                                                                                                                ",
"                                                                                                                                ",
"                                                                                                                                ",
"                                                                                                                                ",
"                                                                                                                                ",
"                                                                                                                                ",
"                                                                                                                                ",
"                                                                                                                                ",
"                                                                                                                                ",
"                                                                                                                                "};
