/* XPM */
static char * burning_barrel1_xpm[] = {
"64 64 23 1",
" 	c None",
".	c #732B00",
"+	c #874307",
"@	c #9B5B13",
"#	c #AF7B1F",
"$	c #C39B2F",
"%	c #D7BB43",
"&	c #EBDB57",
"*	c #FFFF73",
"=	c #232323",
"-	c #2F2F2F",
";	c #272727",
">	c #020202",
",	c #1F170B",
"'	c #3B3B3B",
")	c #434343",
"!	c #474747",
"~	c #575757",
"{	c #170F07",
"]	c #1B1B1B",
"^	c #373737",
"/	c #4F4F4F",
"(	c #4B4B4B",
"                                                                ",
"                                                                ",
"                                                                ",
"                                                                ",
"                                                                ",
"                                                                ",
"                                                                ",
"                                                                ",
"                                                                ",
"                                                                ",
"                                                                ",
"                                                                ",
"                                                                ",
"                                                                ",
"                                                                ",
"                                                                ",
"                                                                ",
"                                                                ",
"                                                                ",
"                                                                ",
"                                                                ",
"                                                                ",
"                                                                ",
"                                                                ",
"                                                                ",
"                                                                ",
"                                                                ",
"                                                                ",
"                                                                ",
"                                                                ",
"                                                                ",
"                                             ..                 ",
"                                       .    ..                  ",
"                                      +                         ",
"                                     ++                         ",
"                                    +.     +                    ",
"                                  +. .   @@                     ",
"                                 @# +@ +@#+                     ",
"                               @#$@@#+$#$@ .                    ",
"                             .@#$##$@#%$$+.                     ",
"                            @#$%$#%@$$#%##+                     ",
"                           .##@$$%$#$$$@@.                      ",
"                          .@##$%&&##$$#+.                       ",
"                          .##$*&%#$%%$+@+                       ",
"                         .#$$&**&#%&$#@+.                       ",
"                         @#$$**&*$**#@@                         ",
"                         =-;.++++.+..>,                         ",
"                         =-;')!~!;,{{,,                         ",
"                        ]=-)@##$#@##@+.]                        ",
"                        >];-^.+++-..]>,]                        ",
"                         >>>;=;],{>>{{,                         ",
"                         >]>;;-^^;]=,>,                         ",
"                         >]>;--^^;]=,>,                         ",
"                        ]]=--^)!)';]{{{]                        ",
"                        >];-)!/~~('-]]>]                        ",
"                         >>>{]],,{>>>>,                         ",
"                         >>>;--;-;]=,>,                         ",
"                         >>>;---^;]=,>,                         ",
"                        ]=>>;-^^^-;]{]]]                        ",
"                        ]==;^')(/!'-]],]                        ",
"                         {{{,]],,{>>>>,                         ",
"                         >>>=;;;;;;=,>,                         ",
"                         >]>=;;-^;;=,>>                         ",
"                          ,,]====]]>>>                          "};
