/* XPM */
static char * red_torch1_xpm[] = {
"64 64 67 1",
" 	c None",
".	c #7F0000",
"+	c #B30000",
"@	c #E30000",
"#	c #9B0000",
"$	c #A70000",
"%	c #5B0000",
"&	c #BF0000",
"*	c #8B0000",
"=	c #670000",
"-	c #EF0000",
";	c #FF0000",
">	c #AF4300",
",	c #C34F00",
"'	c #D75F0B",
")	c #872300",
"!	c #6B0F0F",
"~	c #FF7F1B",
"{	c #EBDB57",
"]	c #5F0707",
"^	c #430000",
"/	c #D70000",
"(	c #831F1F",
"_	c #272727",
":	c #F37317",
"<	c #730000",
"[	c #4F0000",
"}	c #1B1B1B",
"|	c #332B13",
"1	c #CB0000",
"2	c #372313",
"3	c #C39B2F",
"4	c #731313",
"5	c #000000",
"6	c #2F2F2F",
"7	c #B74700",
"8	c #EB6F0F",
"9	c #43331B",
"0	c #FFD7BB",
"a	c #670B0B",
"b	c #CB5707",
"c	c #D7BB43",
"d	c #373737",
"e	c #2B230F",
"f	c #333333",
"g	c #353535",
"h	c #040303",
"i	c #111111",
"j	c #2F1B0B",
"k	c #3F2B1B",
"l	c #533F1F",
"m	c #1F170B",
"n	c #675333",
"o	c #4F3B2B",
"p	c #5B472B",
"q	c #774F2B",
"r	c #473323",
"s	c #432F1B",
"t	c #8F5F37",
"u	c #5F4323",
"v	c #6B4727",
"w	c #DF9363",
"x	c #9B633B",
"y	c #170F07",
"z	c #CB7F4F",
"A	c #875733",
"B	c #A36B3F",
"                                                                ",
"                                                                ",
"                                                                ",
"                                                                ",
"                                                                ",
"                               .                                ",
"                                                                ",
"                               .                                ",
"                                                                ",
"                                                                ",
"                               .                                ",
"                                .                               ",
"                               .                                ",
"                                .                               ",
"                               ..+                              ",
"                              .++.                              ",
"                               .+@                              ",
"                               ##$                              ",
"                               ..+                              ",
"                              #%.+                              ",
"                             &.+*+                              ",
"                              +*&+=                             ",
"                             *--;&.                             ",
"                             .+;;+#=                            ",
"                              >,')!                             ",
"                             *,~{']]^                           ",
"                            /*'(_:)<[%                          ",
"                            }[|;;|)}<                           ",
"                           1}2_3{_2}.                           ",
"                           1456./65!*<                          ",
"                           &7859_508.                           ",
"                           +ab5||5cb*                           ",
"                            d}}ee}}d                            ",
"                               dd                               ",
"                               fg                               ",
"                               hi                               ",
"                               ii                               ",
"                               jh                               ",
"                               jj                               ",
"                               ki                               ",
"                               i2                               ",
"                               lj                               ",
"                               km                               ",
"                               lk                               ",
"                               nj                               ",
"                               hj                               ",
"                               oj                               ",
"                               ki                               ",
"                               kk                               ",
"                               pj                               ",
"                               ij                               ",
"                               qj                               ",
"                               2h                               ",
"                               rk                               ",
"                               km                               ",
"                               ij                               ",
"                              stts                              ",
"                             u2vusu                             ",
"                           utsuwwssx                            ",
"                          uysjvzzvmsmu                          ",
"                        utvmjsyssmmvsvtu                        ",
"                        xxsAqsmmmmsqqsxx                        ",
"                        yjBzBmuxxumBzBsy                        ",
"                        55qmqmyssymqmqy5                        "};
