/* XPM */
static char * red_torch2_xpm[] = {
"64 64 63 1",
" 	c None",
".	c #7F0000",
"+	c #8B0000",
"@	c #9B0000",
"#	c #B30000",
"$	c #A70000",
"%	c #E30000",
"&	c #EF0000",
"*	c #D70000",
"=	c #FF0000",
"-	c #BF0000",
";	c #FF1F1F",
">	c #D75F0B",
",	c #CB0000",
"'	c #4F0000",
")	c #F37317",
"!	c #CB5707",
"~	c #EBDB57",
"{	c #FF8F3B",
"]	c #332B13",
"^	c #831F1F",
"/	c #1B1B1B",
"(	c #771717",
"_	c #272727",
":	c #730000",
"<	c #13230B",
"[	c #C39B2F",
"}	c #5B0000",
"|	c #731313",
"1	c #000000",
"2	c #2F2F2F",
"3	c #B74700",
"4	c #FF7F1B",
"5	c #43331B",
"6	c #373737",
"7	c #EB6F0F",
"8	c #670B0B",
"9	c #D7BB43",
"0	c #2B230F",
"a	c #323232",
"b	c #363636",
"c	c #040303",
"d	c #111111",
"e	c #2F1B0B",
"f	c #3F2B1B",
"g	c #372313",
"h	c #533F1F",
"i	c #1F170B",
"j	c #675333",
"k	c #4F3B2B",
"l	c #5B472B",
"m	c #774F2B",
"n	c #473323",
"o	c #432F1B",
"p	c #8F5F37",
"q	c #5F4323",
"r	c #6B4727",
"s	c #DF9363",
"t	c #9B633B",
"u	c #170F07",
"v	c #CB7F4F",
"w	c #875733",
"x	c #A36B3F",
"                                                                ",
"                                                                ",
"                                                                ",
"                                                                ",
"                                                                ",
"                                                                ",
"                                                                ",
"                                                                ",
"                                 .                              ",
"                                                                ",
"                                .                               ",
"                                                                ",
"                                                                ",
"                                .                               ",
"                                +                               ",
"                                  .                             ",
"                                 +@                             ",
"                               @#$                              ",
"                              #$%.                              ",
"                             #@@##                              ",
"                             %&&$#                              ",
"                             @@&**.                             ",
"                             %=@-;#.                            ",
"                             $&>>,@'                            ",
"                            $%,))!*'                            ",
"                           $*&)~~{&@                            ",
"                           $$={]^{,@                            ",
"                           #/(]&_]!/-                           ",
"                           :/<][#]//}                           ",
"                           /|12+/21|#                           ",
"                           /34156147.                           ",
"                           /891]619!.                           ",
"                            6//02//6                            ",
"                               6/                               ",
"                               ab                               ",
"                               cd                               ",
"                               dd                               ",
"                               ec                               ",
"                               ee                               ",
"                               fd                               ",
"                               dg                               ",
"                               he                               ",
"                               fi                               ",
"                               hf                               ",
"                               je                               ",
"                               ce                               ",
"                               ke                               ",
"                               fd                               ",
"                               ff                               ",
"                               le                               ",
"                               de                               ",
"                               me                               ",
"                               gc                               ",
"                               nf                               ",
"                               fi                               ",
"                               de                               ",
"                              oppo                              ",
"                             qgrqoq                             ",
"                           qpoqssoot                            ",
"                          quoervvrioiq                          ",
"                        qprieouooiirorpq                        ",
"                        ttowmoiiiiommott                        ",
"                        uexvxiqttqixvxou                        ",
"                        11mimiuoouimimu1                        "};
