/* XPM */
static char * red_torch3_xpm[] = {
"64 64 59 1",
" 	c None",
".	c #7F0000",
"+	c #B30000",
"@	c #9B0000",
"#	c #CB0000",
"$	c #A70000",
"%	c #E30000",
"&	c #BF0000",
"*	c #4F0000",
"=	c #8B0000",
"-	c #430000",
";	c #C34F00",
">	c #EF0000",
",	c #CB5707",
"'	c #EBDB57",
")	c #D75F0B",
"!	c #B74700",
"~	c #272727",
"{	c #771717",
"]	c #1B1B1B",
"^	c #831F1F",
"/	c #332B13",
"(	c #731313",
"_	c #13230B",
":	c #D7BB43",
"<	c #6B0F0F",
"[	c #000000",
"}	c #2F2F2F",
"|	c #FF7F1B",
"1	c #43331B",
"2	c #373737",
"3	c #EB6F0F",
"4	c #730000",
"5	c #670B0B",
"6	c #2B230F",
"7	c #323232",
"8	c #363636",
"9	c #040303",
"0	c #111111",
"a	c #2F1B0B",
"b	c #3F2B1B",
"c	c #372313",
"d	c #533F1F",
"e	c #1F170B",
"f	c #675333",
"g	c #4F3B2B",
"h	c #5B472B",
"i	c #774F2B",
"j	c #473323",
"k	c #432F1B",
"l	c #8F5F37",
"m	c #5F4323",
"n	c #6B4727",
"o	c #DF9363",
"p	c #9B633B",
"q	c #170F07",
"r	c #CB7F4F",
"s	c #875733",
"t	c #A36B3F",
"                                                                ",
"                                                                ",
"                                                                ",
"                                                                ",
"                                                                ",
"                                                                ",
"                                                                ",
"                                                                ",
"                                .                               ",
"                                 .                              ",
"                                                                ",
"                                                                ",
"                                                                ",
"                                 .                              ",
"                                 +                              ",
"                                +                               ",
"                                .                               ",
"                                @.                              ",
"                                +.                              ",
"                              #@#@.                             ",
"                             +#$%&*                             ",
"                              &+&%                              ",
"                             +.+#@..                            ",
"                            .&=%#+*-                            ",
"                           &.&$;&@-                             ",
"                           &@>,')!&=                            ",
"                           @@,!~{!#=                            ",
"                           =]^/>~/(]                            ",
"                           +]_/:>/]]=                           ",
"                           ]<[}%]}[(.                           ",
"                           ]!|[12[|34                           ",
"                           ]5:[/2[:,                            ",
"                            2]]6}]]2                            ",
"                               2]                               ",
"                               78                               ",
"                               90                               ",
"                               00                               ",
"                               a9                               ",
"                               aa                               ",
"                               b0                               ",
"                               0c                               ",
"                               da                               ",
"                               be                               ",
"                               db                               ",
"                               fa                               ",
"                               9a                               ",
"                               ga                               ",
"                               b0                               ",
"                               bb                               ",
"                               ha                               ",
"                               0a                               ",
"                               ia                               ",
"                               c9                               ",
"                               jb                               ",
"                               be                               ",
"                               0a                               ",
"                              kllk                              ",
"                             mcnmkm                             ",
"                           mlkmookkp                            ",
"                          mqkanrrnekem                          ",
"                        mlneakqkkeenknlm                        ",
"                        ppksikeeeekiikpp                        ",
"                        qatrtemppmetrtkq                        ",
"                        [[ieieqkkqeieiq[                        "};
