/* XPM */
static char * red_torch4_xpm[] = {
"64 64 55 1",
" 	c None",
".	c #B30000",
"+	c #670000",
"@	c #7F0000",
"#	c #E30000",
"$	c #A70000",
"%	c #9B0000",
"&	c #8B0000",
"*	c #CB0000",
"=	c #730000",
"-	c #FF0000",
";	c #D70000",
">	c #AF4300",
",	c #D75F0B",
"'	c #EF0000",
")	c #F37317",
"!	c #1B1B1B",
"~	c #831F1F",
"{	c #2B230F",
"]	c #272727",
"^	c #7F1B1B",
"/	c #332B13",
"(	c #BF0000",
"_	c #771717",
":	c #13230B",
"<	c #C39B2F",
"[	c #EBDB57",
"}	c #B74700",
"|	c #000000",
"1	c #43331B",
"2	c #FF7F1B",
"3	c #373737",
"4	c #670B0B",
"5	c #040303",
"6	c #111111",
"7	c #2F1B0B",
"8	c #3F2B1B",
"9	c #372313",
"0	c #533F1F",
"a	c #1F170B",
"b	c #675333",
"c	c #4F3B2B",
"d	c #5B472B",
"e	c #774F2B",
"f	c #473323",
"g	c #432F1B",
"h	c #8F5F37",
"i	c #5F4323",
"j	c #6B4727",
"k	c #DF9363",
"l	c #9B633B",
"m	c #170F07",
"n	c #CB7F4F",
"o	c #875733",
"p	c #A36B3F",
"                                                                ",
"                                                                ",
"                                                                ",
"                                                                ",
"                                                                ",
"                                .                               ",
"                                                                ",
"                                                                ",
"                                +                               ",
"                                                                ",
"                                                                ",
"                                  .                             ",
"                                @                               ",
"                                                                ",
"                                @                               ",
"                                ..                              ",
"                                 #@                             ",
"                                @.#                             ",
"                                 @@                             ",
"                                 $.+                            ",
"                               @@%@#                            ",
"                               @@%&.                            ",
"                              %.#&&*@                           ",
"                              .%%&=#@                           ",
"                             %#.-#%*%                           ",
"                             ;#>,>%$                            ",
"                             '',),%.                            ",
"                           *!$~{]^.!%                           ",
"                           *!~/.(/_!+                           ",
"                           *!:/<[/:!@&                          ",
"                           !}|!1/!|}%$                          ",
"                           !}2|1]|}}%                           ",
"                           3!4!/]!4!                            ",
"                             3!33!3                             ",
"                               33                               ",
"                               56                               ",
"                               66                               ",
"                               75                               ",
"                               77                               ",
"                               86                               ",
"                               69                               ",
"                               07                               ",
"                               8a                               ",
"                               08                               ",
"                               b7                               ",
"                               57                               ",
"                               c7                               ",
"                               86                               ",
"                               88                               ",
"                               d7                               ",
"                               67                               ",
"                               e7                               ",
"                               95                               ",
"                               f8                               ",
"                               8a                               ",
"                               67                               ",
"                              ghhg                              ",
"                             i9jigi                             ",
"                           ihgikkggl                            ",
"                          img7jnnjagai                          ",
"                        ihja7gmggaajgjhi                        ",
"                        llgoegaaaageegll                        ",
"                        m7pnpailliapnpgm                        ",
"                        ||eaeamggmaeaem|                        "};
