/* XPM */
static char * exploding_barrel2_xpm[] = {
"64 64 53 1",
" 	c None",
".	c #B7B7B7",
"+	c #6F6F6F",
"@	c #474747",
"#	c #373F27",
"$	c #3B3B3B",
"%	c #5F4B37",
"&	c #5B6347",
"*	c #6F7357",
"=	c #676B4F",
"-	c #5B5B5B",
";	c #636363",
">	c #777777",
",	c #838383",
"'	c #4B4B4B",
")	c #ABABAB",
"!	c #7B634F",
"~	c #775F4B",
"{	c #53573B",
"]	c #575757",
"^	c #1B1B1B",
"/	c #8B735B",
"(	c #836B57",
"_	c #67533F",
":	c #3F472B",
"<	c #373737",
"[	c #0C0C0C",
"}	c #7B7F63",
"|	c #474F33",
"1	c #434343",
"2	c #2F2F2F",
"3	c #010101",
"4	c #BFBFBF",
"5	c #A78F77",
"6	c #1F4317",
"7	c #13230B",
"8	c #AF977F",
"9	c #B79F87",
"0	c #17330F",
"a	c #9F9F9F",
"b	c #939393",
"c	c #9B7F6B",
"d	c #272727",
"e	c #000000",
"f	c #232323",
"g	c #8B8B8B",
"h	c #0B1707",
"i	c #6F5743",
"j	c #A7A7A7",
"k	c #937B63",
"l	c #BFA78F",
"m	c #9F876F",
"n	c #979797",
"                                                                ",
"                                                                ",
"                                                                ",
"                                                                ",
"                                                                ",
"                                                                ",
"                                                                ",
"                                                                ",
"                                                                ",
"                                                                ",
"                                                                ",
"                                                                ",
"                                                                ",
"                                                                ",
"                                                                ",
"                                                                ",
"                                                                ",
"                                                                ",
"                                                                ",
"                                                                ",
"                                                                ",
"                                                                ",
"                                                                ",
"                                                                ",
"                                                                ",
"                                                                ",
"                                                                ",
"                                                                ",
"                                                                ",
"                                                                ",
"                                                                ",
"                                                                ",
"                                                                ",
"                      .+@#$%%&&&&***=-;;>,'                     ",
"                     .),>!!!~!!=---&{]]]'@^^                    ",
"                     .,>>/((___{]]]::@$<^^[^                    ",
"                     .}/}/=={||:|11222[^3[^<                    ",
"                     45555}**&&{{|:62^37^^^<                    ",
"                     .88985}}/**=&&||<07[[^2                    ",
"                     a,ba,c///*=&&&{{:d7e[^f                    ",
"                     g**(&&{{{:#<2#2df7he^f<                    ",
"                     a**/i{|:#ff^7[[3e[33^f$                    ",
"                     j}}8k=&{|<<d6f7[e333[^<                    ",
"                     j}}lm**=&{{|:#0f[eee[^<                    ",
"                     j}}lm}}*=&{|:#0f[eee[^$                    ",
"                     )}}5m}}*=&{|:#0f[eee3^<                    ",
"                     .5555}}*!=&{|:62^33eh3<                    ",
"                     .88855}}/**=&&||<0h[7e2                    ",
"                     a,nncc///*=&&&{{:d7e33f                    ",
"                     g*/(&&{{|:#<2#2df7he[[2                    ",
"                     a*(/~{|1$<<dff7[e3ee^f2                    ",
"                     j}k8k==&{''::<7^eeee[^f                    ",
"                     j}klm**=&{{|:#0f[eee[^<                    ",
"                     j}klm}**=&{|:#0f[eee[^<                    ",
"                     .5m85}}*!=&{|:62^33e[^<                    ",
"                     .5595}}}/**=&&||<0h[[72                    ",
"                     ac5nc////*=&&&{{:d7e[^f                    ",
"                     g**(&&{{|:#<2#2df7he[f2                    ",
"                     a**/~{|:22f^7[[3e[3e[f<                    ",
"                     j}}5k=&{$$<d6f7[e33e[^2                    ",
"                     jm}55}*!&&{|::6f^eee[[2                    ",
"                     bm}55}}/==&{||#2feee[3<                    ",
"                     *}//}/!!]{||::#df333^ef                    ",
"                      {{{{{2fff[[[[eeeeeef3                     "};
