/* XPM */
static char * exploding_barrel4_xpm[] = {
"64 64 114 2",
"  	c None",
". 	c #470000",
"+ 	c #670000",
"@ 	c #7F0000",
"# 	c #430000",
"$ 	c #B34F4F",
"% 	c #730000",
"& 	c #A70000",
"* 	c #B30000",
"= 	c #9F876F",
"- 	c #9B7F6B",
"; 	c #574333",
"> 	c #2F2F2F",
", 	c #533F2F",
"' 	c #B7B7B7",
") 	c #B3B3B3",
"! 	c #979797",
"~ 	c #000000",
"{ 	c #4F0000",
"] 	c #9B0000",
"^ 	c #BF0000",
"/ 	c #CB0000",
"( 	c #0B0B0B",
"_ 	c #1B1B1B",
": 	c #5B0000",
"< 	c #4F4F4F",
"[ 	c #0B1707",
"} 	c #EB6F0F",
"| 	c #E30000",
"1 	c #EF0000",
"2 	c #D70000",
"3 	c #FFA35B",
"4 	c #DF670F",
"5 	c #A78F77",
"6 	c #8B0000",
"7 	c #7B7F63",
"8 	c #836B57",
"9 	c #AF977F",
"0 	c #67533F",
"a 	c #BFBFBF",
"b 	c #8B735B",
"c 	c #BFA78F",
"d 	c #4B371B",
"e 	c #8F2B2B",
"f 	c #7F532F",
"g 	c #A7A7A7",
"h 	c #7F1B1B",
"i 	c #C34F00",
"j 	c #D75F0B",
"k 	c #FF7B7B",
"l 	c #FF9B9B",
"m 	c #5F4B37",
"n 	c #972F2F",
"o 	c #3F2F17",
"p 	c #838383",
"q 	c #6F7357",
"r 	c #533F1F",
"s 	c #831F1F",
"t 	c #FF8F3B",
"u 	c #6B4727",
"v 	c #4F3B23",
"w 	c #332B13",
"x 	c #2B230F",
"y 	c #939393",
"z 	c #373F27",
"A 	c #232323",
"B 	c #17330F",
"C 	c #676B4F",
"D 	c #8F5F37",
"E 	c #272727",
"F 	c #13230B",
"G 	c #474F33",
"H 	c #FF0000",
"I 	c #FF3F3F",
"J 	c #FF5F5F",
"K 	c #FF1F1F",
"L 	c #530707",
"M 	c #FF7F1B",
"N 	c #CB5707",
"O 	c #F37317",
"P 	c #DF8787",
"Q 	c #FFB37B",
"R 	c #FFEBDB",
"S 	c #FFBBBB",
"T 	c #FFDBC7",
"U 	c #FFD7BB",
"V 	c #FFC79B",
"W 	c #AF4300",
"X 	c #FFFF8F",
"Y 	c #FFFFFF",
"Z 	c #B74700",
"` 	c #FFFF47",
" .	c #FFFFB3",
"..	c #FFB7B7",
"+.	c #874307",
"@.	c #170F07",
"#.	c #FFBB93",
"$.	c #A36B3F",
"%.	c #732B00",
"&.	c #937B63",
"*.	c #373737",
"=.	c #775F4B",
"-.	c #8B2323",
";.	c #53573B",
">.	c #771717",
",.	c #ABABAB",
"'.	c #670B0B",
").	c #6F5743",
"!.	c #43331B",
"~.	c #5B6347",
"{.	c #FFCFB3",
"].	c #3F472B",
"^.	c #8F7753",
"/.	c #9B3333",
"                                                                                                                                ",
"                                                                                                                                ",
"                                                                                                                                ",
"                                                                                                                                ",
"                                                                                                                                ",
"                                                                                                                                ",
"                                                                                                                                ",
"                                                                                                                                ",
"                                                                                                                                ",
"                                                                                                                                ",
"                                                                                                                                ",
"                                                                                                                                ",
"                                                                                                                                ",
"                                                                                                                                ",
"                                                            . + @ @ @ + #                                                       ",
"                                                  $   # % & * * * = - - * * ; > ,                                               ",
"                              ' ) ! ~ ~ # # ~ ~ { + ] ] ^ & & / & = = = ^ * ~ ( _ :                                             ",
"                              ' ! < [ # ~ ~ { % } | 1 2 * ^ 3 4 ^ = 5 5 = = _ _ _ @ 6 :                                         ",
"                            ' 7 7 - 8 + : 6 * } 1 1 4 * * & / & 6 = 9 9 5 = 4 ^ 6 + ] { # #   # 0 ;                             ",
"                            a 7 7 5 b * % * & 2 | / ] & * ] & * ^ = c c 9 5 * 0 d + & @ ] @ e f _ ~ (                           ",
"                          g ! - 5 b h : % : 6 2 ^ i } } i * | 4 j k k l c 9 ] - m 4 4 * * n d o _ ( _ (                         ",
"                        p q = - 5 r s + + . @ | ^ j t t j * j } t t 4 k c c 2 ^ & ] 3 4 u v w x _ ( (                           ",
"                      y y q b 5 b : : + 6 { % & & i 4 i ^ ^ j 4 3 t 4 i l l 1 } ^ @ & h v z A ( ~ B ( #   #                     ",
"                      g 7 C 5 b { @ @ : 6 + + ^ & ^ ^ 2 2 2 / 4 j 4 0 d | 1 / | | ^ 6 D r E A z z A F % #                       ",
"                    = 7 - 5 b + % ] % & ] { @ & @ & 0 2 / 2 4 } 1 1 - m 1 | | 1 1 | ^ ^ D r z G z ( ~ 6 # #                     ",
"                      q b 6 6 @ ] ( @ i @ ] & ] @ / ^ 2 ] H I 4 J J 4 J J J K J 0 1 K / & D r A ( ( L ] : #                     ",
"                      [ # 6 % 6 ] ( E ^ ] / ] 6 * 2 0 H H 4 4 4 M M M M M 4 4 } J I I K 2 4 D r ( } & * &   #                   ",
"                      # # @ % i N / 2 / 2 | ^ * 2 4 } O M M M t 4 4 t M P t M M J J I I K 4 4 & / | } & 2 %                     ",
"                        6 ] 6 i N / 1 j H | * K 4 4 M M t 3 3 J 3 3 3 Q 3 k k t M O } } } H ^ 4 @ 6 } } # :                     ",
"                        ] ] & } / / j t j / * 4 K O M 3 3 k R S T Q Q U Q Q Q 3 t M O } 4 H 0 { # { ^ ^ # :                     ",
"                        @ * ] N * ^ O Q 0 d 1 } M 4 M t V S Q Q Q U Q Q V U V g t M t O } N ] W : # & * @ & #                   ",
"                      # @ ] ] * * ] O Q - m 1 } 4 M M V 3 Q Q U U X Y Q Q R U Q Q 3 0 t } 4 Z * Z % % 6 : * : #                 ",
"                      # + 6 6 ] ^ 6 } t j & * O M 3 V 3 3 U Q R X X R ` R U V U U Q 3 t O } N & W Z : @ # ^ :   #               ",
"                          : @ % ] & 4 j | | } O 3 Q 3 3 U U U U V  .` ` ` U R R R V 3 t O } N Z W Z 6 6 # & : # +               ",
"                          # ] + % ] i 1 | i O O 3 3 V U U 0 R U ` Y  .U U U R R U Q 3 3 0 } N N 6 N Z + # + { # +               ",
"                          : & + + @ ] ^ i * O } t Q 3 R U X ` V  . .R X Y V V V Q Q 3 3 O } N Z * N N : # + #   #               ",
"                        :   ] @ @ + 6 * i 2 O 4 O Q 3 3 U ` `  .U  .X  .` U U R R V 3 t O } Z Z * O N + @ % : { #               ",
"                      : 6 % + ] 6 + 0 ] N j j N 4 0 3 V t U U ` X  .X  .R ` X U U U 3 t O 4 Z 0 / t O % 6 Z 6 @                 ",
"                    : :     # { @ % % ] 1 N N j 4 t Q V 3 U R U  . .X ` R ` V V V U 3 t O 4 i / N t 4 % + O Z 6   ,             ",
"                    : :     + + + & @ @ + 0 i 4 O t Q 3 3 U U U U U X ` U U X U V Q t g 4 N 0 ^ j O N % : 4 Z 6   A _           ",
"          -         : # % ] % % + { : 6 N ^ / i t 4 t 3 ..V U ` ` U U ` X X R U U 3 t O N Z / N t 4 ^ : +.N ] % : @._           ",
"          8         # : ^ * : + & ] Z + @ N ^ K N N O t 3 3 Q V U X U U R R R U Q t M 4 Z & W t O ^ ] . Z 6 6 + :               ",
"        5 v       # % ] ] % : : & * N Z H 0 ^ 6 ^ N 4 O M t 3 Q #.V U U U V g 3 0 O O $.( 6 + Z * % # %., + { : :               ",
"      5 &.; w     # 6 ^ ] % + 6 & ] ^ N Z ] % @ ^ ^ 0 d 4 t t t 3 Q Q V Q 3 3 t M O } $.( ( @ * + # { 6 A _   :                 ",
"      9 5 0 w (   : 6 6 ] * * / / / / ^ N Z ] 0 ] ^ - m j 4 O M t t t t t M O } 4 j N $.~ ( E 6 % % + { @._ *.:                 ",
"      g c c v ( /   : @ * | | | | / / 7 @ ] ] 6 { : @ % * i j } 0 O O O 0 4 4 j N i Z ^ * ] % { : 6 & % # : #   :               ",
"      p q = =.m r -.* { | | H H H / / g 8 0 d @ 6 Z N ] : { ^ 2 | 1 2 H H H N N 2 ^ & ] @ + % # # : ] i % : % #                 ",
"        7 C ;.o o >.* / 1 1 O O } H N p ,.- m ] & Z } j Z @ @ ] * H 2 H 2 ^ | ^ @ { % % + : & : : + @ * Z # @ #                 ",
"          q ;.z o '.| K O t 3 3 O O N y q 8 ).6 @ ] N t t j + { @ ] & ^ & * ] @ + + 6 6 % $.( ( 6 + @ 6 & # + #                 ",
"              # !.& 2 O t 3 #.V t O g 7 ~.;.% & / * / } 4 4 W % 6 @ 0 @ { % @ ] & : * N $.> _ ( ( @ . 6 6 { : # :               ",
"              : * / 4 t 3 Q {.V Q Q 4 N &.- % / * & & 0 Z W @ @ % @ + + + @ ] @ @ * / 4 D A F ~ ( E ] { : % % # :               ",
"              # * 1 O t 3 {.Q Q #.t O N N @ * 2 * 6 2 % & * % # # # # N @ & & 0 0 ] N } D ( ~ ~ ( A ^ 6 * @ 6 #                 ",
"                * 1 4 3 Q Q R Q #.3 O j N ] * @ + N O ] @ + @ @ @ N O O N @ ] % ] 1 3 j D ( ~ ~ ( 6 & @ Z * 6 #                 ",
"              : # * j 3 Q 3 V Q 3 t O j i 2 ] 2 + ( @ : % % @ & * 6 N N 6 6 ( @ } 3 O i D ~ ~ 6 % 6 & % i W 6 # :               ",
"              : #   N O t t 3 3 t M 4 i ^ * ^ ] % ( E + . + @ 6 6 L * / * & ( E t O 4 Z 6 ~ + { + % & Z i * +                   ",
"              +   { 6 O } t O t O 4 N * & * + { # + @ ] 6 + # # # # # @ ] * & Z i W -.6 + s W * : @ ] i * : . +                 ",
"                % { : W / | 4 4 j ( @ ] : * + # # : * + % : # . + : # : : & -.h { 6 % % 6 i i ] @ % W @ % # :                   ",
"                  % # : 6 * ^ Z Z ( E ] ] % : @ @ & 2 & + # # # + + { # . + + h ] * / * i j } @ # # { # # :                     ",
"                      # : 6 6 6 6 6 : . + % % 6 >.| I ].].=.].].].z > > A A A + 6 ] z z Z i W # # #                             ",
"                        # : + @ + # : . + 6 * * '.N 4 R Q j ;.> ( ( ( ~ ~ ~ ~ ~ z z z h +.6 + # #                               ",
"                          : # # # # # # # : : : N 4 Q U 3 j q C ~.~.;.G ].z B A + z . . . . # +                                 ",
"                                + :   : : + # W W W } } } 7 q C ~.~.;.G ].z B ~ ~ . >.'.: # # #                                 ",
"                                      #     q ;.^./.= 5 5 = = = 7 q q q ~.~.~.~ ~ ~ ~ '.:                                       ",
"                                                ;.;.;.;.;.;.> A A A ( ( ( ( ~ ~                                                 "};
