/* XPM */
static char * exploding_barrel3_xpm[] = {
"64 64 111 2",
"  	c None",
". 	c #A78F77",
"+ 	c #7B7F63",
"@ 	c #6F7357",
"# 	c #676B4F",
"$ 	c #5B6347",
"% 	c #777777",
"& 	c #B7B7B7",
"* 	c #A33B3B",
"= 	c #9B3333",
"- 	c #972F2F",
"; 	c #BF0000",
"> 	c #B30000",
", 	c #979797",
"' 	c #7F7F7F",
") 	c #373F27",
"! 	c #13230B",
"~ 	c #8F2B2B",
"{ 	c #FF3F3F",
"] 	c #FF5F5F",
"^ 	c #FF7B7B",
"/ 	c #AF4747",
"( 	c #A73F3F",
"_ 	c #8B2323",
": 	c #EF0000",
"< 	c #D70000",
"[ 	c #831F1F",
"} 	c #7F532F",
"| 	c #4F4F4F",
"1 	c #0B1707",
"2 	c #7F0000",
"3 	c #FF0000",
"4 	c #9B633B",
"5 	c #7B634F",
"6 	c #6F5743",
"7 	c #774F2B",
"8 	c #A70000",
"9 	c #9B0000",
"0 	c #5F4323",
"a 	c #6B4727",
"b 	c #4F3B23",
"c 	c #4B371B",
"d 	c #3F2F17",
"e 	c #67533F",
"f 	c #574333",
"g 	c #2F2F2F",
"h 	c #533F2F",
"i 	c #B3B3B3",
"j 	c #C7C7C7",
"k 	c #836B57",
"l 	c #430000",
"m 	c #CB0000",
"n 	c #53573B",
"o 	c #7F1B1B",
"p 	c #6B0F0F",
"q 	c #43331B",
"r 	c #332B13",
"s 	c #1B1B1B",
"t 	c #000000",
"u 	c #0C0C0C",
"v 	c #8B735B",
"w 	c #8B0000",
"x 	c #272727",
"y 	c #232323",
"z 	c #3F472B",
"A 	c #9F876F",
"B 	c #8F7753",
"C 	c #AF977F",
"D 	c #771717",
"E 	c #E30000",
"F 	c #474F33",
"G 	c #17330F",
"H 	c #BFBFBF",
"I 	c #B79F87",
"J 	c #9F8363",
"K 	c #A7A7A7",
"L 	c #937B63",
"M 	c #530707",
"N 	c #730000",
"O 	c #1F170B",
"P 	c #838383",
"Q 	c #5B0000",
"R 	c #5F4B37",
"S 	c #170F07",
"T 	c #FF7F1B",
"U 	c #939393",
"V 	c #5F0707",
"W 	c #373737",
"X 	c #D75F0B",
"Y 	c #1F4317",
"Z 	c #FFB37B",
"` 	c #2B230F",
" .	c #8F5F37",
"..	c #CB5707",
"+.	c #5B0707",
"@.	c #3B3B3B",
"#.	c #AF4300",
"$.	c #670B0B",
"%.	c #6F6F6F",
"&.	c #875733",
"*.	c #ABABAB",
"=.	c #9B7F6B",
"-.	c #731313",
";.	c #434343",
">.	c #010101",
",.	c #775F4B",
"'.	c #FF1F1F",
").	c #675333",
"!.	c #470000",
"~.	c #6B6B6B",
"{.	c #4F0000",
"                                                                                                                                ",
"                                                                                                                                ",
"                                                                                                                                ",
"                                                                                                                                ",
"                                                                                                                                ",
"                                                                                                                                ",
"                                                                                                                                ",
"                                                                                                                                ",
"                                                                                                                                ",
"                                                                                                                                ",
"                                                                                                                                ",
"                                                                                                                                ",
"                                                                                                                                ",
"                                                                                                                                ",
"                                                                                                                                ",
"                                                                                                                                ",
"                                                                                                                                ",
"                                                                                                                                ",
"                                                                                                                                ",
"                                                                                                                                ",
"                                                                                                                                ",
"                                                                                                                                ",
"                                                                                                                                ",
"                                                                                                                                ",
"                                                                                                                                ",
"                                                                                                                                ",
"                                                                                                                                ",
"                                                                                                                                ",
"                                              . + . + + + + @ # # $ $ % % & &                                                   ",
"                                    @ @ . + + @ * * = = - ; ; ; ; ; ; ; ; ; > & & , ' @                                         ",
"                                    $ $ ) ! ~ = { ] ^ / ( = = = _ : : < ; ; [ > > - ~ }                                         ",
"                                @ , | 1 2 > { 3 ] ^ 4 5 6 7 } 7 } _ 8 : < ; 9 0 a b b c d e f g h                               ",
"                                i j ' k l > m 3 { ^ n n ) ) f ) f 0 [ o : > p q b ) r ) s s t u h                               ",
"                                & , + v } l ; m 3 ] + @ $ n n n n f 0 ~ o w w q ) x y u t u s s s                               ",
"                              & + + . 5 [ l m { ] + + @ $ # $ # $ e a o o m l b b z ) ) y u u u s                               ",
"                              & + . A B l 9 { { ^ C A A A A A A v $ e D D E u l h f F ) y G u u s                               ",
"                              H I C . * l m { ] ^ J + v @ @ @ @ # $ f p p w 8 l D d y u u ! t u s                               ",
"                              K , A L l m 3 ] ^ ] + @ @ $ n n $ n n F q q M N E l 2 O u u u t t y s                             ",
"                            P @ v 5 l l 3 ] 8 z z z z F z g F z g g y g y O l Q l l l O u u u u s                               ",
"                            P @ # R l m 3 ^ 8 k $ F ) ) ! u ) ! u t s t s S S S M T l M O u u g                                 ",
"                            U # $ l l m 3 { ] 8 @ @ $ o n n o n n n z n z ) G l ) V T l y u s W                                 ",
"                          K # # l l 3 3 ] 8 A + + X < _ a a _ a a h z h z ) Y l g ) D Z M ` s g                                 ",
"                          # # l l m 3 ] _  .k 4 - Z X < _ _ < _ _ a z a z d r y g g o T ..+.y @.                                ",
"                        # @ 1 l l _ ] { 1 6  .4 _ Z m n m n n m n F z F z l ` r b q 9 X #.$.r g h                               ",
"                          # %.q D l ~ { { E + + @ _ &.6 &.6 6 &.6 $ n $ n b c b 0 o #.w u t l ) y s                             ",
"                            # %.e k e R _ 8 E E E 0 5 k 5 k k 5 k @ # @ # $ # $ e 2 _ y u t ; ) z z W                           ",
"                              n %.*.=.6 8 E E E ; R $ $ $ $ $ $ $ n n n n n f f h 2 4 $ n z M l z s W                           ",
"                                $ @ k R _ 8 8 8 8 0 $ $ $ $ $ $ $ $ n n n n n f f ~ 2 n z G G $.O t y v                         ",
"                                  n k 6 0 8 8 1 1 R $ $ $ $ $ $ $ n n n n n f f h ~ 2 n z G w N O s W                           ",
"                                  % L $ n z 1 1 z z ) ) g g ) g g g y g y y l y y d 2 -.u w l t y s ;.v                         ",
"                                P % L L L =.# # z g y g u u u u u u ` t t s u s u S S : 2 M r s u s                             ",
"                              , % % L L L A A =.@ @ # $ f n n f n n ~ n n ) s s u >.S 2 < V r g W ,.                            ",
"                            , P v A A A L L A =.=.@ @ # $ n $ n / { ( 0 0 r y u O l $.< V r g ;.                                ",
"                          , P v L A A A A A A A A + @ @ $ / $ / { { { - - r y M Q ; w +.O s x W                                 ",
"                          K P =.L L L A A A A A A A + + @ # @ # &.'.( 0 0 d d Q $.$.M S t t u s W                               ",
"                            K P ).b !.!.b ).A A A A + + @ @ $ @ $ n / z ) ) D 9 D r y s u u u s W                               ",
"                            ~.K P ).).$.$.!.!.).C C A A L A A A A A 5 + @ # ; 9 [ b ) g s u u s ;.v                             ",
"                              ~.~.K P ,.R $._ !.!.).+ + 5 @ @ @ $ $ n n $ n ; o q g y ! t u x W                                 ",
"                              U U ~.# n d d D E _ !.!.).z z z z ) g g y y y w $.O s u t t u y g                                 ",
"                                K U + @ n ) d $.E '.{ !.!.n g u u u u t t t t O S t u >.>.u s g                                 ",
"                                + P U + v R q {.8 E { { ^ !.# $ $ n F z ) G y >.>.>.>.>.u s g                                   ",
"                                  L L 6 L L 6 R a o '.'.{ !.@ # $ $ n F z ) G y >.>.u u ) W                                     ",
"                                      L v B = L v B = = = . A A + @ @ @ $ $ $ d r u t y y                                       ",
"                                            n n n n n n n n n n g y y u u u u t t t y                                           "};
