/* XPM */
static char * exploding_barrel1_xpm[] = {
"64 64 61 1",
" 	c None",
".	c #676B4F",
"+	c #937B63",
"@	c #5B6347",
"#	c #6F7357",
"$	c #8B8B8B",
"%	c #9F9F9F",
"&	c #A7A7A7",
"*	c #ABABAB",
"=	c #838383",
"-	c #7F7F7F",
";	c #373F27",
">	c #13230B",
",	c #1F4317",
"'	c #474F33",
")	c #2F6323",
"!	c #3F832F",
"~	c #4B9F3F",
"{	c #5BBF4F",
"]	c #37732B",
"^	c #636363",
"/	c #777777",
"(	c #B7B7B7",
"_	c #BFBFBF",
":	c #6F6F6F",
"<	c #373737",
"[	c #27531B",
"}	c #53AF47",
"|	c #5FCF57",
"1	c #5B5B5B",
"2	c #3B3B3B",
"3	c #1B1B1B",
"4	c #979797",
"5	c #AF977F",
"6	c #6B6B6B",
"7	c #53573B",
"8	c #575757",
"9	c #474747",
"0	c #000000",
"a	c #7B7F63",
"b	c #3F472B",
"c	c #0C0C0C",
"d	c #9F876F",
"e	c #9B7F6B",
"f	c #A78F77",
"g	c #17330F",
"h	c #232323",
"i	c #2F2F2F",
"j	c #B79F87",
"k	c #272727",
"l	c #939393",
"m	c #B3B3B3",
"n	c #010101",
"o	c #8B735B",
"p	c #0B1707",
"q	c #775F4B",
"r	c #5F4B37",
"s	c #BFA78F",
"t	c #7B634F",
"u	c #9F8363",
"v	c #434343",
"                                                                ",
"                                                                ",
"                                                                ",
"                                                                ",
"                                                                ",
"                                                                ",
"                                                                ",
"                                                                ",
"                                                                ",
"                                                                ",
"                                                                ",
"                                                                ",
"                                                                ",
"                                                                ",
"                                                                ",
"                                                                ",
"                                                                ",
"                                                                ",
"                                                                ",
"                                                                ",
"                                                                ",
"                                                                ",
"                                                                ",
"                                                                ",
"                                                                ",
"                                                                ",
"                                                                ",
"                                                                ",
"                                                                ",
"                                                                ",
"                                                                ",
"                                                                ",
"                       .+@@..@@@..#$%&*$=-                      ",
"                     -&@;>,''')!~{~!].^/$*/'                    ",
"                     (_:<[[)]!}}{|{!][[1/-23                    ",
"                     ($4&5+++++.6^^778^19303                    ",
"                     (a...@@bbbb9992<<330c3<                    ",
"                     _defda#.77''b;ghc0c333i                    ",
"                     (j5j5daa##.@77;2k>>cc3h                    ",
"                     %l%m4f+++aa##.@@';>nc3<                    ",
"                     $#ao..@@@7''b'b;i>p03h2                    ",
"                     %#.qr'bb;kh3cccnncnn3i<                    ",
"                     &aafo.7';kk3>cpn0cccc3<                    ",
"                     &aasd##.@77'b;ghc000c32                    ",
"                     &aasdaa#.@7'b;ghc000c3<                    ",
"                     *aa5daa#.@7'b;ghc000n3<                    ",
"                     (defdaa#.@7'b;ghc000nci                    ",
"                     (j55fdaao#.@77;2k>pc>0h                    ",
"                     %l&&5f+++aa##.@@';>nnni                    ",
"                     $#ao..@@@7''b'b;i>p0nni                    ",
"                     %#tq7b;<ikh3cccnncnn3hh                    ",
"                     &a+fo7'2ikk3>cpn0cccc3<                    ",
"                     &a+sd##.@77'b;ghc000c3<                    ",
"                     &a+sda##.@7'b;ghc000c3<                    ",
"                     (eu5daa#.@7'b;ghc000c3i                    ",
"                     (5fjfaaao#.@77;2k>pcc>h                    ",
"                     %f5&fe+++aa##.@@';>nc3i                    ",
"                     $#ao..@@@7''b'b;i>p0ch<                    ",
"                     %#.qr'b;ikh3cccnncn0chi                    ",
"                     &aaf+@7viik3>cpn0cc0c3i                    ",
"                     &ea5da#.@@7'b;ghc000c3<                    ",
"                     ldaffaao..@7'';ih000cni                    ",
"                     #aooaott87''bb;khnnn30h                    ",
"                       7777ihhhcccc000000h                      "};
