/* XPM */
static char *gravity_18[] = {
/* columns rows colors chars-per-pixel */
"128 128 16 1 ",
"  c #1A1625",
". c #211930",
"X c #231A35",
"o c #30204B",
"O c #362255",
"+ c #372356",
"@ c #3A245C",
"# c #692372",
"$ c #7D267F",
"% c #8B2E92",
"& c #96339F",
"* c #A63CB3",
"= c #B248AF",
"- c #BD53AD",
"; c #F6D4E4",
": c None",
/* pixels */
"::::::::::::::::::::::::::::::::::::::::::::::::::::::::::::::::::::::::::::::::::::::::::::::::::::::::::::::::::::::::::::::::",
"::::::::::::::::::::::::::::::::::::::::::::::::::::::::::::::::::::::::::::::::::::::::::::::::::::::::::::::::::::::::::::::::",
"::::::::::::::::::::::::::::::::::::::::::::::::::::::::::::::::::::::::::::::::::::::::::::::::::::::::::::::::::::::::::::::::",
"::::::::::::::::::::::::::::::::::::::::::::::::::::::::::::::::::::::::::::::::::::::::::::::::::::::::::::::::::::::::::::::::",
"::::::::::::::::::::::::::::::::::::::::::::::::::::::::::::::::::::::::::::::::::::::::::::::::::::::::::::::::::::::::::::::::",
"::::::::::::::::::::::::::::::::::::::::::::::::::::::::::::::::::::::::::::::::::::::::::::::::::::::::::::::::::::::::::::::::",
"::::::::::::::::::::::::::::::::::::::::::::::::::::::::::::::::::::::::::::::::::::::::::::::::::::::::::::::::::::::::::::::::",
"::::::::::::::::::::::::::::::::::::::::::::::::::::::::::::::::::::::::::::::::::::::::::::::::::::::::::::::::::::::::::::::::",
"::::::::::::::::::::::::::::::::::::::::::::::::::::::::::::::::::::::::::::::::::::::::::::::::::::::::::::::::::::::::::::::::",
"::::::::::::::::::::::::::::::::::::::::::::::::::::::::::::::::::::::::::::::::::::::::::::::::::::::::::::::::::::::::::::::::",
"::::::::::::::::::::::::::::::::::::::::::::::::::::::::::::::::::::::::::::::::::::::::::::::::::::::::::::::::::::::::::::::::",
"::::::::::::::::::::::::::::::::::::::::::::::::::::::::::::::::::::::::::::::::::::::::::::::::::::::::::::::::::::::::::::::::",
"::::::::::::::::::::::::::::::::::::::::::::::::::::::::::::::::::::::::::::::::::::::::::::::::::::::::::::::::::::::::::::::::",
"::::::::::::::::::::::::::::::::::::::::::::::::::::::::::::::::::::::::::::::::::::::::::::::::::::::::::::::::::::::::::::::::",
"::::::::::::::::::::::::::::::::::::::::::::::::::::::::::::::::::::::::::::::::::::::::::::::::::::::::::::::::::::::::::::::::",
"::::::::::::::::::::::::::::::::::::::::::::::::::::::::::::::::::::::::::::::::::::::::::::::::::::::::::::::::::::::::::::::::",
"::::::::::::::::::::::::::::::::::::::::::::::::::::::::::::::::::::::::::::::::::::::::::::::::::::::::::::::::::::::::::::::::",
"::::::::::::::::::::::::::::::::::::::::::::::::::::::::::::::::::::::::::::::::::::::::::::::::::::::::::::::::::::::::::::::::",
"::::::::::::::::::::::::::::::::::::::::::::::::::::::::::::::::::::::::::::::::::::::::::::::::::::::::::::::::::::::::::::::::",
"::::::::::::::::::::::::::::::::::::::::::::::::::::::::::::::::::::::::::::::::::::::::::::::::::::::::::::::::::::::::::::::::",
"::::::::::::::::::::::::::::::::::::::::::::::::::::::::::::::::::::::::::::::::::::::::::::::::::::::::::::::::::::::::::::::::",
"::::::::::::::::::::::::::::::::::::::::::::::::::::::::::::::::::::::::::::::::::::::::::::::::::::::::::::::::::::::::::::::::",
"::::::::::::::::::::::::::::::::::::::::::::::::::::::::::::::::::::::::::::::::::::::::::::::::::::::::::::::::::::::::::::::::",
"::::::::::::::::::::::::::::::::::::::::::::::::::::::::::::::::::::::::::::::::::::::::::::::::::::::::::::::::::::::::::::::::",
"::::::::::::::::::::::::::::::::::::::::::::::::::::::::::::::::::::::::::::::::::::::::::::::::::::::::::::::::::::::::::::::::",
"::::::::::::::::::::::::::::::::::::::::::::::::::::::::::::::::::::::::::::::::::::::::::::::::::::::::::::::::::::::::::::::::",
"::::::::::::::::::::::::::::::::::::::::::::::::::::::::::::::::::::::::::::::::::::::::::::::::::::::::::::::::::::::::::::::::",
"::::::::::::::::::::::::::::::::::::::::::::::::::::::::::::::::::::::::::::::::::::::::::::::::::::::::::::::::::::::::::::::::",
"::::::::::::::::::::::::::::::::::::::::::::::::::::::::::::::::::::::::::::::::::::::::::::::::::::::::::::::::::::::::::::::::",
"::::::::::::::::::::::::::::::::::::::::::::::::::::::::::::::::::::::::::::::::::::::::::::::::::::::::::::::::::::::::::::::::",
"::::::::::::::::::::::::::::::::::::::::::::::::::::::::::::::::::::::::::::::::::::::::::::::::::::::::::::::::::::::::::::::::",
"::::::::::::::::::::::::::::::::::::::::::::::::::::::::::::::::::::::::::::::::::::::::::::::::::::::::::::::::::::::::::::::::",
"::::::::::::::::::::::::::::::::::::::::::::::::::::::::::::::::::::::::::::::::::::::::::::::::::::::::::::::::::::::::::::::::",
"::::::::::::::::::::::::::::::::::::::::::::::::::::::::::::::::::::::::::::::::::::::::::::::::::::::::::::::::::::::::::::::::",
"::::::::::::::::::::::::::::::::::::::::::::::::::::::::::::::::::::::::::::::::::::::::::::::::::::::::::::::::::::::::::::::::",
"::::::::::::::::::::::::::::::::::::::::::::::::::::::::::::::::::::::::::::::::::::::::::::::::::::::::::::::::::::::::::::::::",
"::::::::::::::::::::::::::::::::::::::::::::::::::::::::::::::::::::::::::::::::::::::::::::::::::::::::::::::::::::::::::::::::",
"::::::::::::::::::::::::::::::::::::::::::::::::::::::::::::::::::::::::::::::::::::::::::::::::::::::::::::::::::::::::::::::::",
"::::::::::::::::::::::::::::::::::::::::::::::::::::::::::::::::::::::::::::::::::::::::::::::::::::::::::::::::::::::::::::::::",
"::::::::::::::::::::::::::::::::::::::::::::::::::::::::::::::::::::::::::::::::::::::::::::::::::::::::::::::::::::::::::::::::",
"::::::::::::::::::::::::::::::::::::::::::::::::::::::::::::::::::::::::::::::::::::::::::::::::::::::::::::::::::::::::::::::::",
"::::::::::::::::::::::::::::::::::::::::::::::::::::::::::::::::::::::::::::::::::::::::::::::::::::::::::::::::::::::::::::::::",
"::::::::::::::::::::::::::::::::::::::::::::::::::::::::::::::::::::::::::::::::::::::::::::::::::::::::::::::::::::::::::::::::",
"::::::::::::::::::::::::::::::::::::::::::::::::::::::::::::::::::::::::::::::::::::::::::::::::::::::::::::::::::::::::::::::::",
"::::::::::::::::::::::::::::::::::::::::::::::::::::::::::::::::::::::::::::::::::::::::::::::::::::::::::::::::::::::::::::::::",
"::::::::::::::::::::::::::::::::::::::::::::::::::::::::::::::::::::::::::::::::::::::::::::::::::::::::::::::::::::::::::::::::",
"::::::::::::::::::::::::::::::::::::;:::::::::::::::::--:---:-::::::::::::::::::::::::::::::::::::::::::::::::::::::::::::::::::",
":::::::::::::::::::::::::::::::;;::;;:::::::::::::::------------::::::::::::::::::::::::::::::::::::::::::::::::::::::::::::::::",
"::::::::::::::::::::::::::::::;;::;;::::::::::::::--------=o-----:::::::::::::::::::::::::::::::::::::::::::::::::::::::::::::::",
"::::::::::::::::::::::::::::::;::;;:::::::::::::------=====:o=o---::::::::::::::::::::::::::::::::::::::::::::::::::::::::::::::",
":::::::::::::::::::::::::::::;;::::::::::::::::-----==::::::::oooo-:::::::::::::::::::::::::::::::::::::::::::::::::::::::::::::",
"::::::::::::::::::::::::::::;;;:::::::::::::::---===::::::::::::ooo::%::::::###:::::::::::::::::::::::::::::::::::::::::::::::::",
":::::::::::::::::::::::::::;;;;;:::::::::::::----=::::::::::::::::@@::%:::::###:::::::::::::::::::::::::::::::::::::::::::::::::",
":::::::::::::::::::::::::::;;;;;:::::::::::::--==::::::::::::::::::@o:%%::::###:::::::::::::::::::::::::::::::::::::::::::::::::",
"::::::::::::::::::::::::::;;;;;:::::::::::::---=::::::::::::::::::::@o%%::::####::::::::::::::::::::::::::::::::::::::::::::::::",
"::::::::::::::::::::::::::;;;;;::::::::::::---=:::::::::::::::::::::o@:%::::####::::::::::::::::::::::::::::::::::::::::::::::::",
":::::::::::::::::::::::::;;;;;:::::::::::::--=:::::::::::::::::::::::@%%%:::####::::::::::::::::::::::::::::::::::::::::::::::::",
":::::::::::::::::::::::::;;;;;::::::::::::---=:::::::::::::::::::::::@@%%:++####::::::::::::::::::::::::::::::::::::::::::::::::",
":::::::::::::::::::::::::::;;:::::::::::::--=::::::::::::::XXXX$::::%@@%::++####::::::::::::::::::::::::::::::::::::::::::::::::",
":::::::::::::::::::::::::::;;:::::::::::::-==::::::::::::XXXX  $:::%%%%%%+++####::::::::::::::::::::::::::::::::::::::::::::::::",
":::::::::::::::::::::::::::;;:::::::::::::-==:::::::::::X&&& $$$::%%%%%%:##+####::::::::::::::::::::::::::::::::::::::::::::::::",
":::::::::::::::::::::::::::;::::::::::::::-=::::::::%%%:&&++$$$::%%%%%%%########:::;;::::::::::::::::=::::::::::::::::::::::::::",
"::::::::::::::::::::::::::;;:::::::::::::::=:::::::%%%%&&&+ ::..:::&&%%&#######:::::::::::::::::::::*=::::::::::::::::::::::::::",
"::::::::::::::::::::::::::;:::::::::::::::*=::::::%%%%:&#+:#::...::&&%%&#:#####::::;::::::::::::::::*=::::::::::::::::::::::::::",
"::::::::::::::::::::::::::;:::::::::::::::*::::::%%%%%:###:&&&::$$$::::##:+####.:::;;;::::::::::::::==::::::::::::::::::::::::::",
"::::::::::::::::::::::::::;:::::::::::::::==:::::%%%%%:####:::::$$$::: ::#+###&X::;;;:::::::::::::::==::::::::::::::::::::::::::",
"::::::::::::::::::::::::::;::::::::::::::::*::::%%%%%%%##++%:::::::::: :+O&&#:X:::;;;:::::::::::::::==::::::::::::::::::::::::::",
"::::::::::::::::::::::::::::::::::::::::::::::::%%%%%%%##+%%:::::::::: O++&&&&X:::;;:::::::::::::::==*::::::::::::::::::::::::::",
"::::::::::::::::::::::::::::::::::::::::::::::::%%%%%%%##%%:::::::::::+O+&&&&X:::::;:::::::::::::::==*::::::::::::::::::::::::::",
":::::::::::::::::::::::::::::::::::::::::::::::%%%%%%%%###::::::::::::++&&&&&::::;;::::::::::::::::==-::::::::::::::::::::::::::",
":::::::::::::::::::::::::::::::::::::::::::::::%%%%%%%%%##::::::::::  &&&&&&::::;:;::::::::::::::::==:::::::::::::::::::::::::::",
"::::::::::::::::::::::::::::::::::::::::::::::%%%%@@@%%:##:::$$$    X&&&&&XX::::::::::::::::::::::==*:::::::::::::::::::::::::::",
"::::::::::::::::::::::::::::::::::::::::::::::%%%%@@@%::::::::$$XXXXXXXXXX::::::::::::::::::::::::==-:::::::::::::::::::::::::::",
"::::::::::::::::::::::::::::::::::::::::::::::%%%%@@@::::::::::$XXXXXXXX:::::::::::::::::::::::::===-:::::::::::::::::::::::::::",
"::::::::::::::::::::::::::::::::::::::::::::::%%%%@@@::::::::::::::$$$:::::::::::::::::::::::::::==---::::::::::::::::::::::::::",
":::::::::::::::::::::::::::::::::::::::::::::::%%:@@@:::::::::::::::::::::::::::::::::::::::::::===---::::::::::::::::::::::::::",
":::::::::::::::::::::::::::::::::::::::::::::::%%::@@:::::::::::::::::::::::::::::::::::::::::::==----::::::::::::::::::::::::::",
":::::::::::::::::::::::::::::::::::::::::::::::%%%:o@o:::::::::::::::::::::::::::::::::::::::::===----::::::::::::::::::::::::::",
":::::::::::::::::::::::::::::::::::::::::::::::%%%.o@o::::::::::::::::::::::::::::::::::::::::===----:::::::::::::::::::::::::::",
":::::::::::::::::::::::::::::::::::::::::::::::%%%:o@@::::::::::::::::::::::::::::::::::::::::==-----:::::::::::::::::::::::::::",
"::::::::::::::::::::::::::::::::::::::::::::::::%%::o@@::::::::::::::::::::::::::::::::::::::===----::::::::::::::::::::::::::::",
"::::::::::::::::::::::::::::::::::::::::::::::::%%::o@@:::::::::::::::::::::::::::::::::::::===----:::::::::::::::::::::::::::::",
"::::::::::::::::::::::::::::::::::::::::::::::::%%:::o@@:::::::::::::::::::::::::::::::::::===-----:::::::::::::::::::::::::::::",
":::::::::::::::::::::::::::::::::::::::::::::::::%%::oooo:::::::::::::::::::::::::::::::::===-----::::::::::::::::::::::::::::::",
"::::::::::::::::::::::::::::::::::::::::::::::::::%%::oooo::::::::::::::::::::::::::::::====-----:::::::::::::::::::::::::::::::",
":::::::::::::::::::::::::::::::::::::::::::::::::::::::ooooo:::::::::::::::::::::::::::====-----::::::::::::::::::::::::::::::::",
":::::::::::::::::::::::::::::::::::::::::::::::::::::::-ooooo::::::::::::::::::::::::====------:::::::::::::::::::::::::::::::::",
":::::::::::::::::::::::::::::::::::::::::::::::::::::::---ooooo:::::::::::::::::::::====------::::::::::::::::::::::::::::::::::",
"::::::::::::::::::::::::::::::::::::::::::::::::::::::::----o=oo=::::::::::::::::=====-------:::::::::::::::::::::::::::::::::::",
"::::::::::::::::::::::::::::::::::::::::::::::::::::::::------o==o=:::::::::::======--------::::::::::::::::::::::::::::::::::::",
":::::::::::::::::::::::::::::::::::::::::::::::::::::::::-------oo================---------:::::::::::::::::::::::::::::::::::::",
"::::::::::::::::::::::::::::::::::::::::::::::::::::::::::---------oo=========------------::::::::::::::::::::::::::::::::::::::",
"::::::::::::::::::::::::::::::::::::::::::::::::::::::::::::----------------------------::::::::::::::::::::::::::::::::::::::::",
":::::::::::::::::::::::::::::::::::::::::::::::::::::::::::::-------------------------::::::::::::::::::::::::::::::::::::::::::",
":::::::::::::::::::::::::::::::::::::::::::::::::::::::::::::::---------------------::::::::::::::::::::::::::::::::::::::::::::",
"::::::::::::::::::::::::::::::::::::::::::::::::::::::::::::::::::---------------:::::::::::::::::::::::::::::::::::::::::::::::",
"::::::::::::::::::::::::::::::::::::::::::::::::::::::::::::::::::::::::::--::::::::::::::::::::::::::::::::::::::::::::::::::::",
"::::::::::::::::::::::::::::::::::::::::::::::::::::::::::::::::::::::::::::::::::::::::::::::::::::::::::::::::::::::::::::::::",
"::::::::::::::::::::::::::::::::::::::::::::::::::::::::::::::::::::::::::::::::::::::::::::::::::::::::::::::::::::::::::::::::",
"::::::::::::::::::::::::::::::::::::::::::::::::::::::::::::::::::::::::::::::::::::::::::::::::::::::::::::::::::::::::::::::::",
"::::::::::::::::::::::::::::::::::::::::::::::::::::::::::::::::::::::::::::::::::::::::::::::::::::::::::::::::::::::::::::::::",
"::::::::::::::::::::::::::::::::::::::::::::::::::::::::::::::::::::::::::::::::::::::::::::::::::::::::::::::::::::::::::::::::",
"::::::::::::::::::::::::::::::::::::::::::::::::::::::::::::::::::::::::::::::::::::::::::::::::::::::::::::::::::::::::::::::::",
"::::::::::::::::::::::::::::::::::::::::::::::::::::::::::::::::::::::::::::::::::::::::::::::::::::::::::::::::::::::::::::::::",
"::::::::::::::::::::::::::::::::::::::::::::::::::::::::::::::::::::::::::::::::::::::::::::::::::::::::::::::::::::::::::::::::",
"::::::::::::::::::::::::::::::::::::::::::::::::::::::::::::::::::::::::::::::::::::::::::::::::::::::::::::::::::::::::::::::::",
"::::::::::::::::::::::::::::::::::::::::::::::::::::::::::::::::::::::::::::::::::::::::::::::::::::::::::::::::::::::::::::::::",
"::::::::::::::::::::::::::::::::::::::::::::::::::::::::::::::::::::::::::::::::::::::::::::::::::::::::::::::::::::::::::::::::",
"::::::::::::::::::::::::::::::::::::::::::::::::::::::::::::::::::::::::::::::::::::::::::::::::::::::::::::::::::::::::::::::::",
"::::::::::::::::::::::::::::::::::::::::::::::::::::::::::::::::::::::::::::::::::::::::::::::::::::::::::::::::::::::::::::::::",
"::::::::::::::::::::::::::::::::::::::::::::::::::::::::::::::::::::::::::::::::::::::::::::::::::::::::::::::::::::::::::::::::",
"::::::::::::::::::::::::::::::::::::::::::::::::::::::::::::::::::::::::::::::::::::::::::::::::::::::::::::::::::::::::::::::::",
"::::::::::::::::::::::::::::::::::::::::::::::::::::::::::::::::::::::::::::::::::::::::::::::::::::::::::::::::::::::::::::::::",
"::::::::::::::::::::::::::::::::::::::::::::::::::::::::::::::::::::::::::::::::::::::::::::::::::::::::::::::::::::::::::::::::",
"::::::::::::::::::::::::::::::::::::::::::::::::::::::::::::::::::::::::::::::::::::::::::::::::::::::::::::::::::::::::::::::::",
"::::::::::::::::::::::::::::::::::::::::::::::::::::::::::::::::::::::::::::::::::::::::::::::::::::::::::::::::::::::::::::::::",
"::::::::::::::::::::::::::::::::::::::::::::::::::::::::::::::::::::::::::::::::::::::::::::::::::::::::::::::::::::::::::::::::",
"::::::::::::::::::::::::::::::::::::::::::::::::::::::::::::::::::::::::::::::::::::::::::::::::::::::::::::::::::::::::::::::::",
"::::::::::::::::::::::::::::::::::::::::::::::::::::::::::::::::::::::::::::::::::::::::::::::::::::::::::::::::::::::::::::::::",
"::::::::::::::::::::::::::::::::::::::::::::::::::::::::::::::::::::::::::::::::::::::::::::::::::::::::::::::::::::::::::::::::",
"::::::::::::::::::::::::::::::::::::::::::::::::::::::::::::::::::::::::::::::::::::::::::::::::::::::::::::::::::::::::::::::::",
"::::::::::::::::::::::::::::::::::::::::::::::::::::::::::::::::::::::::::::::::::::::::::::::::::::::::::::::::::::::::::::::::",
"::::::::::::::::::::::::::::::::::::::::::::::::::::::::::::::::::::::::::::::::::::::::::::::::::::::::::::::::::::::::::::::::",
"::::::::::::::::::::::::::::::::::::::::::::::::::::::::::::::::::::::::::::::::::::::::::::::::::::::::::::::::::::::::::::::::",
"::::::::::::::::::::::::::::::::::::::::::::::::::::::::::::::::::::::::::::::::::::::::::::::::::::::::::::::::::::::::::::::::",
"::::::::::::::::::::::::::::::::::::::::::::::::::::::::::::::::::::::::::::::::::::::::::::::::::::::::::::::::::::::::::::::::",
"::::::::::::::::::::::::::::::::::::::::::::::::::::::::::::::::::::::::::::::::::::::::::::::::::::::::::::::::::::::::::::::::",
"::::::::::::::::::::::::::::::::::::::::::::::::::::::::::::::::::::::::::::::::::::::::::::::::::::::::::::::::::::::::::::::::"
};
