/* XPM */
static char *gravity_09[] = {
/* columns rows colors chars-per-pixel */
"128 128 14 1 ",
"  c #1A1625",
". c #231A34",
"X c #251B38",
"o c #261B39",
"O c #271C3B",
"+ c #412561",
"@ c #4A2465",
"# c #60246E",
"$ c #642470",
"% c #742377",
"& c #7C257E",
"* c #822985",
"= c #A43BB1",
"- c None",
/* pixels */
"--------------------------------------------------------------------------------------------------------------------------------",
"--------------------------------------------------------------------------------------------------------------------------------",
"--------------------------------------------------------------------------------------------------------------------------------",
"--------------------------------------------------------------------------------------------------------------------------------",
"--------------------------------------------------------------------------------------------------------------------------------",
"--------------------------------------------------------------------------------------------------------------------------------",
"--------------------------------------------------------------------------------------------------------------------------------",
"--------------------------------------------------------------------------------------------------------------------------------",
"--------------------------------------------------------------------------------------------------------------------------------",
"--------------------------------------------------------------------------------------------------------------------------------",
"--------------------------------------------------------------------------------------------------------------------------------",
"--------------------------------------------------------------------------------------------------------------------------------",
"--------------------------------------------------------------------------------------------------------------------------------",
"--------------------------------------------------------------------------------------------------------------------------------",
"--------------------------------------------------------------------------------------------------------------------------------",
"--------------------------------------------------------------------------------------------------------------------------------",
"--------------------------------------------------------------------------------------------------------------------------------",
"--------------------------------------------------------------------------------------------------------------------------------",
"--------------------------------------------------------------------------------------------------------------------------------",
"--------------------------------------------------------------------------------------------------------------------------------",
"--------------------------------------------------------------------------------------------------------------------------------",
"--------------------------------------------------------------------------------------------------------------------------------",
"--------------------------------------------------------------------------------------------------------------------------------",
"--------------------------------------------------------------------------------------------------------------------------------",
"--------------------------------------------------------------------------------------------------------------------------------",
"--------------------------------------------------------------------------------------------------------------------------------",
"--------------------------------------------------------------------------------------------------------------------------------",
"--------------------------------------------------------------------------------------------------------------------------------",
"--------------------------------------------------------------------------------------------------------------------------------",
"--------------------------------------------------------------------------------------------------------------------------------",
"--------------------------------------------------------------------------------------------------------------------------------",
"--------------------------------------------------------------------------------------------------------------------------------",
"--------------------------------------------------------------------------------------------------------------------------------",
"--------------------------------------------------------------------------------------------------------------------------------",
"--------------------------------------------------------------------------------------------------------------------------------",
"--------------------------------------------------------------------------------------------------------------------------------",
"--------------------------------------------------*************-----------------------------------------------------------------",
"----------------------------------------------********************--------------------------------------------------------------",
"---------------------------------------------************************-----------------------------------------------------------",
"------------------------------------------****************************----------------------------------------------------------",
"------------------------------------------******$$$$$$$$$$$************---------------------------------------------------------",
"----------------------------------------*****$$$$$$$$$$$$$$$$$***********-------------------------------------------------------",
"---------------------------------------****$$$$$$$%%.-%%%%%%%%%$$*********------------------------------------------------------",
"--------------------------------------***$$$$$$.------------%%%%%$$********-----------------------------------------------------",
"--------------------------------------*$$$$$.------------------%%%%.********----------------------------------------------------",
"-------------------------------------*$$$$.----------------------%%%%.*******---------------------------------------------------",
"------------------------------------$$$$$-----------------&-------%%%%.******---------------------------------------------------",
"-----------------------------------$$$$.--------------------&&&&----%%%.******--------------------------------------------------",
"----------------------------------$$$$.-----------------------&&&&---%%%******--------------------------------------------------",
"---------------------------------$$$$.---------------------------&&&--%%%******-------------------------------------------------",
"---------------------------------$$$.-----------------------------&&---%%%*****-------------------------------------------------",
"--------------------------------$$$.------------------------------&&&&-%%%*****-------------------------------------------------",
"-------------------------------$$$.---------------------------------&&--%%%*****------------------------------------------------",
"------------------------------$$$$----------------------------------&&&-%%%*****------------------------------------------------",
"------------------------------$$$------------------------------------&&--%%*****------------------------------------------------",
"-----------------------------$$$.-----------------------------------+&&--%%******-----------------------------------------------",
"-----------------------------$$$-------------------------------------&&&-%%%*****-----------------------------------------------",
"----------------------------$$$-------------------------######-------&&&-%%%*****--$--------------------------------------------",
"----------------------------$$$------------------------##OO#### ----=+&=-%%%*****-----------------------------------------------",
"---------------------------$$$----------------------#-OOOO#####   -=-&&O-%%%*****--$--------------------------------------------",
"---------------------------$$$----------------------OOOOO...     @==-===-**%**o*---$--------------------------------------------",
"---------------------------$$-----------------------O==O... ----#@---==O******X*---$$-------------------------------------------",
"--------------------------$$$----------------------O===...o------#--===-******X----$--------------------------------------------",
"--------------------------$$----------------------O====.**--------- O=O-*******----$--------------------------------------------",
"--------------------------$$---------------------O=====****------- OOO--*******---$$--------------------------------------------",
"--------------------------$$---------------------O====-X***o---   OOOO---*****.---$---------------------------------------------",
"--------------------------$$--------------------O=====-o*%%----- O##----o......--$$---------------------------------------------",
"--------------------------$$--------------------O=====***%%@@-----------o.....--.$$---------------------------------------------",
"--------------------------$---------------------O==&&=-**%%@@----------o.....---$$----------------------------------------------",
"--------------------------$---------------------O=&&&&-***%-----------......---$$$----------------------------------------------",
"--------------------------$---------------------==&&&&=***%%----------.....---.$$-----------------------------------------------",
"-----------------------------------------------@==&&+==-***%%---#####....-----$*------------------------------------------------",
"------------------------------------------------&&&&+=--****%%--#########---$$$-------------------------------------------------",
"------------------------------------------------&&&&+----****%%%########--$$$**-------------------------------------------------",
"------------------------------------------------&&&&+-----*****%%%%##%%.%$$$**--------------------------------------------------",
"------------------------------------------------&&&&+------******$$$$$$$$$****--------------------------------------------------",
"------------------------------------------------&&&&&-------***************-----------------------------------------------------",
"------------------------------------------------&&&&++--------***********-------------------------------------------------------",
"-------------------------------------------------&&&--------------***-----------------------------------------------------------",
"-------------------------------------------------&&&----------------------------------------------------------------------------",
"-------------------------------------------------&&&&---------------------------------------------------------------------------",
"-------------------------------------------------&&&&---------------------------------------------------------------------------",
"--------------------------------------------------&&&&--------------------------------------------------------------------------",
"--------------------------------------------------&&&&&-------------------------------------------------------------------------",
"--------------------------------------------------&&&&&&------------------------------------------------------------------------",
"---------------------------------------------------&&&&&------------------------------------------------------------------------",
"----------------------------------------------------&&&&&-----------------------------------------------------------------------",
"----------------------------------------------------&&&&&-----------------------------------------------------------------------",
"-----------------------------------------------------&&&&&----------------------------------------------------------------------",
"------------------------------------------------------&&&&&---------------------------------------------------------------------",
"--------------------------------------------------------&&&&&-------------------------------------------------------------------",
"---------------------------------------------------------&&&&&&-----------------------------------------------------------------",
"-----------------------------------------------------------&&&&&----------------------------------------------------------------",
"-------------------------------------------------------------&&&&&&-------------------------------------------------------------",
"----------------------------------------------------------------&&&&&&----------------------------------------------------------",
"-------------------------------------------------------------------&&&----------------------------------------------------------",
"--------------------------------------------------------------------------------------------------------------------------------",
"--------------------------------------------------------------------------------------------------------------------------------",
"--------------------------------------------------------------------------------------------------------------------------------",
"--------------------------------------------------------------------------------------------------------------------------------",
"--------------------------------------------------------------------------------------------------------------------------------",
"--------------------------------------------------------------------------------------------------------------------------------",
"--------------------------------------------------------------------------------------------------------------------------------",
"--------------------------------------------------------------------------------------------------------------------------------",
"--------------------------------------------------------------------------------------------------------------------------------",
"--------------------------------------------------------------------------------------------------------------------------------",
"--------------------------------------------------------------------------------------------------------------------------------",
"--------------------------------------------------------------------------------------------------------------------------------",
"--------------------------------------------------------------------------------------------------------------------------------",
"--------------------------------------------------------------------------------------------------------------------------------",
"--------------------------------------------------------------------------------------------------------------------------------",
"--------------------------------------------------------------------------------------------------------------------------------",
"--------------------------------------------------------------------------------------------------------------------------------",
"--------------------------------------------------------------------------------------------------------------------------------",
"--------------------------------------------------------------------------------------------------------------------------------",
"--------------------------------------------------------------------------------------------------------------------------------",
"--------------------------------------------------------------------------------------------------------------------------------",
"--------------------------------------------------------------------------------------------------------------------------------",
"--------------------------------------------------------------------------------------------------------------------------------",
"--------------------------------------------------------------------------------------------------------------------------------",
"--------------------------------------------------------------------------------------------------------------------------------",
"--------------------------------------------------------------------------------------------------------------------------------",
"--------------------------------------------------------------------------------------------------------------------------------",
"--------------------------------------------------------------------------------------------------------------------------------",
"--------------------------------------------------------------------------------------------------------------------------------",
"--------------------------------------------------------------------------------------------------------------------------------",
"--------------------------------------------------------------------------------------------------------------------------------",
"--------------------------------------------------------------------------------------------------------------------------------"
};
