/* XPM */
static char * metallic_lamp2_xpm[] = {
"64 64 65 1",
" 	c None",
".	c #272727",
"+	c #000000",
"@	c #1B1B1B",
"#	c #373737",
"$	c #2F2F2F",
"%	c #170F07",
"&	c #131313",
"*	c #232323",
"=	c #1F170B",
"-	c #373F27",
";	c #43331B",
">	c #4F3B23",
",	c #332B13",
"'	c #7373FF",
")	c #8F8FFF",
"!	c #0000FF",
"~	c #C7C7FF",
"{	c #FFFFD7",
"]	c #FFFFFF",
"^	c #E7E7FF",
"/	c #ABABFF",
"(	c #3737FF",
"_	c #5353FF",
":	c #372313",
"<	c #3F2B1B",
"[	c #5F4323",
"}	c #2F1B0B",
"|	c #4B371B",
"1	c #533F1F",
"2	c #3F2F17",
"3	c #3F472B",
"4	c #6F7357",
"5	c #7B7F63",
"6	c #474F33",
"7	c #5B6347",
"8	c #875733",
"9	c #6B4727",
"0	c #774F2B",
"a	c #0B0B0B",
"b	c #4B4B4B",
"c	c #6F6F6F",
"d	c #8B8B8B",
"e	c #838383",
"f	c #5B5B5B",
"g	c #434343",
"h	c #636363",
"i	c #939393",
"j	c #575757",
"k	c #777777",
"l	c #4F4F4F",
"m	c #67533F",
"n	c #574333",
"o	c #4F3B2B",
"p	c #473323",
"q	c #7F532F",
"r	c #9B633B",
"s	c #8F5F37",
"t	c #775F4B",
"u	c #836B57",
"v	c #8B735B",
"w	c #5B472B",
"x	c #6F5743",
"y	c #7B634F",
"z	c #675333",
"                                                                ",
"                                                                ",
"                                                                ",
"                                                                ",
"                            .+@.#.++#                           ",
"                         $%&&%&&&&&++++                         ",
"                        %++*=%===&&%%+++                        ",
"                        +%%-==;>>,*=-%%+=                       ",
"                        ')&!~~{]]{^~!&&'                        ",
"                        )/&(~~{]]{^~(&&)                        ",
"                        )/&_~^{]]{^^_&&)                        ",
"                        )/&)^{{]]{{{)&&)                        ",
"                        )/&)^{]]]]]{)&&)                        ",
"                        )/&)^{{]]{{{)&&)                        ",
"                        )/&_~^{]]{^^_&&)                        ",
"                        )/&(~~{]]{^~(&&)                        ",
"                        ')&!~/^{{^~/!&&'                        ",
"                        +%%-==,,;,*=-%%+=                       ",
"                        %++*=%===&&%%+++                        ",
"                         $%&&%&&&&&++++                         ",
"                            .+@.#.++#                           ",
"                            :<[[[:::                            ",
"                            }=:<<%%%                            ",
"                            }%<|<%%%                            ",
"                            }%<1<,,%                            ",
"                            234546[2                            ",
"                            2|676||2                            ",
"                            2|[6[||2                            ",
"                            22[8[||2                            ",
"                             %<|<%%%                            ",
"                             %<1<%%%                            ",
"                             }|[<%%%                            ",
"                             }[9|%%%                            ",
"                             }[0[%%%                            ",
"                             }[8[%%%                            ",
"                            }%<|<a%%                            ",
"                            #bcdefbg                            ",
"                            gheidchb                            ",
"                            #jkdefbg                            ",
"                            }:[9[|=,                            ",
"                            }}|91|%,                            ",
"                            }%<|<a%%                            ",
"                            #gcdeflg                            ",
"                            #jkdehfg                            ",
"                            #jkdeflg                            ",
"                            }:[9[===                            ",
"                            }}|91%%%                            ",
"                            }%||<%:}                            ",
"                            }%|1<%:}                            ",
"                            }}|[<%:}                            ",
"                            }}[9|%}}                            ",
"                            }}[0[%}}                            ",
"                            }}[8[}}}                            ",
"                           =<<mmmnop==                          ",
"                           }%%++++++}                           ",
"                           }=<qrs:}}}                           ",
"                           }=+++++++}                           ",
"                           }=<srr<}}=                           ",
"                           =<<[[1<<<}=                          ",
"                          :<<<2222}}}::                         ",
"                        :::||[tuvt91<:::                        ",
"                        <<<|1wxyuxzw||<::                       ",
"                         ||[[[9zz99[[||                         ",
"                            [990q999                            "};
