/* XPM */
static char * metallic_lamp4_xpm[] = {
"64 64 60 1",
" 	c None",
".	c #272727",
"+	c #000000",
"@	c #131313",
"#	c #373737",
"$	c #1F170B",
"%	c #2F2F2F",
"&	c #170F07",
"*	c #070707",
"=	c #3F472B",
"-	c #43331B",
";	c #4F3B23",
">	c #232323",
",	c #8F8FFF",
"'	c #C7C7FF",
")	c #E7E7FF",
"!	c #FFFFFF",
"~	c #ABABFF",
"{	c #FFFFD7",
"]	c #332B13",
"^	c #372313",
"/	c #3F2B1B",
"(	c #5F4323",
"_	c #2F1B0B",
":	c #4B371B",
"<	c #533F1F",
"[	c #3F2F17",
"}	c #53573B",
"|	c #7B7F63",
"1	c #6F7357",
"2	c #5B6347",
"3	c #474F33",
"4	c #875733",
"5	c #6B4727",
"6	c #774F2B",
"7	c #4B4B4B",
"8	c #575757",
"9	c #8B8B8B",
"0	c #838383",
"a	c #636363",
"b	c #434343",
"c	c #6F6F6F",
"d	c #939393",
"e	c #4F4F4F",
"f	c #777777",
"g	c #5B5B5B",
"h	c #6B6B6B",
"i	c #473323",
"j	c #574333",
"k	c #67533F",
"l	c #533F2F",
"m	c #432F1B",
"n	c #9B633B",
"o	c #8F5F37",
"p	c #836B57",
"q	c #8B735B",
"r	c #5B472B",
"s	c #675333",
"t	c #7B634F",
"u	c #7F532F",
"                                                                ",
"                                                                ",
"                                                                ",
"                                                                ",
"                           .+@.##++$                            ",
"                        %&+@&&@@@@+*++$                         ",
"                        +++$&@$$$@&&+++                         ",
"                       =&&&$$-;;;>$@&&+$                        ",
"                        ,@@'')!!!)''@@,                         ",
"                        ~@@'')!!!)''@@~                         ",
"                        ~@@'))!!!))'@@~                         ",
"                        ~@@){{!!!{{)@@~                         ",
"                        ~@@){!!!!!{)@@~                         ",
"                        ~@@){{!!!{{)@@~                         ",
"                        ~@@'))!!!))'@@~                         ",
"                        ~@@'')!!!)''@@~                         ",
"                        ,@@'~'{{{'~'@@,                         ",
"                       =&&&$$$]-]>$@&&+$                        ",
"                        +++$&@$$$@&&+++                         ",
"                        %&+@&&@@@@+*++$                         ",
"                           .+@.##++$                            ",
"                           ^/^((/^^/                            ",
"                           _$&//$&&_                            ",
"                           _&&:/&&&_                            ",
"                           _&&</]]&_                            ",
"                           [=}|1}([]                            ",
"                           [::23<:[]                            ",
"                           [::3(<:[]                            ",
"                           [[:4((:[]                            ",
"                            &&:/&&&                             ",
"                            &&</&&&                             ",
"                            __(/&&&                             ",
"                            _/5:&&&                             ",
"                            _/6(&&&                             ",
"                            _/4(_&&                             ",
"                           _&&:/&&&_                            ",
"                           #7890a7b#                            ",
"                           bacd9|a7b                            ",
"                           #8c90a7b#                            ",
"                           _^/5($$]^                            ",
"                           __^5<_&]$                            ",
"                           _&&:/&&&_                            ",
"                           #be90aeb#                            ",
"                           #8a90fgb#                            ",
"                           #8h90aeb#                            ",
"                           _^/5($$$^                            ",
"                           __^5<_&&$                            ",
"                           _&^:/&^_&                            ",
"                           _&^</&^_&                            ",
"                           __^(/&^_&                            ",
"                           __/5:&__&                            ",
"                           __/6(&__&                            ",
"                           __/4(___&                            ",
"                          /iijkkklim]                           ",
"                           &&++++++*                            ",
"                           $/(no(___                            ",
"                           $++++++++                            ",
"                           $/(nn(___                            ",
"                          _//i(<<//^$                           ",
"                         ^^//[[[[___^^                          ",
"                        ^^/:(5pqp5</^^^                         ",
"                       ^//:<rstptsr<://^                        ",
"                        :::((5sss5((:::                         ",
"                           (556u655(                            "};
