/* XPM */
static char * metallic_lamp1_xpm[] = {
"64 64 64 1",
" 	c None",
".	c #272727",
"+	c #000000",
"@	c #1B1B1B",
"#	c #373737",
"$	c #2F2F2F",
"%	c #170F07",
"&	c #131313",
"*	c #232323",
"=	c #1F170B",
"-	c #373F27",
";	c #43331B",
">	c #4F3B23",
",	c #332B13",
"'	c #7373FF",
")	c #8F8FFF",
"!	c #5353FF",
"~	c #C7C7FF",
"{	c #E7E7FF",
"]	c #FFFFFF",
"^	c #FFFFD7",
"/	c #ABABFF",
"(	c #372313",
"_	c #3F2B1B",
":	c #5F4323",
"<	c #2F1B0B",
"[	c #4B371B",
"}	c #533F1F",
"|	c #3F2F17",
"1	c #53573B",
"2	c #9F8363",
"3	c #BFA78F",
"4	c #5B6347",
"5	c #474F33",
"6	c #875733",
"7	c #6B4727",
"8	c #774F2B",
"9	c #0B0B0B",
"0	c #4B4B4B",
"a	c #6F6F6F",
"b	c #8B8B8B",
"c	c #838383",
"d	c #5B5B5B",
"e	c #4F4F4F",
"f	c #434343",
"g	c #939393",
"h	c #9F9F9F",
"i	c #7F7F7F",
"j	c #636363",
"k	c #575757",
"l	c #777777",
"m	c #4F3B27",
"n	c #6F5743",
"o	c #7B634F",
"p	c #836B57",
"q	c #5F4B37",
"r	c #7F532F",
"s	c #9B633B",
"t	c #8F5F37",
"u	c #775F4B",
"v	c #8B735B",
"w	c #9B7F6B",
"x	c #675333",
"y	c #5B472B",
"                                                                ",
"                                                                ",
"                                                                ",
"                                                                ",
"                            .+@.#.++#                           ",
"                         $%&&%&&&&&++++                         ",
"                        %++*=%===&&%%+++                        ",
"                        +%%-==;>>,*=-%%+=                       ",
"                        ')&!~{]]]]^{!&&'                        ",
"                        )/&'~{]]]]^{'&&)                        ",
"                        )~&){{]]]]^{)&&)                        ",
"                        )~&~^^]]]]^^~&&)                        ",
"                        )~&{^]]]]]]]{&&)                        ",
"                        )~&~^^]]]]^^~&&)                        ",
"                        )~&){{]]]]^{)&&)                        ",
"                        )/&'~{]]]]^{'&&)                        ",
"                        ')&!/~^^^^{~!&&'                        ",
"                        +%%-==,,;,*=-%%+=                       ",
"                        %++*=%===&&%%+++                        ",
"                         $%&&%&&&&&++++                         ",
"                            .+@.#.++#                           ",
"                            (_:::(((                            ",
"                            <=(__%%%                            ",
"                            <%_[_%%%                            ",
"                            <%_}_,,%                            ",
"                            |12321:|                            ",
"                            |[141[[|                            ",
"                            |[:5:[[|                            ",
"                            ||:6:[[|                            ",
"                             %_[_%%%                            ",
"                             %_}_%%%                            ",
"                             <[:_%%%                            ",
"                             <:7[%%%                            ",
"                             <:8:%%%                            ",
"                             <:6:%%%                            ",
"                            <%_[_9%%                            ",
"                            #0abcdef                            ",
"                            eaghhiaj                            ",
"                            #klbcdef                            ",
"                            <(:7:[=,                            ",
"                            <<[7}[%,                            ",
"                            <%_[_9%%                            ",
"                            #fabcdef                            ",
"                            #kcbcadf                            ",
"                            #klbcdef                            ",
"                            <(:7:===                            ",
"                            <<[7}%%%                            ",
"                            <%[[_%(<                            ",
"                            <%[}_%(<                            ",
"                            <<[:_%(<                            ",
"                            <<:7[%<<                            ",
"                            <<:8:%<<                            ",
"                            <<:6:<<<                            ",
"                           _mmnopnqm__                          ",
"                           <%%++++++<                           ",
"                           <=_rst(<<<                           ",
"                           <=+++++++<                           ",
"                           <=_tss_<<=                           ",
"                           =__::}___<=                          ",
"                          (___||||<<<((                         ",
"                        ((([[:uvwux}|(((                        ",
"                        ___[}ynpvnxy[[_((                       ",
"                         [[:::7xx77::[[                         ",
"                            :778r777                            "};
