/* XPM */
static char * exploding_barrel2_xpm[] = {
"23 31 54 1",
" 	c None",
".	c #B7B7B7",
"+	c #6F6F6F",
"@	c #474747",
"#	c #373F27",
"$	c #3B3B3B",
"%	c #5F4B37",
"&	c #5B6347",
"*	c #6F7357",
"=	c #676B4F",
"-	c #5B5B5B",
";	c #636363",
">	c #777777",
",	c #838383",
"'	c #4B4B4B",
")	c #ABABAB",
"!	c #7B634F",
"~	c #775F4B",
"{	c #53573B",
"]	c #575757",
"^	c #1B1B1B",
"/	c #8B735B",
"(	c #836B57",
"_	c #67533F",
":	c #3F472B",
"<	c #373737",
"[	c #131313",
"}	c #7B7F63",
"|	c #474F33",
"1	c #434343",
"2	c #2F2F2F",
"3	c #0B0B0B",
"4	c #BFBFBF",
"5	c #A78F77",
"6	c #1F4317",
"7	c #070707",
"8	c #13230B",
"9	c #AF977F",
"0	c #B79F87",
"a	c #17330F",
"b	c #9F9F9F",
"c	c #939393",
"d	c #9B7F6B",
"e	c #272727",
"f	c #000000",
"g	c #232323",
"h	c #8B8B8B",
"i	c #0B1707",
"j	c #6F5743",
"k	c #A7A7A7",
"l	c #937B63",
"m	c #BFA78F",
"n	c #9F876F",
"o	c #979797",
" .+@#$%%&&&&***=-;;>,' ",
".),>!!!~!!=---&{]]]'@^^",
".,>>/((___{]]]::@$<^^[^",
".}/}/=={||:|11222[^3[^<",
"45555}**&&{{|:62^78^^^<",
".99095}}/**=&&||<a8[[^2",
"b,cb,d///*=&&&{{:e8f[^g",
"h**(&&{{{:#<2#2eg8if^g<",
"b**/j{|:#gg^8[[3f[33^g$",
"k}}9l=&{|<<e6g8[f333[^<",
"k}}mn**=&{{|:#ag[fff[^<",
"k}}mn}}*=&{|:#ag[fff[^$",
")}}5n}}*=&{|:#ag[fff3^<",
".5555}}*!=&{|:62^77fi3<",
".99955}}/**=&&||<ai[8f2",
"b,oodd///*=&&&{{:e8f33g",
"h*/(&&{{|:#<2#2eg8if[[2",
"b*(/~{|1$<<egg8[f3ff^g2",
"k}l9l==&{''::<8^ffff[^g",
"k}lmn**=&{{|:#ag[fff[^<",
"k}lmn}**=&{|:#ag[fff[^<",
".5n95}}*!=&{|:62^77f[^<",
".5505}}}/**=&&||<ai[[82",
"bd5od////*=&&&{{:e8f[^g",
"h**(&&{{|:#<2#2eg8if[g2",
"b**/~{|:22g^8[[3f[3f[g<",
"k}}5l=&{$$<e6g8[f33f[^2",
"kn}55}*!&&{|::6g^fff[[2",
"cn}55}}/==&{||#2gfff[3<",
"*}//}/!!]{||::#eg333^fg",
" {{{{{2ggg[[[[ffffffg3 "};
