/* XPM */
static char * exploding_barrel5_xpm[] = {
"60 53 44 1",
" 	c None",
".	c #430000",
"+	c #5B0000",
"@	c #670000",
"#	c #7F0000",
"$	c #8B0000",
"%	c #9B0000",
"&	c #A70000",
"*	c #4F0000",
"=	c #730000",
"-	c #470000",
";	c #B30000",
">	c #BF0000",
",	c #CB0000",
"'	c #D70000",
")	c #EF0000",
"!	c #E30000",
"~	c #FF0000",
"{	c #170F07",
"]	c #000000",
"^	c #131313",
"/	c #53573B",
"(	c #3F472B",
"_	c #373F27",
":	c #17330F",
"<	c #232323",
"[	c #5F0707",
"}	c #6B0F0F",
"|	c #771717",
"1	c #5B0707",
"2	c #7F1B1B",
"3	c #670B0B",
"4	c #530707",
"5	c #2F2F2F",
"6	c #831F1F",
"7	c #A33B3B",
"8	c #731313",
"9	c #676B4F",
"0	c #5B6347",
"a	c #474F33",
"b	c #972F2F",
"c	c #8B2323",
"d	c #7B7F63",
"e	c #9F876F",
"                       ....++.@@@ @                         ",
"                 + #$#@#$$%#$&+.*+=@$@..                    ",
"               ==%%$$@@=@+-.+#=++*+@+#$@..                  ",
"              -+=#%&&$#$%#=+@=+....-*+++.-...               ",
"            @ .++=@#%%;>;&%#$$####+++***+@.-..              ",
"           .@+  *++#%&>,,>;&&&>>;&#%&$=@##.-+=*.@.          ",
"          .*@. .-.+#=%>,')!>,,,&%##%;>;$=&=*.*-*+...        ",
"         ..&@++. *@#@%&,)))~>,;%=@@@=$%;%$$@.*-*#$-*.       ",
"          .@@+.. @%$%&%%>',;&&%#=$@++**#@#%+-*@.@$%%$+      ",
"         ***+.@=+@$$&%==%>&$##@+*@&#==-.@##@**=*.=$%&$      ",
"        ***.*+$#+@@$%#@+%&$##%#=-..*+@+*-*=@**#@..=%&%.     ",
"      ** * *+#$#+@+##@-+%$#$&%++##=+*+$$##.@+.@@ .*#%$*.    ",
"       +** *=##=+-+#@+-+%$#&%+-*++++..*$$$.**.++. .@==*.    ",
"    ***%@-.=$%$#**=#@++=#%&%#==@==.....*@+@. .*-- .*#=+..   ",
"     =*.=@==;>;$=+##@=$#==+=.-.#%#..  . ..$.-...  ***@#*.   ",
"     ** $#=#;>;$#@$==#%=+@=...--*.. .    .*.....    *@$+.   ",
"      * @%=#;>%#=@%==##=-=-..  ..... . .  .+@*..    *+$=+   ",
"      **#$@#>>%+@+%$###$+=*.   ..     .   .@#+*..* .**@#+   ",
"      .*=#@@;>%#@+%&$&&%==@   ...     ..  .=#+@@@.*.*@*==   ",
"    ****+@@+%;$$@+%&&&&%=#=   *$-     .  .+$#+@#@#**=$.+=   ",
"     +** --*@##@**#%&,>&#$$.  .$%%.    . .=#=@$##&%@$%....  ",
"     *$*   .+##@**##%;>&$$%.. .@==..     -#$@=$@%>;%%$. ..  ",
"     *$@*.  *#$#@*#$#%&&%$%+.  ...   .  .+$=@==@%>;%%=-  .  ",
"      +@*#. ++=++ @#%%$###%=* .         .=#@@@@%%&%%#=+. .. ",
"   * * .*@.+=++@-..+##=@++$%+  ....     ..#@**=&$==$@*=-*.. ",
"     * ..*.+#@*#*. ..**..-@#=*   ..     .@.**@$&=-+%=.$@. . ",
"      ......$#@.-    .    *.**@.*+.   ....@$%&,&+.*##+$=.   ",
"    . .. . *%%#*- -   .. *++. @**=@*...+==;,);&>@-=%&#++... ",
"    .  .....#%$@. -=-.*$ .@=+   *#$#**@%&;)',&=%+*#&;#.- .. ",
"     .+..*+*$$$=*. ++++++*.@*.  .+@@#%$&#%%&>%=@@#$&&=.  .@ ",
"     .*. +#=%$#+*..-+@@#$$$@*   ..*.@@@@@=%%$#@+##%%%+.  .@ ",
"   .*@*..#$$$##=++.**-@$%$%#*. .+$@#@@..+=++@++=###$#*  .@# ",
"   {.. .@=+##=##=+*+.-*#$#@@@#@+****+@=@.....-==@=$=@. *-=# ",
"     ..=$=@$=*+=+++ *...+*.**=##==#$##@@*.@#**@*=&$=*. .-@  ",
"     ..$#@==***++** . ........+@##$$=++++*.***@%;&#@.  .    ",
"      ==.*##*+**@*   . .......==@==@+++@+***.@#$$+** *  .   ",
"      --.#%%*..      ..@=......@@@+*@@==@++*..$#.** .*....  ",
"      ..@%%#..  ..  . .@$@@...*+@==@=$$=#=*.+#+..  .**#-..  ",
"    ..*@@#+..  ..  .....+*...*++#$%%%;;;%=*=+*.   ..*==*   .",
"    @%*@@*.      . .... +=**.*.*@=$%&&;%=*+##+.....-@=.    .",
"  ..$#*@@* .    .....@*.+====++==++@=@@+**=++..+--.+@+.   . ",
".  *@+.@@*      .....#@.=$$$===$=*..*..*++**---=*--@@*.  ...",
"  .*@*.+#+.  . .....*$==$%%#+****..**@**+*.-=@@#.*@#+@  .  .",
"  ..**+.+@+..    -..*+=$$$$=@*...........]^-.*$#*#%==+ .+{..",
"   .. %@**..+$;;%#.- *+##=@@=@../.(_:<]]...+$&$=@+@@-.  *=  ",
"    . ++*.@@#;&#%[...*@=@*.-+=..@}.@|....*+$%$=.--=@*...@*  ",
"    . ..--*@$;#[$;+@+==@*...*+.12=2#|*(.*+@$$#+- +=@. @@=. .",
"    =...-[3#|=+==@+@+@**..(..-.{4=%%>,,&$=#=##+--*+- +#=* . ",
"     +@=4}$$|=@=@@**....+...5^^^]*[&$67822$=$#+-... -==+.   ",
"     ....4@||@=@*@+   *=+...900/a*.$4.3@bcb2&+.. .  +**     ",
"       .--*|3+*++@.**@=#d..d....+#+*.*+@#=@@*+..+.  .. .    ",
"        *   #=@*..*@+*@*.....e.3@@=@.(***32++.[@.           ",
"             8  ..**+*. ////5<<+3@^^]]]] +[**               "};
