/* XPM */
static char * eye3_xpm[] = {
"64 64 30 1",
" 	c None",
".	c #131111",
"+	c #4F0000",
"@	c #430000",
"#	c #5B0000",
"$	c #670000",
"%	c #7F0000",
"&	c #FF7B7B",
"*	c #FF5F5F",
"=	c #CB0000",
"-	c #BF0000",
";	c #B30000",
">	c #9B0000",
",	c #A70000",
"'	c #FF3F3F",
")	c #9F009B",
"!	c #2F2F2F",
"~	c #00006B",
"{	c #8F2B2B",
"]	c #FF1F1F",
"^	c #D70000",
"/	c #8B0000",
"(	c #730000",
"_	c #731313",
":	c #E30000",
"<	c #6F006B",
"[	c #EF0000",
"}	c #771717",
"|	c #000047",
"1	c #FF0000",
"                                                                ",
"                                                                ",
"                                                                ",
"                                                                ",
"                                                                ",
"                                                                ",
"                                                                ",
"                                                                ",
"                                                                ",
"                                                                ",
"                                                                ",
"                                                                ",
"                                                                ",
"                                                                ",
"                                                                ",
"                                                                ",
"                                                                ",
"                                                                ",
"                                                                ",
"                                                                ",
"                                                                ",
"                                                                ",
"                                                                ",
"                                                                ",
"                                                                ",
"                                                                ",
"                                                                ",
"                                                                ",
"                                                                ",
"                                                                ",
"                                                                ",
"                                                                ",
"                                                                ",
"                                                                ",
"                                                                ",
"                                                                ",
"                                                                ",
"                                                                ",
"                                                                ",
"                                                                ",
"                                                                ",
"                                                                ",
"                                                                ",
"                                                                ",
"                                                                ",
"                                                                ",
"                                                                ",
"                                                                ",
"                                                                ",
"                                                                ",
"                                                                ",
"                             ....                               ",
"                           .+@+++##                             ",
"                          #..+##$%%#                            ",
"                          .#&*=--;;>#                           ",
"                         #$,')!.~{]^/                           ",
"                         $(>_!!$.~::;#                          ",
"                         %/,<.-[$.]*=#                          ",
"                         >;-}.+$.~]'=#                          ",
"                         #-==<..|{]1,                           ",
"                          >^^^]]]]':#                           ",
"                          #(-^^^^^-(                            ",
"                           .#/,,%##                             ",
"                             ....                               "};
