/* XPM */
static char * eye4_xpm[] = {
"64 64 27 1",
" 	c None",
".	c #131111",
"+	c #5B0000",
"@	c #4F0000",
"#	c #670000",
"$	c #7F0000",
"%	c #FF7B7B",
"&	c #FF3F3F",
"*	c #CB0000",
"=	c #BF0000",
"-	c #B30000",
";	c #9B0000",
">	c #A70000",
",	c #972F2F",
"'	c #A33B3B",
")	c #D70000",
"!	c #E30000",
"~	c #FF1F1F",
"{	c #8B0000",
"]	c #730000",
"^	c #9F009B",
"/	c #831F1F",
"(	c #6F006B",
"_	c #FF5F5F",
":	c #000053",
"<	c #FF0000",
"[	c #EF0000",
"                                                                ",
"                                                                ",
"                                                                ",
"                                                                ",
"                                                                ",
"                                                                ",
"                                                                ",
"                                                                ",
"                                                                ",
"                                                                ",
"                                                                ",
"                                                                ",
"                                                                ",
"                                                                ",
"                                                                ",
"                                                                ",
"                                                                ",
"                                                                ",
"                                                                ",
"                                                                ",
"                                                                ",
"                                                                ",
"                                                                ",
"                                                                ",
"                                                                ",
"                                                                ",
"                                                                ",
"                                                                ",
"                                                                ",
"                                                                ",
"                                                                ",
"                                                                ",
"                                                                ",
"                                                                ",
"                                                                ",
"                                                                ",
"                                                                ",
"                                                                ",
"                                                                ",
"                                                                ",
"                                                                ",
"                                                                ",
"                                                                ",
"                                                                ",
"                                                                ",
"                                                                ",
"                                                                ",
"                                                                ",
"                                                                ",
"                                                                ",
"                                                                ",
"                             ....                               ",
"                           .+.@@@++                             ",
"                          +..@++#$$+                            ",
"                          .+%&*==--;+                           ",
"                         +#>&&,')!~){                           ",
"                         #];!-^./)!!-+                          ",
"                         ${>)((.=)~_*+                          ",
"                         ;-=!=(:/!~&*+                          ",
"                         +=**!**!~~<>                           ",
"                          ;))[~<~~&!+                           ",
"                          +]=)))))=]                            ",
"                           .+{>>$++                             ",
"                             ....                               "};
