/* XPM */
static char * eye2_xpm[] = {
"64 64 35 1",
" 	c None",
".	c #131111",
"+	c #5B0000",
"@	c #430000",
"#	c #4F0000",
"$	c #232323",
"%	c #6F006B",
"&	c #670000",
"*	c #7F0000",
"=	c #FF7B7B",
"-	c #FF5F5F",
";	c #000047",
">	c #000053",
",	c #B30000",
"'	c #9B0000",
")	c #A70000",
"!	c #CF00CF",
"~	c #9F009B",
"{	c #0000B3",
"]	c #00006B",
"^	c #CB0000",
"/	c #8B0000",
"(	c #730000",
"_	c #2F2F2F",
":	c #000083",
"<	c #00009B",
"[	c #E30000",
"}	c #BF0000",
"|	c #0000CB",
"1	c #0000E3",
"2	c #1B1BFF",
"3	c #5353FF",
"4	c #3737FF",
"5	c #FF0000",
"6	c #D70000",
"                                                                ",
"                                                                ",
"                                                                ",
"                                                                ",
"                                                                ",
"                                                                ",
"                                                                ",
"                                                                ",
"                                                                ",
"                                                                ",
"                                                                ",
"                                                                ",
"                                                                ",
"                                                                ",
"                                                                ",
"                                                                ",
"                                                                ",
"                                                                ",
"                                                                ",
"                                                                ",
"                                                                ",
"                                                                ",
"                                                                ",
"                                                                ",
"                                                                ",
"                                                                ",
"                                                                ",
"                                                                ",
"                                                                ",
"                                                                ",
"                                                                ",
"                                                                ",
"                                                                ",
"                                                                ",
"                                                                ",
"                                                                ",
"                                                                ",
"                                                                ",
"                                                                ",
"                                                                ",
"                                                                ",
"                                                                ",
"                                                                ",
"                                                                ",
"                                                                ",
"                                                                ",
"                                                                ",
"                                                                ",
"                                                                ",
"                                                                ",
"                                                                ",
"                             ....                               ",
"                           .+@###++                             ",
"                          +.$%++&**+                            ",
"                          .+=-;;>%,'+                           ",
"                         +&)!~{]]]%^/                           ",
"                         &(%.__.:<:[,+                          ",
"                         */%/}..|1<[^+                          ",
"                         ',%...]23{[^+                          ",
"                         +}^].;143%5)                           ",
"                          '6,%|12%[[+                           ",
"                          +(}66666}(                            ",
"                           .+/))*++                             ",
"                             ....                               "};
