/* XPM */
static char * metallic_lamp3_xpm[] = {
"18 60 54 1",
" 	c None",
".	c #272727",
"+	c #000000",
"@	c #1B1B1B",
"#	c #373737",
"$	c #2F2F2F",
"%	c #170F07",
"&	c #131313",
"*	c #232323",
"=	c #1F170B",
"-	c #373F27",
";	c #43331B",
">	c #4F3B23",
",	c #332B13",
"'	c #8F8FFF",
")	c #0000FF",
"!	c #C7C7FF",
"~	c #E7E7FF",
"{	c #3737FF",
"]	c #5353FF",
"^	c #FFFFD7",
"/	c #FFFFFF",
"(	c #ABABFF",
"_	c #372313",
":	c #3F2B1B",
"<	c #5F4323",
"[	c #2F1B0B",
"}	c #4B371B",
"|	c #533F1F",
"1	c #3F2F17",
"2	c #3F472B",
"3	c #5B6347",
"4	c #53573B",
"5	c #474F33",
"6	c #875733",
"7	c #6B4727",
"8	c #774F2B",
"9	c #0B0B0B",
"0	c #4B4B4B",
"a	c #6F6F6F",
"b	c #8B8B8B",
"c	c #838383",
"d	c #5B5B5B",
"e	c #4F4F4F",
"f	c #434343",
"g	c #575757",
"h	c #777777",
"i	c #636363",
"j	c #7F532F",
"k	c #9B633B",
"l	c #8F5F37",
"m	c #676B4F",
"n	c #5B472B",
"o	c #675333",
"     .+@.#.++#    ",
"  $%&&%&&&&&++++  ",
" %++*=%===&&%%+++ ",
" +%%-==;>>,*=-%%+=",
" ''&)!!~~~~!!)&&' ",
" ''&{!!~~~~!!{&&' ",
" ''&]!!~~~~~!]&&' ",
" ''&'!~^//^~~'&&' ",
" ''&(!~////^~(&&' ",
" ''&'!~////^~'&&' ",
" ''&]!!~^/~~!]&&' ",
" ''&{!!~~~~!!{&&' ",
" ''&)!!!~~!!!)&&' ",
" +%%-==,,;,*=-%%+=",
" %++*=%===&&%%+++ ",
"  $%&&%&&&&&++++  ",
"     .+@.#.++#    ",
"     _:<<<___     ",
"     [=_::%%%     ",
"     [%:}:%%%     ",
"     [%:|:,,%     ",
"     123345<1     ",
"     1}545}}1     ",
"     1}<5<}}1     ",
"     11<6<}}1     ",
"      %:}:%%%     ",
"      %:|:%%%     ",
"      [}<:%%%     ",
"      [<7}%%%     ",
"      [<8<%%%     ",
"      [<6<%%%     ",
"     [%:}:9%%     ",
"     #0abcdef     ",
"     #ghbcidf     ",
"     #ghbcdef     ",
"     [_<7<}=,     ",
"     [[}7|}%,     ",
"     [%:}:9%%     ",
"     #fabcdef     ",
"     #ghbcidf     ",
"     #ghbcdef     ",
"     [_<7<===     ",
"     [[}7|%%%     ",
"     [%}}:%_[     ",
"     [%}|:%_[     ",
"     [[}<:%_[     ",
"     [[<7}%[[     ",
"     [[<8<%[[     ",
"     [[<6<[[[     ",
"    =::<|}:::==   ",
"    [%%++++++[    ",
"    [=:jkl_[[[    ",
"    [=+++++++[    ",
"    [=:lkk:[[=    ",
"    =::<<|:::[=   ",
"   _:::1111[[[__  ",
" ___}}<43m47|:___ ",
" :::}|n43m4on}}:__",
"  }}<<<7oo77<<}}  ",
"     <778j777     "};
